<svg xmlns="http://www.w3.org/2000/svg" xmlns:xlink="http://www.w3.org/1999/xlink" width="1366" zoomAndPan="magnify" viewBox="0 0 1024.5 576" height="768" preserveAspectRatio="xMidYMid meet" version="1.0"><path fill="#238354" d="M 742.457031 512.75 C 773.734375 486.511719 790.820312 443.074219 791.210938 416.113281 C 794.152344 215.167969 806.828125 118.40625 687.652344 63.625 C 660.097656 50.960938 494.996094 0.136719 370.226562 57.164062 C 312.59375 83.503906 217.136719 137.398438 262.628906 353.324219 C 280.640625 438.8125 337.703125 545.132812 416.894531 563.292969 C 466.691406 574.710938 482.542969 575.871094 586.03125 566.453125 C 675.609375 558.296875 704.199219 544.851562 742.457031 512.75 " fill-opacity="1" fill-rule="nonzero"/><path fill="#ffffff" d="M 565.855469 46.851562 C 565.683594 46.851562 565.503906 46.804688 565.34375 46.703125 L 561.835938 44.550781 C 561.378906 44.269531 561.230469 43.667969 561.515625 43.203125 C 561.796875 42.742188 562.402344 42.597656 562.863281 42.878906 L 566.375 45.03125 C 566.832031 45.3125 566.980469 45.917969 566.695312 46.378906 C 566.511719 46.683594 566.1875 46.851562 565.855469 46.851562 " fill-opacity="1" fill-rule="nonzero"/><path fill="#ffffff" d="M 578.132812 54.382812 C 577.957031 54.382812 577.78125 54.335938 577.621094 54.234375 L 574.113281 52.085938 C 573.65625 51.800781 573.507812 51.199219 573.789062 50.734375 C 574.074219 50.273438 574.679688 50.128906 575.140625 50.410156 L 578.648438 52.5625 C 579.109375 52.847656 579.257812 53.449219 578.972656 53.910156 C 578.789062 54.21875 578.464844 54.382812 578.132812 54.382812 " fill-opacity="1" fill-rule="nonzero"/><path fill="#ffffff" d="M 565.449219 57.460938 C 565.277344 57.460938 565.101562 57.414062 564.941406 57.320312 C 564.480469 57.039062 564.332031 56.4375 564.609375 55.972656 L 566.742188 52.449219 C 567.019531 51.984375 567.625 51.835938 568.089844 52.117188 C 568.554688 52.402344 568.703125 53.003906 568.421875 53.464844 L 566.292969 56.988281 C 566.105469 57.292969 565.78125 57.460938 565.449219 57.460938 " fill-opacity="1" fill-rule="nonzero"/><path fill="#ffffff" d="M 572.902344 45.140625 C 572.730469 45.140625 572.554688 45.097656 572.398438 45 C 571.933594 44.714844 571.785156 44.113281 572.066406 43.652344 L 574.195312 40.128906 C 574.476562 39.664062 575.082031 39.515625 575.542969 39.796875 C 576.007812 40.078125 576.15625 40.683594 575.875 41.148438 L 573.746094 44.664062 C 573.558594 44.972656 573.238281 45.140625 572.902344 45.140625 " fill-opacity="1" fill-rule="nonzero"/><path fill="#ffffff" d="M 263.472656 279.285156 C 263.023438 279.285156 262.621094 278.980469 262.515625 278.523438 C 256.398438 252.167969 257.398438 223.761719 265.40625 196.371094 C 265.558594 195.851562 266.101562 195.554688 266.621094 195.707031 C 267.140625 195.855469 267.441406 196.402344 267.289062 196.921875 C 259.378906 223.988281 258.386719 252.054688 264.429688 278.082031 C 264.550781 278.609375 264.222656 279.136719 263.695312 279.257812 C 263.621094 279.273438 263.546875 279.285156 263.472656 279.285156 " fill-opacity="1" fill-rule="nonzero"/><path fill="#ffffff" d="M 270.300781 187.214844 L 273.722656 189.710938 C 273.953125 188.824219 274.261719 187.578125 274.542969 186.238281 Z M 274.296875 192.328125 C 274.089844 192.328125 273.886719 192.261719 273.71875 192.140625 L 267.40625 187.535156 C 267.09375 187.308594 266.945312 186.921875 267.019531 186.546875 C 267.097656 186.167969 267.386719 185.875 267.761719 185.785156 L 275.578125 183.984375 C 275.902344 183.914062 276.238281 184.007812 276.476562 184.234375 C 276.714844 184.460938 276.824219 184.792969 276.761719 185.117188 C 276.171875 188.371094 275.277344 191.484375 275.238281 191.617188 C 275.148438 191.925781 274.917969 192.171875 274.613281 192.273438 C 274.511719 192.308594 274.402344 192.328125 274.296875 192.328125 " fill-opacity="1" fill-rule="nonzero"/><path fill="#ffffff" d="M 555.839844 560.289062 C 536.976562 560.289062 517.910156 558.21875 498.902344 554.09375 C 498.371094 553.976562 498.035156 553.457031 498.152344 552.925781 C 498.269531 552.394531 498.792969 552.0625 499.320312 552.175781 C 552.359375 563.6875 606.671875 558.757812 652.253906 538.296875 C 652.75 538.074219 653.332031 538.296875 653.554688 538.792969 C 653.777344 539.285156 653.554688 539.867188 653.058594 540.089844 C 629.960938 550.457031 604.890625 556.914062 578.546875 559.277344 C 571.027344 559.953125 563.445312 560.289062 555.839844 560.289062 " fill-opacity="1" fill-rule="nonzero"/><path fill="#ffffff" d="M 557.28125 548.140625 C 549.636719 548.140625 541.945312 547.78125 534.226562 547.058594 C 533.6875 547.007812 533.289062 546.527344 533.34375 545.988281 C 533.390625 545.449219 533.878906 545.046875 534.410156 545.101562 C 573.453125 548.761719 611.898438 543.035156 645.585938 528.546875 C 646.085938 528.332031 646.660156 528.5625 646.875 529.058594 C 647.089844 529.558594 646.859375 530.132812 646.359375 530.347656 C 619.039062 542.097656 588.613281 548.140625 557.28125 548.140625 " fill-opacity="1" fill-rule="nonzero"/><path fill="#ffffff" d="M 767.195312 81.183594 C 766.964844 81.183594 766.734375 81.105469 766.550781 80.945312 C 747.445312 64.167969 725.085938 50.675781 700.101562 40.828125 C 699.589844 40.628906 699.347656 40.058594 699.542969 39.554688 C 699.742188 39.050781 700.3125 38.800781 700.820312 39 C 726.015625 48.933594 748.566406 62.546875 767.84375 79.464844 C 768.253906 79.824219 768.292969 80.445312 767.929688 80.851562 C 767.738281 81.070312 767.46875 81.183594 767.195312 81.183594 " fill-opacity="1" fill-rule="nonzero"/><path fill="#ffffff" d="M 744.097656 78.535156 C 743.882812 78.535156 743.667969 78.464844 743.488281 78.324219 C 719.015625 59.007812 690.054688 45.316406 657.414062 37.617188 C 656.886719 37.496094 656.558594 36.964844 656.683594 36.4375 C 656.804688 35.910156 657.335938 35.582031 657.863281 35.707031 C 690.789062 43.46875 720.003906 57.289062 744.703125 76.78125 C 745.128906 77.117188 745.199219 77.734375 744.867188 78.160156 C 744.675781 78.40625 744.386719 78.535156 744.097656 78.535156 " fill-opacity="1" fill-rule="nonzero"/><path fill="#2e9b63" d="M 773.753906 394.007812 L 463.011719 350.792969 C 455.210938 349.796875 449.367188 343.160156 449.367188 335.292969 L 445.101562 118.546875 C 445.101562 118.546875 452.183594 113.441406 456.199219 111.480469 C 458.242188 110.488281 460.597656 110.050781 463.042969 110.367188 L 772.859375 149.875 C 780.664062 150.871094 786.507812 157.507812 786.507812 165.375 L 786.507812 378.257812 C 786.507812 382.066406 784.769531 385.425781 782.074219 387.640625 C 779.597656 389.679688 773.753906 394.007812 773.753906 394.007812 " fill-opacity="1" fill-rule="nonzero"/><path fill="#12262f" d="M 764.269531 396.890625 L 454.453125 357.378906 C 446.652344 356.382812 440.804688 349.746094 440.804688 341.878906 L 440.804688 128.996094 C 440.804688 121.679688 447.226562 116.027344 454.480469 116.949219 L 764.300781 156.460938 C 772.101562 157.457031 777.949219 164.09375 777.949219 171.960938 L 777.949219 384.84375 C 777.949219 392.160156 771.527344 397.8125 764.269531 396.890625 " fill-opacity="1" fill-rule="nonzero"/><path fill="#3fbf7f" d="M 764.394531 395.914062 C 767.578125 396.320312 770.777344 395.335938 773.179688 393.21875 C 775.582031 391.101562 776.964844 388.050781 776.964844 384.84375 L 776.964844 171.960938 C 776.964844 164.609375 771.464844 158.363281 764.175781 157.433594 L 454.359375 117.921875 C 451.175781 117.519531 447.976562 118.5 445.570312 120.617188 C 443.164062 122.738281 441.785156 125.789062 441.785156 128.992188 L 441.785156 341.878906 C 441.785156 349.230469 447.285156 355.472656 454.578125 356.40625 Z M 765.804688 397.96875 C 765.25 397.96875 764.695312 397.933594 764.144531 397.863281 L 454.328125 358.351562 C 446.058594 357.296875 439.824219 350.214844 439.824219 341.878906 L 439.824219 128.992188 C 439.824219 125.226562 441.445312 121.636719 444.273438 119.144531 C 447.101562 116.652344 450.867188 115.5 454.605469 115.976562 L 764.425781 155.488281 C 772.691406 156.542969 778.929688 163.625 778.929688 171.960938 L 778.929688 384.84375 C 778.929688 388.613281 777.304688 392.203125 774.476562 394.695312 C 772.070312 396.816406 768.976562 397.96875 765.804688 397.96875 " fill-opacity="1" fill-rule="nonzero"/><path fill="#238354" d="M 757.6875 388.113281 L 461.859375 350.386719 C 456.183594 349.660156 451.933594 344.835938 451.933594 339.113281 L 451.933594 133.765625 C 451.933594 128.882812 456.222656 125.105469 461.066406 125.722656 L 756.894531 163.453125 C 762.570312 164.171875 766.820312 169.003906 766.820312 174.71875 L 766.820312 380.070312 C 766.820312 384.957031 762.539062 388.730469 757.6875 388.113281 " fill-opacity="1" fill-rule="nonzero"/><path fill="#3fbf7f" d="M 583.519531 522.261719 L 264.890625 481.171875 C 262.394531 480.851562 260.988281 478.765625 261.019531 476.675781 C 261.042969 475.234375 261.160156 465.09375 261.160156 465.09375 L 429.636719 368.777344 C 438.078125 363.957031 449 362.09375 458.644531 363.328125 L 773.253906 403.914062 C 775.144531 404.15625 776.769531 405.386719 777.523438 407.144531 L 778.027344 408.328125 C 778.027344 408.328125 777.757812 416.785156 777.863281 418.761719 C 777.953125 420.308594 777.253906 421.898438 775.636719 422.828125 L 611.386719 516.734375 C 602.945312 521.558594 593.167969 523.5 583.519531 522.261719 " fill-opacity="1" fill-rule="nonzero"/><path fill="#12262f" d="M 304.078125 474.878906 L 266.027344 469.960938 C 261.8125 469.421875 260.707031 463.832031 264.394531 461.726562 L 427.761719 368.417969 C 436.203125 363.597656 445.988281 361.65625 455.628906 362.890625 L 773.125 403.910156 C 777.339844 404.445312 778.445312 410.035156 774.757812 412.144531 L 611.386719 505.449219 C 602.945312 510.269531 593.167969 512.210938 583.523438 510.976562 L 304.078125 474.878906 " fill-opacity="1" fill-rule="nonzero"/><path fill="#3fbf7f" d="M 304.203125 473.902344 L 583.648438 510.003906 C 593.019531 511.203125 602.699219 509.285156 610.902344 504.59375 L 774.273438 411.292969 C 775.859375 410.386719 776.179688 408.804688 775.945312 407.628906 C 775.710938 406.453125 774.816406 405.113281 773.003906 404.878906 L 455.503906 363.867188 C 446.132812 362.667969 436.453125 364.585938 428.25 369.269531 L 264.882812 462.578125 C 263.292969 463.484375 262.976562 465.0625 263.210938 466.238281 C 263.445312 467.414062 264.339844 468.757812 266.152344 468.988281 Z M 589.136719 512.3125 C 587.21875 512.3125 585.300781 512.191406 583.398438 511.949219 L 265.902344 470.933594 C 263.558594 470.632812 261.746094 468.941406 261.285156 466.621094 C 260.824219 464.300781 261.855469 462.046875 263.910156 460.871094 L 427.277344 367.566406 C 435.851562 362.667969 445.960938 360.667969 455.753906 361.917969 L 773.253906 402.933594 C 775.59375 403.230469 777.40625 404.925781 777.871094 407.246094 C 778.328125 409.5625 777.300781 411.820312 775.246094 412.996094 L 611.878906 506.300781 C 604.972656 510.246094 597.070312 512.3125 589.136719 512.3125 " fill-opacity="1" fill-rule="nonzero"/><path fill="#238354" d="M 645.683594 459.179688 L 370.378906 423.355469 C 366.570312 422.871094 365.570312 417.820312 368.902344 415.921875 L 433.636719 379.320312 C 441.257812 374.964844 450.09375 373.210938 458.804688 374.328125 L 734.113281 410.152344 C 737.921875 410.640625 738.921875 415.6875 735.589844 417.59375 L 670.855469 454.191406 C 663.230469 458.542969 654.398438 460.296875 645.683594 459.179688 " fill-opacity="1" fill-rule="nonzero"/><path fill="#2e9b63" d="M 744.757812 385.003906 L 474.40625 351.132812 C 473.445312 351.011719 472.722656 350.195312 472.722656 349.226562 L 472.722656 61.230469 C 472.722656 60.074219 473.738281 59.179688 474.882812 59.324219 L 745.238281 93.195312 C 746.199219 93.316406 746.921875 94.132812 746.921875 95.105469 L 746.921875 383.097656 C 746.921875 384.257812 745.910156 385.152344 744.757812 385.003906 " fill-opacity="1" fill-rule="nonzero"/><path fill="#ffffff" d="M 744.878906 384.03125 C 745.15625 384.066406 745.414062 383.984375 745.621094 383.804688 C 745.824219 383.625 745.9375 383.371094 745.9375 383.101562 L 745.9375 95.109375 C 745.9375 94.632812 745.585938 94.230469 745.113281 94.175781 L 474.761719 60.300781 C 474.484375 60.265625 474.226562 60.347656 474.019531 60.527344 C 473.816406 60.707031 473.703125 60.960938 473.703125 61.230469 L 473.703125 349.226562 C 473.703125 349.703125 474.054688 350.101562 474.527344 350.160156 Z M 744.996094 386.003906 C 744.875 386.003906 744.757812 385.996094 744.636719 385.980469 L 474.28125 352.109375 C 472.832031 351.925781 471.742188 350.6875 471.742188 349.226562 L 471.742188 61.230469 C 471.742188 60.398438 472.09375 59.609375 472.71875 59.054688 C 473.347656 58.503906 474.183594 58.246094 475.003906 58.351562 L 745.359375 92.226562 C 746.808594 92.40625 747.902344 93.644531 747.902344 95.109375 L 747.902344 383.101562 C 747.902344 383.933594 747.542969 384.726562 746.921875 385.277344 C 746.386719 385.746094 745.703125 386.003906 744.996094 386.003906 " fill-opacity="1" fill-rule="nonzero"/><path fill="#238354" d="M 715.765625 164.269531 L 526.933594 140.613281 L 526.933594 132.265625 L 715.765625 155.921875 L 715.765625 164.269531 " fill-opacity="1" fill-rule="nonzero"/><path fill="#238354" d="M 666.445312 174.523438 L 526.933594 157.042969 L 526.933594 148.695312 L 666.445312 166.175781 L 666.445312 174.523438 " fill-opacity="1" fill-rule="nonzero"/><path fill="#238354" d="M 715.765625 208.730469 L 526.933594 185.074219 L 526.933594 176.726562 L 715.765625 200.382812 L 715.765625 208.730469 " fill-opacity="1" fill-rule="nonzero"/><path fill="#238354" d="M 666.441406 218.984375 L 526.929688 201.503906 L 526.929688 193.15625 L 666.441406 210.636719 L 666.441406 218.984375 " fill-opacity="1" fill-rule="nonzero"/><path fill="#238354" d="M 715.765625 253.191406 L 526.933594 229.53125 L 526.933594 221.183594 L 715.765625 244.839844 L 715.765625 253.191406 " fill-opacity="1" fill-rule="nonzero"/><path fill="#238354" d="M 666.441406 263.445312 L 526.929688 245.964844 L 526.929688 237.617188 L 666.441406 255.097656 L 666.441406 263.445312 " fill-opacity="1" fill-rule="nonzero"/><path fill="#238354" d="M 715.765625 297.648438 L 526.933594 273.992188 L 526.933594 265.644531 L 715.765625 289.300781 L 715.765625 297.648438 " fill-opacity="1" fill-rule="nonzero"/><path fill="#238354" d="M 666.441406 307.902344 L 526.929688 290.425781 L 526.929688 282.078125 L 666.441406 299.558594 L 666.441406 307.902344 " fill-opacity="1" fill-rule="nonzero"/><path fill="#238354" d="M 514.636719 135.285156 C 514.636719 138.148438 512.300781 140.167969 509.425781 139.808594 C 506.542969 139.449219 504.207031 136.839844 504.207031 133.980469 C 504.207031 131.125 506.542969 129.097656 509.425781 129.457031 C 512.300781 129.816406 514.636719 132.429688 514.636719 135.285156 " fill-opacity="1" fill-rule="nonzero"/><path fill="#238354" d="M 513.414062 180.199219 C 513.414062 183.058594 511.078125 185.082031 508.195312 184.722656 C 505.316406 184.359375 502.984375 181.75 502.984375 178.890625 C 502.984375 176.03125 505.316406 174.007812 508.195312 174.367188 C 511.078125 174.730469 513.414062 177.339844 513.414062 180.199219 " fill-opacity="1" fill-rule="nonzero"/><path fill="#238354" d="M 513.613281 223.664062 C 513.613281 226.523438 511.277344 228.546875 508.398438 228.191406 C 505.519531 227.828125 503.183594 225.214844 503.183594 222.359375 C 503.183594 219.5 505.519531 217.472656 508.398438 217.835938 C 511.277344 218.195312 513.613281 220.804688 513.613281 223.664062 " fill-opacity="1" fill-rule="nonzero"/><path fill="#238354" d="M 512.386719 268.578125 C 512.386719 271.4375 510.050781 273.460938 507.175781 273.097656 C 504.292969 272.738281 501.957031 270.128906 501.957031 267.269531 C 501.957031 264.410156 504.292969 262.386719 507.175781 262.746094 C 510.050781 263.105469 512.386719 265.71875 512.386719 268.578125 " fill-opacity="1" fill-rule="nonzero"/><path fill="#238354" d="M 714.539062 336.472656 L 525.707031 312.8125 L 525.707031 304.464844 L 714.539062 328.125 L 714.539062 336.472656 " fill-opacity="1" fill-rule="nonzero"/><path fill="#238354" d="M 665.21875 346.726562 L 525.703125 329.25 L 525.703125 320.898438 L 665.21875 338.378906 L 665.21875 346.726562 " fill-opacity="1" fill-rule="nonzero"/><path fill="#238354" d="M 511.160156 307.398438 C 511.160156 310.261719 508.828125 312.28125 505.949219 311.921875 C 503.066406 311.5625 500.730469 308.949219 500.730469 306.09375 C 500.730469 303.234375 503.066406 301.207031 505.949219 301.570312 C 508.828125 301.933594 511.160156 304.539062 511.160156 307.398438 " fill-opacity="1" fill-rule="nonzero"/><path fill="#12262f" d="M 664.515625 131.449219 L 550.011719 117.105469 L 550.011719 105.332031 L 664.515625 119.679688 L 664.515625 131.449219 " fill-opacity="1" fill-rule="nonzero"/><path fill="#3fbf7f" d="M 318.429688 155.027344 C 309.878906 156.628906 301.644531 151 300.039062 142.449219 C 298.4375 133.894531 304.066406 125.664062 312.617188 124.058594 C 321.167969 122.457031 329.402344 128.089844 331.007812 136.636719 C 332.609375 145.1875 326.980469 153.421875 318.429688 155.027344 Z M 347.199219 136.710938 L 346.074219 130.695312 L 339.394531 130.453125 C 338.882812 129.109375 338.269531 127.820312 337.554688 126.605469 L 341.542969 121.25 L 337.558594 116.605469 L 331.648438 119.738281 C 330.546875 118.839844 329.371094 118.039062 328.136719 117.335938 L 328.910156 110.695312 L 323.136719 108.664062 L 319.59375 114.320312 C 318.203125 114.097656 316.78125 113.988281 315.339844 114.003906 L 312.691406 107.863281 L 306.679688 108.992188 L 306.433594 115.671875 C 305.089844 116.183594 303.804688 116.796875 302.589844 117.511719 L 297.234375 113.523438 L 292.589844 117.507812 L 295.71875 123.414062 C 294.820312 124.519531 294.019531 125.695312 293.316406 126.933594 L 286.675781 126.15625 L 284.644531 131.929688 L 290.300781 135.476562 C 290.078125 136.863281 289.972656 138.285156 289.984375 139.726562 L 283.84375 142.375 L 284.976562 148.386719 L 291.652344 148.628906 C 292.164062 149.976562 292.777344 151.261719 293.492188 152.476562 L 289.503906 157.832031 L 293.488281 162.476562 L 299.398438 159.347656 C 300.5 160.246094 301.675781 161.050781 302.910156 161.753906 L 302.136719 168.394531 L 307.910156 170.421875 L 311.453125 164.765625 C 312.84375 164.992188 314.265625 165.09375 315.707031 165.085938 L 318.355469 171.21875 L 324.367188 170.09375 L 324.613281 163.414062 C 325.957031 162.902344 327.246094 162.289062 328.460938 161.578125 L 333.8125 165.558594 L 338.457031 161.578125 L 335.328125 155.667969 C 336.226562 154.566406 337.03125 153.390625 337.734375 152.15625 L 344.371094 152.929688 L 346.402344 147.15625 L 340.746094 143.613281 C 340.972656 142.21875 341.078125 140.800781 341.066406 139.359375 L 347.199219 136.710938 " fill-opacity="1" fill-rule="nonzero"/><path fill="#ffffff" d="M 313.046875 123.066406 C 312.144531 123.066406 311.234375 123.148438 310.316406 123.320312 C 302.3125 124.824219 297.019531 132.558594 298.523438 140.566406 C 299.25 144.441406 301.445312 147.804688 304.699219 150.03125 C 307.957031 152.257812 311.886719 153.085938 315.765625 152.355469 C 323.769531 150.855469 329.0625 143.117188 327.558594 135.113281 C 326.230469 128.027344 320.011719 123.066406 313.046875 123.066406 Z M 313.003906 154.578125 C 309.667969 154.578125 306.40625 153.578125 303.589844 151.652344 C 299.902344 149.125 297.417969 145.316406 296.59375 140.925781 C 294.890625 131.855469 300.882812 123.09375 309.953125 121.390625 C 319.027344 119.691406 327.785156 125.6875 329.488281 134.753906 C 331.191406 143.820312 325.195312 152.585938 316.125 154.285156 C 315.085938 154.480469 314.039062 154.578125 313.003906 154.578125 Z M 313.222656 162.398438 C 313.613281 162.398438 313.96875 162.628906 314.125 162.992188 L 316.460938 168.40625 L 320.933594 167.566406 L 321.148438 161.671875 C 321.160156 161.277344 321.410156 160.929688 321.78125 160.792969 C 323.074219 160.300781 324.320312 159.707031 325.480469 159.023438 C 325.820312 158.824219 326.246094 158.847656 326.5625 159.082031 L 331.285156 162.601562 L 334.738281 159.640625 L 331.976562 154.425781 C 331.792969 154.078125 331.835938 153.648438 332.082031 153.34375 C 332.941406 152.289062 333.722656 151.15625 334.394531 149.964844 C 334.589844 149.625 334.96875 149.429688 335.363281 149.476562 L 341.222656 150.160156 L 342.734375 145.867188 L 337.742188 142.738281 C 337.40625 142.53125 337.230469 142.140625 337.292969 141.75 C 337.507812 140.429688 337.613281 139.054688 337.601562 137.664062 C 337.597656 137.269531 337.828125 136.910156 338.191406 136.757812 L 343.609375 134.417969 L 342.769531 129.945312 L 336.875 129.730469 C 336.480469 129.714844 336.132812 129.46875 335.992188 129.101562 C 335.5 127.804688 334.90625 126.558594 334.226562 125.398438 C 334.027344 125.058594 334.050781 124.632812 334.285156 124.316406 L 337.804688 119.589844 L 334.839844 116.140625 L 329.625 118.902344 C 329.277344 119.082031 328.851562 119.046875 328.546875 118.796875 C 327.488281 117.933594 326.351562 117.15625 325.167969 116.484375 C 324.824219 116.289062 324.632812 115.90625 324.675781 115.515625 L 325.363281 109.65625 L 321.070312 108.144531 L 317.941406 113.136719 C 317.730469 113.46875 317.339844 113.652344 316.953125 113.585938 C 315.625 113.371094 314.246094 113.265625 312.867188 113.277344 C 312.472656 113.273438 312.113281 113.050781 311.957031 112.6875 L 309.617188 107.269531 L 305.148438 108.109375 L 304.933594 114.003906 C 304.917969 114.398438 304.667969 114.746094 304.300781 114.886719 C 303.007812 115.375 301.761719 115.972656 300.601562 116.652344 C 300.261719 116.851562 299.835938 116.828125 299.519531 116.59375 L 294.792969 113.078125 L 291.339844 116.039062 L 294.101562 121.25 C 294.289062 121.597656 294.246094 122.023438 293.996094 122.332031 C 293.136719 123.390625 292.359375 124.527344 291.683594 125.714844 C 291.488281 126.054688 291.109375 126.25 290.71875 126.199219 L 284.855469 125.519531 L 283.347656 129.808594 L 288.339844 132.9375 C 288.671875 133.148438 288.847656 133.539062 288.785156 133.925781 C 288.574219 135.253906 288.46875 136.628906 288.480469 138.011719 C 288.484375 138.410156 288.25 138.769531 287.890625 138.921875 L 282.472656 141.261719 L 283.3125 145.734375 L 289.207031 145.945312 C 289.601562 145.960938 289.945312 146.210938 290.089844 146.578125 C 290.578125 147.871094 291.171875 149.117188 291.855469 150.277344 C 292.054688 150.621094 292.03125 151.042969 291.792969 151.359375 L 288.277344 156.085938 L 291.242188 159.539062 L 296.453125 156.773438 C 296.800781 156.589844 297.226562 156.632812 297.53125 156.882812 C 298.589844 157.742188 299.726562 158.519531 300.914062 159.195312 C 301.253906 159.390625 301.449219 159.773438 301.402344 160.164062 L 300.71875 166.023438 L 305.011719 167.53125 L 308.140625 162.539062 C 308.351562 162.203125 308.738281 162.027344 309.128906 162.09375 C 310.449219 162.304688 311.828125 162.417969 313.214844 162.398438 C 313.21875 162.398438 313.21875 162.398438 313.222656 162.398438 Z M 315.871094 170.5 C 315.484375 170.5 315.128906 170.269531 314.96875 169.90625 L 312.574219 164.359375 C 311.523438 164.34375 310.480469 164.265625 309.460938 164.125 L 306.257812 169.238281 C 306.011719 169.628906 305.53125 169.796875 305.101562 169.640625 L 299.328125 167.613281 C 298.894531 167.464844 298.625 167.027344 298.679688 166.574219 L 299.378906 160.574219 C 298.488281 160.035156 297.628906 159.449219 296.804688 158.8125 L 291.464844 161.640625 C 291.0625 161.855469 290.558594 161.761719 290.261719 161.410156 L 286.277344 156.769531 C 285.980469 156.421875 285.960938 155.910156 286.234375 155.542969 L 289.835938 150.703125 C 289.339844 149.800781 288.886719 148.855469 288.492188 147.882812 L 282.453125 147.664062 C 281.996094 147.652344 281.609375 147.316406 281.527344 146.863281 L 280.398438 140.847656 C 280.3125 140.398438 280.550781 139.953125 280.972656 139.765625 L 286.519531 137.375 C 286.535156 136.324219 286.613281 135.28125 286.75 134.261719 L 281.640625 131.054688 C 281.25 130.8125 281.082031 130.332031 281.234375 129.898438 L 283.265625 124.125 C 283.417969 123.691406 283.84375 123.425781 284.304688 123.476562 L 290.308594 124.179688 C 290.84375 123.289062 291.433594 122.429688 292.066406 121.601562 L 289.238281 116.265625 C 289.023438 115.855469 289.117188 115.359375 289.464844 115.0625 L 294.109375 111.074219 C 294.457031 110.777344 294.96875 110.757812 295.335938 111.035156 L 300.175781 114.636719 C 301.078125 114.136719 302.023438 113.683594 302.996094 113.292969 L 303.214844 107.253906 C 303.230469 106.792969 303.5625 106.410156 304.015625 106.324219 L 310.027344 105.195312 C 310.480469 105.113281 310.929688 105.351562 311.113281 105.769531 L 313.503906 111.320312 C 314.554688 111.335938 315.597656 111.414062 316.617188 111.550781 L 319.824219 106.441406 C 320.066406 106.050781 320.546875 105.882812 320.980469 106.035156 L 326.753906 108.066406 C 327.183594 108.214844 327.457031 108.648438 327.402344 109.101562 L 326.703125 115.105469 C 327.589844 115.640625 328.453125 116.230469 329.273438 116.867188 L 334.613281 114.035156 C 335.019531 113.820312 335.519531 113.914062 335.820312 114.265625 L 339.804688 118.910156 C 340.101562 119.257812 340.121094 119.765625 339.847656 120.136719 L 336.242188 124.976562 C 336.742188 125.875 337.191406 126.820312 337.589844 127.792969 L 343.625 128.015625 C 344.085938 128.03125 344.46875 128.363281 344.554688 128.8125 L 345.683594 134.828125 C 345.765625 135.277344 345.527344 135.726562 345.105469 135.910156 L 339.5625 138.300781 C 339.542969 139.355469 339.464844 140.398438 339.328125 141.417969 L 344.441406 144.621094 C 344.828125 144.867188 344.996094 145.347656 344.84375 145.777344 L 342.816406 151.550781 C 342.664062 151.988281 342.234375 152.253906 341.777344 152.203125 L 335.773438 151.5 C 335.238281 152.390625 334.648438 153.253906 334.011719 154.070312 L 336.84375 159.414062 C 337.058594 159.816406 336.960938 160.320312 336.613281 160.617188 L 331.96875 164.601562 C 331.621094 164.902344 331.113281 164.917969 330.742188 164.644531 L 325.90625 161.042969 C 325.003906 161.539062 324.058594 161.992188 323.085938 162.386719 L 322.867188 168.425781 C 322.851562 168.882812 322.515625 169.265625 322.066406 169.355469 L 316.050781 170.480469 C 315.992188 170.492188 315.929688 170.5 315.871094 170.5 " fill-opacity="1" fill-rule="nonzero"/><path fill="#3fbf7f" d="M 402.257812 116.316406 C 387.625 119.0625 373.535156 109.425781 370.792969 94.796875 C 368.046875 80.160156 377.683594 66.074219 392.3125 63.332031 C 406.945312 60.585938 421.035156 70.21875 423.78125 84.851562 C 426.523438 99.484375 416.890625 113.570312 402.257812 116.316406 Z M 451.492188 84.976562 L 449.5625 74.6875 L 438.132812 74.273438 C 437.257812 71.96875 436.207031 69.765625 434.988281 67.6875 L 441.808594 58.523438 L 434.988281 50.578125 L 424.882812 55.929688 C 422.992188 54.394531 420.980469 53.019531 418.867188 51.816406 L 420.195312 40.457031 L 410.316406 36.984375 L 404.246094 46.660156 C 401.867188 46.277344 399.433594 46.097656 396.972656 46.117188 L 392.441406 35.617188 L 382.148438 37.546875 L 381.734375 48.976562 C 379.429688 49.847656 377.230469 50.898438 375.152344 52.121094 L 365.988281 45.300781 L 358.039062 52.117188 L 363.394531 62.226562 C 361.859375 64.117188 360.484375 66.128906 359.28125 68.242188 L 347.917969 66.914062 L 344.445312 76.792969 L 354.125 82.859375 C 353.738281 85.238281 353.558594 87.671875 353.582031 90.132812 L 343.078125 94.667969 L 345.011719 104.960938 L 356.4375 105.375 C 357.3125 107.679688 358.363281 109.878906 359.582031 111.957031 L 352.761719 121.121094 L 359.582031 129.070312 L 369.691406 123.714844 C 371.578125 125.25 373.589844 126.621094 375.703125 127.824219 L 374.375 139.191406 L 384.253906 142.664062 L 390.324219 132.984375 C 392.703125 133.371094 395.136719 133.550781 397.597656 133.53125 L 402.128906 144.03125 L 412.421875 142.097656 L 412.835938 130.671875 C 415.140625 129.796875 417.339844 128.746094 419.421875 127.523438 L 428.585938 134.347656 L 436.53125 127.523438 L 431.175781 117.417969 C 432.710938 115.53125 434.085938 113.519531 435.289062 111.40625 L 446.652344 112.730469 L 450.125 102.855469 L 440.449219 96.785156 C 440.832031 94.402344 441.011719 91.976562 440.992188 89.507812 L 451.492188 84.976562 " fill-opacity="1" fill-rule="nonzero"/><path fill="#ffffff" d="M 393.042969 60.9375 C 391.460938 60.9375 389.855469 61.082031 388.242188 61.386719 C 381.421875 62.664062 375.511719 66.523438 371.59375 72.25 C 367.675781 77.976562 366.226562 84.882812 367.503906 91.703125 C 368.785156 98.523438 372.640625 104.4375 378.367188 108.351562 C 384.097656 112.269531 391.007812 113.726562 397.824219 112.445312 C 404.640625 111.167969 410.554688 107.304688 414.472656 101.578125 C 418.386719 95.855469 419.839844 88.945312 418.5625 82.125 C 416.222656 69.660156 405.292969 60.9375 393.042969 60.9375 Z M 392.976562 114.863281 C 387.402344 114.863281 381.960938 113.191406 377.261719 109.976562 C 371.101562 105.761719 366.949219 99.402344 365.574219 92.066406 C 364.199219 84.730469 365.761719 77.300781 369.972656 71.140625 C 374.1875 64.980469 380.546875 60.835938 387.882812 59.453125 C 395.210938 58.082031 402.648438 59.644531 408.808594 63.855469 C 414.964844 68.066406 419.113281 74.429688 420.492188 81.761719 C 421.867188 89.097656 420.304688 96.527344 416.09375 102.6875 C 411.878906 108.847656 405.519531 112.996094 398.183594 114.375 L 398.003906 113.410156 L 398.183594 114.375 C 396.449219 114.699219 394.703125 114.863281 392.976562 114.863281 Z M 393.347656 129.636719 C 393.738281 129.636719 394.089844 129.871094 394.246094 130.230469 L 398.464844 140.011719 L 407.21875 138.371094 L 407.605469 127.726562 C 407.617188 127.332031 407.867188 126.984375 408.238281 126.84375 C 410.488281 125.988281 412.652344 124.957031 414.671875 123.769531 C 415.011719 123.570312 415.4375 123.589844 415.753906 123.828125 L 424.289062 130.179688 L 431.042969 124.386719 L 426.054688 114.972656 C 425.871094 114.621094 425.914062 114.199219 426.160156 113.890625 C 427.65625 112.050781 429.011719 110.074219 430.183594 108.007812 C 430.378906 107.667969 430.757812 107.476562 431.152344 107.523438 L 441.734375 108.757812 L 444.6875 100.359375 L 435.675781 94.707031 C 435.339844 94.5 435.164062 94.109375 435.226562 93.71875 C 435.597656 91.414062 435.777344 89.019531 435.757812 86.609375 C 435.753906 86.21875 435.988281 85.859375 436.347656 85.703125 L 446.128906 81.480469 L 444.488281 72.734375 L 433.84375 72.34375 C 433.449219 72.328125 433.101562 72.082031 432.960938 71.710938 C 432.105469 69.460938 431.074219 67.292969 429.890625 65.277344 C 429.6875 64.9375 429.710938 64.511719 429.949219 64.195312 L 436.300781 55.660156 L 430.503906 48.90625 L 421.089844 53.890625 C 420.738281 54.078125 420.316406 54.035156 420.007812 53.785156 C 418.171875 52.292969 416.191406 50.9375 414.128906 49.765625 C 413.785156 49.570312 413.59375 49.1875 413.640625 48.796875 L 414.875 38.214844 L 406.476562 35.261719 L 400.828125 44.273438 C 400.617188 44.609375 400.226562 44.792969 399.839844 44.722656 C 397.527344 44.347656 395.128906 44.164062 392.730469 44.191406 C 392.726562 44.191406 392.722656 44.191406 392.71875 44.191406 C 392.328125 44.191406 391.972656 43.957031 391.820312 43.597656 L 387.597656 33.816406 L 378.847656 35.460938 L 378.460938 46.105469 C 378.449219 46.5 378.199219 46.847656 377.828125 46.984375 C 375.582031 47.839844 373.417969 48.871094 371.394531 50.058594 C 371.054688 50.261719 370.628906 50.234375 370.3125 50 L 361.777344 43.648438 L 355.023438 49.445312 L 360.011719 58.859375 C 360.195312 59.207031 360.152344 59.632812 359.90625 59.9375 C 358.40625 61.78125 357.050781 63.761719 355.882812 65.816406 C 355.6875 66.160156 355.308594 66.359375 354.914062 66.308594 L 344.332031 65.070312 L 341.378906 73.472656 L 350.394531 79.121094 C 350.726562 79.328125 350.902344 79.71875 350.839844 80.109375 C 350.46875 82.417969 350.289062 84.808594 350.308594 87.21875 C 350.3125 87.617188 350.078125 87.972656 349.714844 88.132812 L 339.9375 92.347656 L 341.578125 101.097656 L 352.222656 101.484375 C 352.617188 101.5 352.964844 101.75 353.105469 102.117188 C 353.957031 104.371094 354.992188 106.535156 356.175781 108.550781 C 356.378906 108.894531 356.355469 109.320312 356.117188 109.636719 L 349.765625 118.171875 L 355.5625 124.925781 L 364.976562 119.9375 C 365.324219 119.75 365.75 119.792969 366.054688 120.042969 C 367.894531 121.539062 369.875 122.894531 371.9375 124.066406 C 372.277344 124.261719 372.472656 124.640625 372.425781 125.035156 L 371.191406 135.617188 L 379.589844 138.570312 L 385.238281 129.554688 C 385.449219 129.222656 385.835938 129.039062 386.226562 129.109375 C 388.535156 129.480469 390.933594 129.664062 393.335938 129.636719 C 393.339844 129.636719 393.34375 129.636719 393.347656 129.636719 Z M 397.875 142.101562 C 397.492188 142.101562 397.132812 141.875 396.976562 141.511719 L 392.699219 131.601562 C 390.625 131.589844 388.566406 131.4375 386.558594 131.144531 L 380.835938 140.277344 C 380.589844 140.664062 380.109375 140.832031 379.675781 140.679688 L 369.796875 137.210938 C 369.367188 137.054688 369.097656 136.625 369.148438 136.167969 L 370.402344 125.449219 C 368.636719 124.40625 366.933594 123.242188 365.328125 121.976562 L 355.789062 127.027344 C 355.382812 127.242188 354.882812 127.148438 354.585938 126.800781 L 347.765625 118.851562 C 347.46875 118.507812 347.449219 117.996094 347.722656 117.628906 L 354.160156 108.980469 C 353.160156 107.214844 352.269531 105.351562 351.503906 103.421875 L 340.722656 103.035156 C 340.261719 103.015625 339.878906 102.683594 339.792969 102.230469 L 337.859375 91.941406 C 337.777344 91.488281 338.015625 91.039062 338.4375 90.859375 L 348.34375 86.582031 C 348.355469 84.507812 348.511719 82.445312 348.804688 80.441406 L 339.671875 74.71875 C 339.28125 74.472656 339.113281 73.992188 339.265625 73.558594 L 342.738281 63.679688 C 342.894531 63.246094 343.324219 62.976562 343.78125 63.03125 L 354.503906 64.285156 C 355.539062 62.519531 356.703125 60.816406 357.972656 59.207031 L 352.921875 49.671875 C 352.707031 49.265625 352.800781 48.765625 353.148438 48.46875 L 361.09375 41.648438 C 361.445312 41.347656 361.953125 41.332031 362.320312 41.605469 L 370.964844 48.039062 C 372.734375 47.039062 374.597656 46.148438 376.523438 45.386719 L 376.914062 34.601562 C 376.933594 34.148438 377.265625 33.757812 377.714844 33.675781 L 388.007812 31.742188 C 388.457031 31.664062 388.910156 31.898438 389.089844 32.320312 L 393.367188 42.230469 C 395.4375 42.242188 397.496094 42.394531 399.507812 42.683594 L 405.230469 33.554688 C 405.476562 33.164062 405.957031 32.996094 406.386719 33.148438 L 416.265625 36.625 C 416.699219 36.773438 416.96875 37.207031 416.917969 37.660156 L 415.664062 48.386719 C 417.429688 49.421875 419.132812 50.585938 420.738281 51.855469 L 430.277344 46.800781 C 430.683594 46.585938 431.183594 46.683594 431.484375 47.027344 L 438.300781 54.976562 C 438.601562 55.328125 438.617188 55.835938 438.34375 56.203125 L 431.90625 64.847656 C 432.90625 66.613281 433.796875 68.476562 434.5625 70.40625 L 445.34375 70.796875 C 445.800781 70.816406 446.1875 71.148438 446.273438 71.597656 L 448.207031 81.890625 C 448.289062 82.339844 448.050781 82.789062 447.628906 82.972656 L 437.71875 87.246094 C 437.707031 89.320312 437.554688 91.382812 437.261719 93.390625 L 446.394531 99.113281 C 446.785156 99.359375 446.953125 99.835938 446.796875 100.269531 L 443.324219 110.148438 C 443.175781 110.582031 442.742188 110.855469 442.285156 110.800781 L 431.5625 109.546875 C 430.527344 111.3125 429.359375 113.015625 428.09375 114.621094 L 433.144531 124.160156 C 433.359375 124.5625 433.265625 125.066406 432.917969 125.363281 L 424.96875 132.183594 C 424.621094 132.480469 424.113281 132.5 423.746094 132.222656 L 415.101562 125.789062 C 413.335938 126.789062 411.46875 127.679688 409.542969 128.441406 L 409.148438 139.226562 C 409.132812 139.683594 408.800781 140.070312 408.351562 140.15625 L 398.058594 142.085938 C 397.996094 142.097656 397.9375 142.101562 397.875 142.101562 " fill-opacity="1" fill-rule="nonzero"/><path fill="#ffffff" d="M 356.097656 317.4375 C 355.699219 318.503906 355.136719 319.496094 354.351562 320.367188 C 352.347656 322.601562 349.316406 323.554688 346.4375 324.417969 C 344.0625 325.128906 341.648438 325.839844 339.171875 325.863281 C 334.261719 325.902344 329.683594 323.226562 324.785156 322.988281 C 321.464844 322.828125 318.210938 323.796875 314.9375 324.355469 C 308.753906 325.40625 303.804688 322.910156 299.210938 318.863281 C 291.070312 311.691406 291.5 291.542969 299.382812 278.773438 C 307.707031 265.277344 320.671875 265.988281 322.46875 254.414062 C 323.5 247.757812 319.113281 244.980469 321.332031 237.886719 C 322.492188 234.171875 325.839844 230.980469 332.539062 224.589844 C 341.726562 215.832031 345.570312 214.503906 346.902344 214.085938 C 349.160156 213.378906 353.734375 212.019531 358.585938 214.007812 C 360.042969 214.605469 363.625 216.074219 364.925781 219.652344 C 366.292969 223.40625 364.296875 227.144531 363.214844 229.175781 C 360.785156 233.726562 357.695312 234.953125 355.957031 237.089844 C 348.15625 246.660156 362.851562 260.203125 359.359375 281.824219 C 358.609375 286.460938 356.75 290.667969 355.546875 295.171875 C 353.984375 301.019531 356.414062 302.535156 356.808594 307.789062 C 357.046875 311.007812 357.195312 314.507812 356.097656 317.4375 " fill-opacity="1" fill-rule="nonzero"/><path fill="#3fbf7f" d="M 399.886719 524.300781 L 396.242188 532.257812 C 396.410156 532.933594 396.777344 533.597656 397.507812 534.433594 C 401.378906 538.847656 411.855469 535.328125 414.359375 534.488281 C 423.566406 531.394531 424.730469 527.578125 433.019531 524.65625 C 438.710938 522.648438 443.832031 522.449219 447.144531 522.566406 C 446.753906 521.753906 446.070312 520.480469 444.808594 519.347656 C 443.019531 517.738281 439.988281 516.125 435.015625 516.109375 C 425.066406 516.085938 399.886719 524.300781 399.886719 524.300781 " fill-opacity="1" fill-rule="nonzero"/><path fill="#12262f" d="M 431.378906 561.433594 C 431.378906 561.433594 448.277344 567.929688 448.261719 556.851562 C 448.261719 556.492188 434.375 511.671875 434.375 511.671875 L 414.476562 522.433594 L 431.378906 561.433594 " fill-opacity="1" fill-rule="nonzero"/><path fill="#ffffff" d="M 432.109375 560.65625 C 433.917969 561.285156 441.691406 563.773438 445.371094 561.242188 C 446.636719 560.371094 447.261719 558.972656 447.28125 556.964844 C 446.738281 554.957031 437.714844 525.777344 433.789062 513.105469 L 415.734375 522.867188 Z M 440.8125 564.300781 C 436.179688 564.300781 431.316406 562.460938 431.027344 562.347656 C 430.777344 562.253906 430.582031 562.066406 430.476562 561.824219 L 413.574219 522.824219 C 413.375 522.359375 413.5625 521.8125 414.007812 521.570312 L 433.90625 510.808594 C 434.164062 510.667969 434.472656 510.652344 434.746094 510.761719 C 435.015625 510.875 435.226562 511.097656 435.3125 511.378906 C 449.246094 556.34375 449.246094 556.660156 449.246094 556.851562 C 449.25 559.574219 448.320312 561.597656 446.480469 562.859375 C 444.929688 563.929688 442.894531 564.300781 440.8125 564.300781 " fill-opacity="1" fill-rule="nonzero"/><path fill="#3fbf7f" d="M 429.292969 573.027344 L 471.171875 573.027344 C 472.304688 573.027344 473.175781 572.035156 473.027344 570.917969 L 472.71875 568.53125 C 471.929688 566.421875 470.398438 564.667969 468.410156 563.601562 L 445.695312 551.414062 C 445.695312 551.414062 438.367188 552.964844 439 560.648438 C 439 560.648438 434.066406 555.914062 429.519531 559.226562 C 429.519531 559.226562 427.746094 565.132812 427.890625 571.664062 C 427.910156 572.421875 428.535156 573.027344 429.292969 573.027344 " fill-opacity="1" fill-rule="nonzero"/><path fill="#ffffff" d="M 459.460938 565.417969 C 459.410156 565.417969 459.359375 565.417969 459.308594 565.40625 C 448.199219 563.664062 441.609375 557.828125 441.332031 557.582031 C 440.929688 557.21875 440.894531 556.597656 441.257812 556.195312 C 441.621094 555.792969 442.238281 555.757812 442.644531 556.121094 C 442.707031 556.179688 449.109375 561.816406 459.613281 563.46875 C 460.148438 563.554688 460.511719 564.054688 460.429688 564.589844 C 460.351562 565.074219 459.933594 565.417969 459.460938 565.417969 " fill-opacity="1" fill-rule="nonzero"/><path fill="#ffffff" d="M 471.496094 571.300781 L 429.371094 571.300781 C 428.828125 571.300781 428.390625 570.855469 428.390625 570.316406 C 428.390625 569.773438 428.828125 569.335938 429.371094 569.335938 L 471.496094 569.335938 C 472.035156 569.335938 472.476562 569.773438 472.476562 570.316406 C 472.476562 570.855469 472.035156 571.300781 471.496094 571.300781 " fill-opacity="1" fill-rule="nonzero"/><path fill="#3fbf7f" d="M 342.054688 536.121094 C 338.351562 535.300781 331.257812 533.730469 329.6875 528.882812 C 328.5 525.210938 331.042969 521.386719 331.625 520.519531 C 338.777344 509.773438 362.480469 506.734375 375.898438 517.257812 C 382.976562 522.808594 387.773438 532.585938 385.269531 535.707031 C 383.746094 537.601562 380.535156 535.789062 372.691406 535.097656 C 358.042969 533.8125 354.300781 538.828125 342.054688 536.121094 " fill-opacity="1" fill-rule="nonzero"/><path fill="#12262f" d="M 344.105469 516.109375 C 343.515625 516.488281 351.167969 563.132812 351.167969 563.132812 L 366.453125 564.996094 L 365.78125 520.054688 L 344.105469 516.109375 " fill-opacity="1" fill-rule="nonzero"/><path fill="#ffffff" d="M 352.019531 562.246094 L 365.457031 563.886719 L 364.8125 520.875 L 345.117188 517.292969 C 345.644531 522.597656 349.359375 546.015625 352.019531 562.246094 Z M 366.453125 565.976562 C 366.414062 565.976562 366.375 565.972656 366.335938 565.96875 L 351.050781 564.109375 C 350.617188 564.054688 350.269531 563.722656 350.199219 563.289062 C 350.179688 563.175781 348.265625 551.492188 346.445312 539.914062 C 342.667969 515.863281 342.824219 515.761719 343.578125 515.28125 C 343.789062 515.152344 344.039062 515.101562 344.28125 515.144531 L 365.957031 519.085938 C 366.417969 519.171875 366.757812 519.570312 366.761719 520.042969 L 367.4375 564.980469 C 367.441406 565.265625 367.320312 565.535156 367.109375 565.726562 C 366.929688 565.886719 366.695312 565.976562 366.453125 565.976562 " fill-opacity="1" fill-rule="nonzero"/><path fill="#3fbf7f" d="M 391.222656 573.027344 L 349.15625 573.027344 C 349.15625 573.027344 347.605469 562.589844 350.027344 557.945312 L 351.339844 559.414062 C 352.015625 560.175781 353.183594 560.238281 353.945312 559.554688 C 355.617188 558.050781 358.554688 555.601562 361.089844 554.445312 C 366.011719 552.203125 382.5 563.335938 388.816406 567.117188 C 390.3125 568.015625 391.222656 569.625 391.222656 571.367188 L 391.222656 573.027344 " fill-opacity="1" fill-rule="nonzero"/><path fill="#ffffff" d="M 389.261719 570.730469 L 350.042969 570.730469 C 349.503906 570.730469 349.0625 570.292969 349.0625 569.746094 C 349.0625 569.203125 349.503906 568.765625 350.042969 568.765625 L 389.261719 568.765625 C 389.800781 568.765625 390.242188 569.203125 390.242188 569.746094 C 390.242188 570.292969 389.800781 570.730469 389.261719 570.730469 " fill-opacity="1" fill-rule="nonzero"/><path fill="#ffffff" d="M 371.601562 565.699219 C 371.453125 565.699219 371.304688 565.667969 371.160156 565.597656 L 359.03125 559.476562 C 358.546875 559.234375 358.351562 558.640625 358.597656 558.15625 C 358.84375 557.675781 359.433594 557.480469 359.917969 557.722656 L 372.046875 563.84375 C 372.53125 564.089844 372.722656 564.679688 372.480469 565.160156 C 372.308594 565.503906 371.960938 565.699219 371.601562 565.699219 " fill-opacity="1" fill-rule="nonzero"/><path fill="#ffffff" d="M 447.144531 522.566406 C 439.058594 496.914062 430.894531 471.28125 422.652344 445.664062 C 411.546875 411.144531 400.304688 376.667969 388.929688 342.246094 C 371.261719 344.316406 331.804688 330.910156 335.925781 348.460938 C 337.96875 357.160156 337.777344 359.082031 337.558594 362.320312 C 335.851562 387.617188 333.203125 405.707031 333.285156 412.03125 C 333.363281 417.640625 333.578125 434.492188 333.203125 457.539062 C 333.140625 461.300781 333.035156 465.3125 332.863281 470.148438 C 332 494.496094 330.371094 500.433594 330.238281 520.265625 C 330.21875 523.050781 330.234375 525.753906 330.265625 528.378906 C 339.257812 526.617188 349.53125 526.125 360.421875 528.585938 C 369.035156 530.53125 370.007812 532.507812 377.765625 533.554688 C 380.3125 533.898438 382.699219 534.019531 384.960938 533.96875 C 381.003906 481.261719 379.691406 453.816406 379.261719 440.601562 C 379.238281 439.816406 380.390625 439.71875 380.496094 440.496094 C 382.644531 456.027344 385.195312 472.089844 388.210938 488.625 C 390.941406 503.589844 393.898438 518.039062 397.015625 531.996094 C 406.195312 529.285156 414.242188 524.535156 425.199219 522.511719 C 430.921875 521.457031 438.230469 521.007812 447.144531 522.566406 " fill-opacity="1" fill-rule="nonzero"/><path fill="#238354" d="M 379.070312 429.355469 C 378.539062 429.355469 378.105469 428.933594 378.089844 428.402344 L 376.960938 386.835938 C 376.949219 386.503906 377.109375 386.191406 377.382812 386 L 382.800781 382.273438 C 383.246094 381.964844 383.855469 382.078125 384.164062 382.523438 C 384.472656 382.96875 384.359375 383.582031 383.914062 383.890625 L 378.9375 387.316406 L 380.050781 428.347656 C 380.066406 428.890625 379.640625 429.339844 379.097656 429.355469 C 379.089844 429.355469 379.078125 429.355469 379.070312 429.355469 " fill-opacity="1" fill-rule="nonzero"/><path fill="#3fbf7f" d="M 333.320312 305.191406 C 326.078125 297.039062 318.835938 288.890625 311.589844 280.746094 C 308.199219 291.457031 298.332031 317.574219 302.683594 348.621094 C 306.015625 372.371094 331.691406 387.378906 338.628906 395.097656 C 340.339844 393.175781 341.765625 390.949219 342.953125 388.570312 C 340.925781 384.925781 337.890625 379.472656 334.179688 372.835938 C 327.078125 360.136719 325.667969 357.71875 325.070312 356.574219 C 320.960938 348.757812 319.808594 334.308594 333.320312 305.191406 " fill-opacity="1" fill-rule="nonzero"/><path fill="#3fbf7f" d="M 333.167969 356.878906 C 338.199219 360.347656 341.867188 356.820312 363.191406 353.210938 C 380.65625 350.25 388.007812 350.957031 393.183594 344.503906 C 396.035156 340.949219 396.910156 336.863281 397.199219 333.9375 C 395.328125 325.0625 393.488281 316.089844 391.6875 307.023438 C 389.207031 294.546875 386.859375 282.210938 384.640625 270.015625 C 372.230469 268.9375 361.671875 269.433594 353.671875 270.269531 C 343.238281 271.359375 335.339844 273.21875 332.109375 274.027344 C 324.210938 276.003906 317.429688 278.398438 311.589844 280.746094 C 317.523438 289.339844 323.453125 297.9375 329.382812 306.539062 C 327.503906 312.523438 325.261719 322.136719 326.023438 333.945312 C 326.664062 343.976562 327.230469 352.789062 333.167969 356.878906 " fill-opacity="1" fill-rule="nonzero"/><path fill="#3fbf7f" d="M 428.503906 267.992188 C 427.664062 271.046875 426.101562 275.476562 423.074219 280.183594 C 420.269531 284.542969 414.296875 293.820312 407.058594 294.035156 C 399.59375 294.261719 394.136719 278.402344 384.640625 270.015625 C 383.414062 271.136719 376.355469 282.035156 378.382812 295.332031 C 380.730469 310.71875 398.738281 319.886719 411.160156 317.820312 C 426.648438 315.242188 440.65625 294.015625 435.570312 267.519531 L 428.503906 267.992188 " fill-opacity="1" fill-rule="nonzero"/><path fill="#12262f" d="M 427.40625 257.335938 L 431.175781 244.800781 C 431.4375 243.933594 432.285156 243.375 433.1875 243.476562 C 434.214844 243.59375 434.953125 244.511719 434.84375 245.539062 L 434.304688 250.675781 L 439.300781 254.683594 C 440.839844 255.914062 441.445312 257.976562 440.816406 259.847656 L 439.152344 264.785156 C 438.320312 267.257812 436.050781 268.964844 433.441406 269.089844 L 431.6875 269.171875 C 428.984375 269.304688 426.496094 267.707031 425.492188 265.195312 L 424.308594 262.234375 C 423.566406 260.378906 424.542969 258.285156 426.441406 257.65625 L 427.40625 257.335938 " fill-opacity="1" fill-rule="nonzero"/><path fill="#ffffff" d="M 427.40625 257.335938 L 427.414062 257.335938 Z M 432.976562 244.445312 C 432.582031 244.445312 432.230469 244.703125 432.117188 245.085938 L 428.347656 257.617188 C 428.253906 257.925781 428.019531 258.167969 427.714844 258.269531 L 426.75 258.585938 C 426.089844 258.808594 425.566406 259.273438 425.273438 259.902344 C 424.984375 260.527344 424.964844 261.230469 425.21875 261.871094 L 426.402344 264.832031 C 427.25 266.953125 429.359375 268.296875 431.640625 268.195312 L 433.394531 268.109375 C 435.617188 268.003906 437.511719 266.574219 438.21875 264.46875 L 439.886719 259.53125 C 440.378906 258.0625 439.898438 256.421875 438.6875 255.449219 L 433.691406 251.445312 C 433.429688 251.234375 433.292969 250.90625 433.328125 250.578125 L 433.867188 245.433594 C 433.921875 244.949219 433.566406 244.507812 433.078125 244.453125 C 433.042969 244.449219 433.007812 244.445312 432.976562 244.445312 Z M 431.382812 270.160156 C 428.398438 270.160156 425.695312 268.347656 424.582031 265.558594 L 423.398438 262.601562 C 422.9375 261.449219 422.972656 260.195312 423.496094 259.074219 C 424.011719 257.964844 424.972656 257.109375 426.132812 256.722656 L 426.613281 256.566406 L 430.234375 244.519531 C 430.632812 243.195312 431.925781 242.339844 433.300781 242.503906 C 434.855469 242.675781 435.984375 244.085938 435.820312 245.640625 L 435.335938 250.246094 L 439.917969 253.917969 C 441.769531 255.402344 442.503906 257.910156 441.746094 260.15625 L 440.082031 265.097656 C 439.113281 267.972656 436.523438 269.925781 433.488281 270.070312 L 431.734375 270.15625 C 431.617188 270.160156 431.5 270.160156 431.382812 270.160156 " fill-opacity="1" fill-rule="nonzero"/><path fill="#12262f" d="M 427.40625 257.335938 L 431.746094 257.886719 C 431.746094 257.886719 432.390625 261.417969 429.65625 261.351562 L 427.40625 257.335938 " fill-opacity="1" fill-rule="nonzero"/><path fill="#ffffff" d="M 429.730469 262.335938 C 429.699219 262.335938 429.664062 262.332031 429.628906 262.332031 C 429.089844 262.316406 428.660156 261.867188 428.671875 261.328125 C 428.6875 260.78125 429.125 260.347656 429.679688 260.367188 C 430.191406 260.378906 430.378906 260.21875 430.488281 260.09375 C 430.746094 259.792969 430.828125 259.238281 430.832031 258.761719 L 427.28125 258.308594 C 426.742188 258.242188 426.363281 257.75 426.433594 257.210938 C 426.5 256.675781 426.992188 256.296875 427.53125 256.359375 L 431.871094 256.914062 C 432.296875 256.96875 432.636719 257.289062 432.714844 257.710938 C 432.757812 257.949219 433.101562 260.058594 431.976562 261.371094 C 431.601562 261.816406 430.90625 262.332031 429.730469 262.335938 " fill-opacity="1" fill-rule="nonzero"/><path fill="#12262f" d="M 435.640625 251.757812 L 434.582031 257.976562 L 435.640625 251.757812 " fill-opacity="1" fill-rule="nonzero"/><path fill="#ffffff" d="M 434.582031 258.957031 C 434.527344 258.957031 434.472656 258.953125 434.417969 258.945312 C 433.882812 258.851562 433.523438 258.34375 433.613281 257.8125 L 434.675781 251.59375 C 434.765625 251.058594 435.273438 250.699219 435.808594 250.792969 C 436.339844 250.882812 436.699219 251.390625 436.609375 251.921875 L 435.550781 258.140625 C 435.46875 258.617188 435.050781 258.957031 434.582031 258.957031 " fill-opacity="1" fill-rule="nonzero"/><path fill="#12262f" d="M 438.582031 254.53125 L 437.6875 259.46875 L 438.582031 254.53125 " fill-opacity="1" fill-rule="nonzero"/><path fill="#ffffff" d="M 437.691406 260.449219 C 437.632812 260.449219 437.574219 260.445312 437.515625 260.4375 C 436.980469 260.335938 436.628906 259.828125 436.722656 259.296875 L 437.617188 254.355469 C 437.710938 253.820312 438.226562 253.464844 438.757812 253.566406 C 439.289062 253.660156 439.644531 254.171875 439.546875 254.703125 L 438.652344 259.640625 C 438.570312 260.117188 438.15625 260.449219 437.691406 260.449219 " fill-opacity="1" fill-rule="nonzero"/><path fill="#ffffff" d="M 392.90625 310.601562 C 392.457031 310.601562 392.054688 310.292969 391.949219 309.835938 L 387 288.058594 C 386.878906 287.53125 387.210938 287.003906 387.738281 286.882812 C 388.269531 286.765625 388.792969 287.097656 388.914062 287.625 L 393.863281 309.402344 C 393.984375 309.929688 393.652344 310.457031 393.125 310.578125 C 393.050781 310.589844 392.976562 310.601562 392.90625 310.601562 " fill-opacity="1" fill-rule="nonzero"/><path fill="#238354" d="M 334.253906 399.230469 C 333.867188 399.230469 333.496094 399 333.34375 398.617188 C 333.140625 398.117188 333.382812 397.542969 333.882812 397.339844 C 348.371094 391.464844 346.234375 358.699219 346.210938 358.367188 C 346.171875 357.828125 346.582031 357.359375 347.121094 357.320312 C 347.660156 357.28125 348.132812 357.691406 348.171875 358.234375 C 348.269531 359.636719 350.425781 392.75 334.621094 399.15625 C 334.5 399.207031 334.375 399.230469 334.253906 399.230469 " fill-opacity="1" fill-rule="nonzero"/><path fill="#12262f" d="M 366.640625 269.382812 C 362.164062 268.652344 358.957031 264.675781 359.195312 260.15625 L 359.5625 253.132812 C 363.804688 252.804688 367.339844 250.785156 367.328125 249.445312 C 367.324219 248.789062 365.765625 242.410156 364.792969 239.773438 C 365.613281 239.105469 366.613281 237.261719 364.84375 236.136719 C 363.070312 235.007812 359.089844 227.832031 359.089844 227.832031 C 354.179688 222.132812 352.761719 230.164062 349.09375 230.835938 C 346.554688 231.300781 345.175781 232.839844 346.132812 236.15625 C 347.09375 239.46875 345.269531 237.808594 343.402344 236.863281 C 341.53125 235.917969 340.261719 236.652344 341.285156 239.667969 C 342.3125 242.675781 346.046875 244.492188 346.046875 244.492188 L 347.820312 247.960938 L 344.085938 265.027344 C 343.382812 268.253906 341.058594 270.890625 337.941406 272 L 332.800781 273.832031 L 359.828125 287.960938 L 372.882812 270.402344 L 366.640625 269.382812 " fill-opacity="1" fill-rule="nonzero"/><path fill="#ffffff" d="M 335.246094 274.003906 L 359.542969 286.703125 L 371.136719 271.113281 L 366.480469 270.351562 C 361.503906 269.539062 357.953125 265.132812 358.214844 260.105469 L 358.582031 253.085938 C 358.605469 252.589844 358.996094 252.191406 359.484375 252.15625 C 363.636719 251.832031 366.210938 249.996094 366.351562 249.417969 C 366.300781 248.789062 364.832031 242.71875 363.871094 240.113281 C 363.726562 239.722656 363.847656 239.277344 364.171875 239.011719 C 364.515625 238.730469 364.871094 238.148438 364.84375 237.695312 C 364.835938 237.519531 364.765625 237.25 364.316406 236.964844 C 362.472656 235.792969 359.074219 229.820312 358.28125 228.398438 C 357.34375 227.328125 356.535156 226.78125 355.875 226.78125 C 354.996094 226.78125 354.117188 227.800781 353.183594 228.882812 C 352.125 230.109375 350.925781 231.496094 349.269531 231.800781 C 348.203125 231.996094 347.480469 232.386719 347.121094 232.964844 C 346.71875 233.617188 346.703125 234.59375 347.078125 235.882812 C 347.414062 237.050781 347.621094 238.214844 346.835938 238.828125 C 346.003906 239.480469 344.984375 238.886719 343.902344 238.261719 C 343.597656 238.085938 343.277344 237.902344 342.957031 237.738281 C 342.332031 237.425781 342.007812 237.445312 341.949219 237.472656 C 341.960938 237.472656 341.722656 237.898438 342.214844 239.347656 C 343.09375 241.929688 346.441406 243.589844 346.476562 243.609375 C 346.667969 243.699219 346.824219 243.851562 346.921875 244.042969 L 348.695312 247.515625 C 348.796875 247.714844 348.828125 247.949219 348.777344 248.167969 L 345.046875 265.238281 C 344.261719 268.820312 341.730469 271.691406 338.269531 272.925781 Z M 359.828125 288.941406 C 359.675781 288.941406 359.519531 288.90625 359.375 288.832031 L 332.34375 274.699219 C 332 274.519531 331.792969 274.152344 331.820312 273.761719 C 331.847656 273.371094 332.101562 273.039062 332.472656 272.902344 L 337.613281 271.074219 C 340.429688 270.074219 342.488281 267.734375 343.125 264.820312 L 346.785156 248.09375 L 345.316406 245.210938 C 344.339844 244.679688 341.332031 242.84375 340.359375 239.984375 C 339.707031 238.074219 339.816406 236.726562 340.675781 235.980469 C 341.109375 235.601562 342.097656 235.105469 343.84375 235.988281 C 344.199219 236.164062 344.550781 236.367188 344.886719 236.5625 C 345.007812 236.632812 345.148438 236.714844 345.289062 236.792969 C 345.261719 236.6875 345.230469 236.5625 345.191406 236.429688 C 344.65625 234.585938 344.746094 233.074219 345.453125 231.929688 C 346.113281 230.859375 347.28125 230.167969 348.914062 229.867188 C 349.894531 229.691406 350.808594 228.625 351.699219 227.597656 C 352.875 226.230469 354.097656 224.816406 355.875 224.816406 C 355.875 224.816406 355.875 224.816406 355.878906 224.816406 C 357.164062 224.816406 358.457031 225.59375 359.835938 227.191406 C 359.878906 227.242188 359.917969 227.296875 359.949219 227.355469 C 361.550781 230.246094 364.292969 234.625 365.367188 235.308594 C 366.488281 236.019531 366.765625 236.9375 366.804688 237.582031 C 366.859375 238.503906 366.449219 239.390625 365.921875 240.027344 C 366.859375 242.824219 368.304688 248.59375 368.3125 249.4375 C 368.328125 251.566406 364.359375 253.503906 360.5 254.019531 L 360.175781 260.207031 C 359.964844 264.234375 362.8125 267.761719 366.800781 268.414062 L 373.042969 269.433594 C 373.382812 269.488281 373.667969 269.71875 373.792969 270.035156 C 373.921875 270.351562 373.875 270.710938 373.671875 270.988281 L 360.617188 288.546875 C 360.425781 288.804688 360.132812 288.941406 359.828125 288.941406 " fill-opacity="1" fill-rule="nonzero"/><path fill="#ffffff" d="M 358.035156 254.300781 C 354.707031 254.300781 352.640625 251.894531 351.953125 250.414062 C 351.722656 249.925781 351.9375 249.339844 352.425781 249.109375 C 352.917969 248.882812 353.5 249.09375 353.730469 249.582031 C 353.804688 249.734375 355.46875 253.101562 359.335938 252.179688 C 359.867188 252.054688 360.390625 252.378906 360.515625 252.90625 C 360.640625 253.433594 360.316406 253.964844 359.789062 254.089844 C 359.171875 254.238281 358.585938 254.300781 358.035156 254.300781 " fill-opacity="1" fill-rule="nonzero"/><path fill="#3fbf7f" d="M 700.03125 513.539062 C 700.03125 513.539062 678.976562 467.390625 691.054688 407.570312 C 691.054688 407.570312 723.683594 434.910156 711.917969 513.539062 L 700.03125 513.539062 " fill-opacity="1" fill-rule="nonzero"/><path fill="#238354" d="M 705.175781 509.707031 C 705.160156 509.707031 705.140625 509.707031 705.125 509.707031 C 704.582031 509.679688 704.167969 509.210938 704.199219 508.671875 C 705.808594 479.21875 692.511719 416.292969 692.378906 415.660156 C 692.265625 415.128906 692.605469 414.609375 693.136719 414.496094 C 693.667969 414.382812 694.1875 414.71875 694.300781 415.25 C 694.433594 415.886719 707.78125 479.066406 706.160156 508.78125 C 706.132812 509.300781 705.695312 509.707031 705.175781 509.707031 " fill-opacity="1" fill-rule="nonzero"/><path fill="#2e9b63" d="M 721.207031 438.511719 C 721.207031 438.511719 694.085938 487.519531 710.402344 508.726562 L 719.132812 508.726562 C 719.132812 508.726562 736.574219 470.417969 721.207031 438.511719 " fill-opacity="1" fill-rule="nonzero"/><path fill="#238354" d="M 714.480469 511.003906 C 713.953125 511.003906 713.515625 510.589844 713.5 510.0625 C 712.941406 495.746094 716.457031 466.425781 718.601562 450.21875 C 718.671875 449.683594 719.164062 449.300781 719.703125 449.375 C 720.242188 449.445312 720.617188 449.941406 720.546875 450.476562 C 718.410156 466.621094 714.910156 495.816406 715.460938 509.984375 C 715.480469 510.527344 715.058594 510.984375 714.515625 511.003906 C 714.5 511.003906 714.488281 511.003906 714.480469 511.003906 " fill-opacity="1" fill-rule="nonzero"/><path fill="#2e9b63" d="M 669.421875 456.78125 C 669.421875 456.78125 692.527344 464.667969 700.894531 511.339844 L 691.804688 511.339844 C 691.804688 511.339844 672.835938 485.707031 669.421875 456.78125 " fill-opacity="1" fill-rule="nonzero"/><path fill="#238354" d="M 695.929688 511.003906 C 695.457031 511.003906 695.039062 510.664062 694.960938 510.183594 C 691.535156 489.480469 676.703125 468.621094 676.550781 468.414062 C 676.234375 467.972656 676.339844 467.359375 676.78125 467.042969 C 677.222656 466.726562 677.832031 466.828125 678.148438 467.269531 C 678.300781 467.480469 693.398438 488.714844 696.898438 509.863281 C 696.988281 510.398438 696.625 510.902344 696.089844 510.992188 C 696.035156 511 695.984375 511.003906 695.929688 511.003906 " fill-opacity="1" fill-rule="nonzero"/><path fill="#3fbf7f" d="M 678.335938 507.632812 L 735.339844 507.632812 L 736.621094 534.601562 C 736.933594 541.210938 731.660156 546.742188 725.039062 546.742188 L 692.484375 546.742188 C 684.652344 546.742188 678.304688 540.390625 678.316406 532.558594 L 678.335938 507.632812 " fill-opacity="1" fill-rule="nonzero"/><path fill="#ffffff" d="M 679.316406 508.617188 L 679.292969 532.558594 C 679.289062 536.085938 680.660156 539.398438 683.148438 541.894531 C 685.644531 544.386719 688.957031 545.761719 692.480469 545.761719 L 725.039062 545.761719 C 727.96875 545.761719 730.695312 544.59375 732.714844 542.472656 C 734.738281 540.351562 735.777344 537.574219 735.636719 534.644531 L 734.402344 508.617188 Z M 725.039062 547.722656 L 692.480469 547.722656 C 688.429688 547.722656 684.625 546.144531 681.761719 543.28125 C 678.898438 540.414062 677.328125 536.609375 677.328125 532.558594 L 677.351562 507.632812 C 677.351562 507.09375 677.789062 506.65625 678.332031 506.65625 L 735.339844 506.65625 C 735.863281 506.65625 736.296875 507.066406 736.320312 507.585938 L 737.601562 534.554688 C 737.765625 538.023438 736.535156 541.316406 734.140625 543.824219 C 731.738281 546.339844 728.511719 547.722656 725.039062 547.722656 " fill-opacity="1" fill-rule="nonzero"/></svg>