<svg xmlns="http://www.w3.org/2000/svg" xmlns:xlink="http://www.w3.org/1999/xlink" width="1366" zoomAndPan="magnify" viewBox="0 0 1024.5 576" height="768" preserveAspectRatio="xMidYMid meet" version="1.0"><defs><clipPath id="08045844cc"><path d="M 246.753906 21.757812 L 777.496094 21.757812 L 777.496094 553.996094 L 246.753906 553.996094 Z M 246.753906 21.757812 " clip-rule="nonzero"/></clipPath></defs><g clip-path="url(#08045844cc)"><path fill="#2e9b63" d="M 573.824219 301.683594 L 767.785156 301.683594 C 772.875 301.683594 777.023438 305.847656 777.023438 310.933594 L 777.023438 334.695312 L 564.570312 334.695312 L 564.570312 310.933594 C 564.570312 305.847656 568.738281 301.683594 573.824219 301.683594 Z M 589.71875 323.585938 C 592.691406 323.585938 595.121094 321.167969 595.121094 318.195312 C 595.121094 315.21875 592.691406 312.792969 589.71875 312.792969 C 586.742188 312.792969 584.3125 315.21875 584.3125 318.195312 C 584.3125 321.167969 586.742188 323.585938 589.71875 323.585938 Z M 631.179688 323.585938 C 634.15625 323.585938 636.582031 321.167969 636.582031 318.195312 C 636.582031 315.21875 634.15625 312.792969 631.179688 312.792969 C 628.207031 312.792969 625.777344 315.21875 625.777344 318.195312 C 625.777344 321.167969 628.207031 323.585938 631.179688 323.585938 Z M 610.453125 323.585938 C 613.429688 323.585938 615.847656 321.167969 615.847656 318.195312 C 615.847656 315.21875 613.429688 312.792969 610.453125 312.792969 C 607.480469 312.792969 605.054688 315.21875 605.054688 318.195312 C 605.054688 321.167969 607.480469 323.585938 610.453125 323.585938 Z M 256.21875 301.683594 L 450.179688 301.683594 C 455.269531 301.683594 459.421875 305.847656 459.421875 310.933594 L 459.421875 334.695312 L 246.96875 334.695312 L 246.96875 310.933594 C 246.96875 305.847656 251.132812 301.683594 256.21875 301.683594 Z M 272.113281 323.585938 C 275.089844 323.585938 277.515625 321.167969 277.515625 318.195312 C 277.515625 315.21875 275.089844 312.792969 272.113281 312.792969 C 269.140625 312.792969 266.710938 315.21875 266.710938 318.195312 C 266.710938 321.167969 269.140625 323.585938 272.113281 323.585938 Z M 292.851562 323.585938 C 295.828125 323.585938 298.242188 321.167969 298.242188 318.195312 C 298.242188 315.21875 295.828125 312.792969 292.851562 312.792969 C 289.875 312.792969 287.449219 315.21875 287.449219 318.195312 C 287.449219 321.167969 289.875 323.585938 292.851562 323.585938 Z M 313.578125 323.585938 C 316.550781 323.585938 318.980469 321.167969 318.980469 318.195312 C 318.980469 315.21875 316.550781 312.792969 313.578125 312.792969 C 310.601562 312.792969 308.175781 315.21875 308.175781 318.195312 C 308.175781 321.167969 310.601562 323.585938 313.578125 323.585938 Z M 393.363281 470.851562 L 256.21875 470.851562 C 251.132812 470.851562 246.96875 466.683594 246.96875 461.609375 L 246.96875 352.363281 L 459.421875 352.363281 L 459.421875 367.421875 L 420.285156 367.421875 C 405.480469 367.421875 393.363281 379.539062 393.363281 394.339844 Z M 564.570312 367.421875 L 564.570312 352.363281 L 777.023438 352.363281 L 777.023438 461.609375 C 777.023438 466.683594 772.875 470.851562 767.785156 470.851562 L 641.152344 470.851562 L 641.152344 394.339844 C 641.152344 379.53125 629.054688 367.421875 614.246094 367.421875 Z M 623.484375 435.769531 L 623.484375 545.019531 C 623.484375 550.09375 619.332031 554.257812 614.246094 554.257812 L 420.285156 554.257812 C 415.195312 554.257812 411.03125 550.09375 411.03125 545.019531 L 411.03125 435.769531 Z M 420.285156 385.089844 L 614.246094 385.089844 C 619.332031 385.089844 623.484375 389.253906 623.484375 394.339844 L 623.484375 418.101562 L 411.03125 418.101562 L 411.03125 394.339844 C 411.03125 389.253906 415.195312 385.089844 420.285156 385.089844 Z M 477.640625 406.992188 C 480.617188 406.992188 483.042969 404.574219 483.042969 401.601562 C 483.042969 398.628906 480.617188 396.199219 477.640625 396.199219 C 474.664062 396.199219 472.238281 398.628906 472.238281 401.601562 C 472.238281 404.574219 474.664062 406.992188 477.640625 406.992188 Z M 436.175781 406.992188 C 439.152344 406.992188 441.578125 404.574219 441.578125 401.601562 C 441.578125 398.628906 439.152344 396.199219 436.175781 396.199219 C 433.203125 396.199219 430.773438 398.628906 430.773438 401.601562 C 430.773438 404.574219 433.203125 406.992188 436.175781 406.992188 Z M 456.914062 406.992188 C 459.890625 406.992188 462.304688 404.574219 462.304688 401.601562 C 462.304688 398.628906 459.890625 396.199219 456.914062 396.199219 C 453.941406 396.199219 451.511719 398.628906 451.511719 401.601562 C 451.511719 404.574219 453.941406 406.992188 456.914062 406.992188 Z M 601.796875 176.085938 L 601.796875 166.339844 C 601.796875 159.03125 597.296875 152.472656 590.472656 149.847656 L 586.542969 148.335938 C 585.875 146.535156 585.136719 144.757812 584.335938 143.007812 C 584.335938 143.007812 586.050781 139.136719 586.050781 139.136719 C 589.011719 132.460938 587.554688 124.652344 582.390625 119.488281 L 568.59375 105.691406 C 563.425781 100.519531 555.605469 99.070312 548.921875 102.039062 L 545.058594 103.757812 C 543.324219 102.964844 541.5625 102.234375 539.773438 101.570312 L 538.257812 97.617188 C 535.636719 90.792969 529.078125 86.285156 521.765625 86.285156 L 502.25 86.285156 C 494.945312 86.285156 488.394531 90.78125 485.765625 97.59375 L 484.234375 101.5625 C 482.441406 102.230469 480.675781 102.960938 478.933594 103.757812 C 478.933594 103.757812 475.070312 102.039062 475.070312 102.039062 C 468.390625 99.070312 460.570312 100.519531 455.398438 105.691406 L 441.601562 119.488281 C 436.433594 124.660156 434.980469 132.480469 437.953125 139.160156 L 439.667969 143.023438 C 438.871094 144.765625 438.136719 146.535156 437.46875 148.328125 C 437.46875 148.328125 433.519531 149.847656 433.519531 149.847656 C 426.699219 152.472656 422.199219 159.03125 422.199219 166.339844 L 422.199219 174.917969 C 403.453125 170.421875 389.421875 153.476562 389.421875 133.421875 C 389.421875 115.613281 400.476562 100.277344 416.042969 93.890625 C 415.972656 92.585938 415.925781 91.28125 415.925781 89.953125 C 415.925781 52.277344 446.460938 21.742188 484.136719 21.742188 C 502.5625 21.742188 519.273438 29.066406 531.542969 40.925781 C 538.042969 38.613281 545.046875 37.332031 552.324219 37.332031 C 584.074219 37.332031 610.214844 61.363281 613.554688 92.21875 C 631.660156 97.140625 645.097656 113.78125 645.097656 133.421875 C 645.097656 156.882812 625.890625 176.085938 602.40625 176.085938 Z M 526.363281 115.925781 C 532.730469 117.4375 538.804688 119.953125 544.386719 123.394531 L 556.101562 118.183594 L 569.898438 131.980469 L 564.710938 143.695312 C 568.148438 149.277344 570.664062 155.351562 572.179688 161.738281 L 584.128906 166.339844 L 584.128906 185.855469 L 572.179688 190.453125 C 570.664062 196.820312 568.128906 202.894531 564.710938 208.476562 L 569.898438 220.191406 L 556.101562 233.988281 L 544.386719 228.800781 C 538.824219 232.238281 532.730469 234.753906 526.363281 236.265625 L 521.765625 248.21875 L 502.25 248.21875 L 497.648438 236.265625 C 491.261719 234.753906 485.1875 232.21875 479.605469 228.800781 L 467.894531 233.988281 L 454.097656 220.191406 L 459.304688 208.476562 C 455.863281 202.914062 453.347656 196.820312 451.816406 190.453125 L 439.867188 185.855469 L 439.867188 166.339844 L 451.816406 161.738281 C 453.347656 155.351562 455.863281 149.277344 459.304688 143.695312 L 454.097656 131.980469 L 467.894531 118.183594 L 479.605469 123.394531 C 485.1875 119.953125 491.261719 117.4375 497.628906 115.925781 L 502.25 103.957031 L 521.765625 103.957031 Z M 511.996094 142.046875 C 493.1875 142.046875 477.957031 157.277344 477.957031 176.085938 C 477.957031 194.894531 493.1875 210.148438 511.996094 210.148438 C 530.804688 210.148438 546.058594 194.894531 546.058594 176.085938 C 546.058594 157.277344 530.804688 142.046875 511.996094 142.046875 Z M 503.164062 304.644531 C 500.609375 305.890625 497.5 305.890625 494.855469 304.363281 C 490.632812 301.925781 489.183594 296.515625 491.621094 292.292969 L 504.347656 270.257812 C 505.925781 267.523438 508.839844 265.839844 511.996094 265.839844 C 515.152344 265.839844 518.070312 267.523438 519.648438 270.257812 L 532.371094 292.292969 C 534.808594 296.515625 533.359375 301.925781 529.136719 304.363281 C 526.492188 305.890625 523.382812 305.890625 520.832031 304.644531 L 520.832031 359.492188 C 520.832031 364.367188 516.871094 368.324219 511.996094 368.324219 C 507.121094 368.324219 503.164062 364.367188 503.164062 359.492188 Z M 636.640625 202.628906 L 670.796875 202.628906 C 675.675781 202.628906 679.632812 206.585938 679.632812 211.464844 L 679.632812 268.554688 C 679.632812 273.429688 675.675781 277.386719 670.796875 277.386719 C 665.921875 277.386719 661.964844 273.429688 661.964844 268.554688 C 661.964844 268.554688 661.964844 220.296875 661.964844 220.296875 L 636.640625 220.296875 C 637.890625 222.851562 637.886719 225.960938 636.359375 228.605469 C 633.921875 232.828125 628.515625 234.277344 624.292969 231.839844 L 602.253906 219.113281 C 599.519531 217.535156 597.835938 214.621094 597.835938 211.464844 C 597.835938 208.308594 599.519531 205.390625 602.253906 203.8125 L 624.292969 191.089844 C 628.515625 188.652344 633.921875 190.101562 636.359375 194.324219 C 637.886719 196.96875 637.890625 200.078125 636.640625 202.628906 Z M 381.0625 202.628906 C 379.8125 200.078125 379.816406 196.96875 381.34375 194.324219 C 383.78125 190.101562 389.1875 188.652344 393.410156 191.089844 L 415.449219 203.8125 C 418.183594 205.390625 419.867188 208.308594 419.867188 211.464844 C 419.867188 214.621094 418.183594 217.535156 415.449219 219.113281 L 393.410156 231.839844 C 389.1875 234.277344 383.78125 232.828125 381.34375 228.605469 C 379.816406 225.960938 379.8125 222.851562 381.0625 220.296875 L 355.738281 220.296875 L 355.738281 268.554688 C 355.738281 273.429688 351.78125 277.386719 346.902344 277.386719 C 342.027344 277.386719 338.070312 273.429688 338.070312 268.554688 L 338.070312 211.464844 C 338.070312 206.585938 342.027344 202.628906 346.902344 202.628906 Z M 381.0625 202.628906 " fill-opacity="1" fill-rule="evenodd"/></g></svg>