<svg xmlns="http://www.w3.org/2000/svg" xmlns:xlink="http://www.w3.org/1999/xlink" width="1366" zoomAndPan="magnify" viewBox="0 0 1024.5 576" height="768" preserveAspectRatio="xMidYMid meet" version="1.0"><defs><clipPath id="32924a7355"><path d="M 253 32.082031 L 770 32.082031 L 770 544 L 253 544 Z M 253 32.082031 " clip-rule="nonzero"/></clipPath></defs><g clip-path="url(#32924a7355)"><path fill="#2e9b63" d="M 640.421875 58.761719 C 654.644531 62.144531 668.226562 67.785156 680.671875 75.449219 L 706.832031 63.832031 L 737.65625 94.65625 L 726.042969 120.804688 C 733.710938 133.253906 739.351562 146.84375 742.734375 161.066406 L 769.417969 171.339844 L 769.417969 214.933594 L 742.726562 225.207031 C 739.34375 239.429688 733.703125 253.011719 726.039062 265.460938 L 737.65625 291.617188 L 706.832031 322.441406 L 680.683594 310.828125 C 668.234375 318.496094 654.644531 324.136719 640.421875 327.519531 L 630.148438 354.203125 L 586.554688 354.203125 L 576.277344 327.511719 C 562.058594 324.128906 548.476562 318.492188 536.027344 310.824219 L 509.871094 322.441406 L 479.042969 291.617188 L 490.65625 265.46875 C 482.988281 253.019531 477.351562 239.429688 473.96875 225.203125 L 447.28125 214.933594 L 447.28125 171.339844 L 473.972656 161.066406 C 477.355469 146.84375 482.996094 133.257812 490.660156 120.808594 L 479.042969 94.65625 L 509.871094 63.828125 L 536.027344 75.445312 C 548.476562 67.78125 562.058594 62.144531 576.28125 58.757812 L 586.554688 32.070312 L 630.148438 32.070312 Z M 373.3125 479.097656 L 393.417969 467.488281 C 395.53125 466.277344 397.933594 466.027344 400.117188 466.613281 L 532.121094 501.953125 C 548.757812 506.414062 564.496094 504.398438 579.207031 495.34375 C 639.867188 458 700.535156 420.671875 761.191406 383.320312 C 770.417969 377.640625 771.609375 362.125 766.144531 353.316406 C 754.085938 333.890625 720.691406 350.0625 706.816406 358.144531 L 606.535156 416.550781 C 590.929688 425.640625 573.71875 428.398438 555.960938 425.410156 C 528.542969 420.949219 502.945312 412.777344 476.304688 405.640625 C 471.5625 404.371094 468.746094 399.5 470.011719 394.757812 C 471.277344 390.019531 476.148438 387.199219 480.890625 388.46875 C 502.578125 394.277344 524.074219 401.261719 546.0625 405.808594 C 557.230469 407.175781 566.445312 403.652344 569.542969 392.082031 C 572.355469 381.589844 565.738281 371.699219 555.824219 368.265625 C 525.707031 362.753906 496.480469 352.183594 473.496094 343.875 C 440.1875 331.835938 431.28125 329.054688 398.4375 348.066406 L 323.660156 391.359375 Z M 292.429688 372.210938 L 375.152344 518.375 C 376.734375 521.183594 375.707031 524.8125 372.910156 526.394531 C 363.753906 531.738281 353.664062 536.761719 344.765625 542.324219 C 341.960938 543.90625 338.332031 542.878906 336.746094 540.078125 L 254.03125 393.921875 C 252.441406 391.117188 253.472656 387.480469 256.269531 385.898438 L 284.410156 369.96875 C 287.21875 368.386719 290.847656 369.414062 292.429688 372.210938 Z M 292.570312 398.226562 C 291.769531 392.738281 286.667969 388.9375 281.179688 389.742188 C 275.691406 390.542969 271.890625 395.644531 272.691406 401.132812 C 273.496094 406.625 278.597656 410.425781 284.085938 409.621094 C 289.574219 408.820312 293.375 403.71875 292.570312 398.226562 Z M 599.746094 145.128906 L 599.746094 193.136719 C 599.746094 197.886719 603.597656 201.738281 608.351562 201.738281 C 622.53125 201.738281 636.714844 201.867188 650.898438 201.945312 C 655.628906 201.964844 659.480469 198.144531 659.5 193.410156 C 659.519531 188.679688 655.695312 184.828125 650.964844 184.808594 L 616.953125 184.617188 L 616.953125 145.128906 C 616.953125 140.378906 613.101562 136.527344 608.347656 136.527344 C 603.597656 136.527344 599.746094 140.378906 599.746094 145.128906 Z M 687.988281 184.535156 L 679.359375 184.535156 C 674.605469 184.535156 670.753906 188.386719 670.753906 193.136719 C 670.753906 197.886719 674.605469 201.738281 679.359375 201.738281 L 687.988281 201.738281 C 692.742188 201.738281 696.59375 197.886719 696.59375 193.136719 C 696.59375 188.386719 692.742188 184.535156 687.988281 184.535156 Z M 658.582031 130.742188 L 652.476562 136.84375 C 649.117188 140.203125 649.117188 145.652344 652.476562 149.007812 C 655.835938 152.367188 661.28125 152.367188 664.640625 149.007812 L 670.746094 142.90625 C 674.105469 139.546875 674.105469 134.097656 670.746094 130.742188 C 667.386719 127.382812 661.941406 127.382812 658.582031 130.742188 Z M 599.746094 113.496094 L 599.746094 122.128906 C 599.746094 126.878906 603.597656 130.730469 608.351562 130.730469 C 613.101562 130.730469 616.953125 126.878906 616.953125 122.128906 L 616.953125 113.496094 C 616.953125 108.746094 613.101562 104.894531 608.351562 104.894531 C 603.597656 104.894531 599.746094 108.746094 599.746094 113.496094 Z M 545.953125 142.90625 L 552.058594 149.007812 C 555.417969 152.367188 560.863281 152.367188 564.222656 149.007812 C 567.582031 145.648438 567.582031 140.203125 564.222656 136.84375 L 558.117188 130.742188 C 554.757812 127.382812 549.3125 127.382812 545.953125 130.742188 C 542.59375 134.097656 542.59375 139.546875 545.953125 142.90625 Z M 528.710938 201.738281 L 537.34375 201.738281 C 542.09375 201.738281 545.945312 197.886719 545.945312 193.136719 C 545.945312 188.386719 542.09375 184.535156 537.34375 184.535156 L 528.710938 184.535156 C 523.960938 184.535156 520.109375 188.386719 520.109375 193.136719 C 520.109375 197.886719 523.960938 201.738281 528.710938 201.738281 Z M 558.117188 255.53125 L 564.222656 249.429688 C 567.582031 246.070312 567.582031 240.621094 564.222656 237.265625 C 560.863281 233.90625 555.417969 233.90625 552.058594 237.265625 L 545.953125 243.367188 C 542.59375 246.726562 542.59375 252.175781 545.953125 255.53125 C 549.3125 258.890625 554.761719 258.890625 558.117188 255.53125 Z M 616.953125 272.777344 L 616.953125 264.144531 C 616.953125 259.394531 613.101562 255.542969 608.351562 255.542969 C 603.597656 255.542969 599.746094 259.394531 599.746094 264.144531 L 599.746094 272.777344 C 599.746094 277.527344 603.597656 281.378906 608.351562 281.378906 C 613.101562 281.378906 616.953125 277.527344 616.953125 272.777344 Z M 670.746094 243.367188 L 664.640625 237.265625 C 661.28125 233.90625 655.835938 233.90625 652.480469 237.265625 C 649.121094 240.625 649.121094 246.070312 652.480469 249.429688 L 658.582031 255.53125 C 661.941406 258.890625 667.386719 258.890625 670.746094 255.53125 C 674.105469 252.175781 674.105469 246.726562 670.746094 243.367188 Z M 608.351562 93.109375 C 553.109375 93.109375 508.324219 137.894531 508.324219 193.136719 C 508.324219 248.378906 553.109375 293.164062 608.351562 293.164062 C 663.589844 293.164062 708.375 248.378906 708.375 193.136719 C 708.378906 137.894531 663.59375 93.109375 608.351562 93.109375 Z M 608.351562 93.109375 " fill-opacity="1" fill-rule="evenodd"/></g></svg>