<svg xmlns="http://www.w3.org/2000/svg" xmlns:xlink="http://www.w3.org/1999/xlink" width="1366" zoomAndPan="magnify" viewBox="0 0 1024.5 576" height="768" preserveAspectRatio="xMidYMid meet" version="1.0"><path fill="#3fbf7f" d="M 372.457031 65.988281 C 472.28125 10.765625 606.019531 68.140625 675.703125 131.742188 C 695.613281 149.914062 743.882812 195.242188 755.28125 267.886719 C 769.4375 358.128906 723.09375 467.511719 616.796875 514.300781 C 501.097656 565.230469 371.734375 516.964844 311.1875 438.621094 C 254.5625 365.351562 265.894531 279.074219 269.945312 248.253906 C 274.695312 212.097656 288.824219 112.257812 372.457031 65.988281 " fill-opacity="1" fill-rule="nonzero"/><path fill="#2e9b63" d="M 702.902344 378.25 L 352.234375 378.25 C 341.953125 378.25 333.617188 369.914062 333.617188 359.632812 L 333.617188 112.59375 C 333.617188 102.308594 341.953125 93.972656 352.234375 93.972656 L 702.902344 93.972656 C 713.1875 93.972656 721.523438 102.308594 721.523438 112.59375 L 721.523438 359.632812 C 721.523438 369.914062 713.1875 378.25 702.902344 378.25 " fill-opacity="1" fill-rule="nonzero"/><path fill="#3fbf7f" d="M 721.609375 129 L 333.707031 129 L 333.707031 112.640625 C 333.707031 102.332031 342.0625 93.976562 352.371094 93.976562 L 702.945312 93.976562 C 713.253906 93.976562 721.609375 102.332031 721.609375 112.640625 L 721.609375 129 " fill-opacity="1" fill-rule="nonzero"/><path fill="#3fbf7f" d="M 676.824219 351.890625 L 378.316406 351.890625 C 369.796875 351.890625 362.890625 344.988281 362.890625 336.46875 L 362.890625 169.3125 C 362.890625 160.796875 369.796875 153.890625 378.316406 153.890625 L 676.824219 153.890625 C 685.339844 153.890625 692.242188 160.796875 692.242188 169.3125 L 692.242188 336.46875 C 692.242188 344.988281 685.339844 351.890625 676.824219 351.890625 " fill-opacity="1" fill-rule="nonzero"/><path fill="#1f2937" d="M 632.347656 379.140625 L 549.046875 379.140625 C 548.554688 379.140625 548.15625 378.742188 548.15625 378.25 C 548.15625 377.757812 548.554688 377.359375 549.046875 377.359375 L 632.347656 377.359375 C 632.835938 377.359375 633.238281 377.757812 633.238281 378.25 C 633.238281 378.742188 632.835938 379.140625 632.347656 379.140625 " fill-opacity="1" fill-rule="nonzero"/><path fill="#1f2937" d="M 708.59375 378.511719 C 708.199219 378.511719 707.839844 378.242188 707.730469 377.847656 C 707.609375 377.367188 707.894531 376.882812 708.371094 376.757812 C 715.585938 374.855469 720.628906 368.734375 720.628906 361.867188 L 720.628906 110.363281 C 720.628906 101.816406 713.023438 94.867188 703.664062 94.867188 L 485.480469 95.394531 C 485.480469 95.394531 485.480469 95.394531 485.476562 95.394531 C 484.988281 95.394531 484.589844 94.992188 484.585938 94.503906 C 484.585938 94.011719 484.984375 93.613281 485.476562 93.609375 L 703.660156 93.085938 C 714.003906 93.085938 722.414062 100.835938 722.414062 110.363281 L 722.414062 361.867188 C 722.414062 369.542969 716.824219 376.375 708.820312 378.480469 C 708.746094 378.5 708.667969 378.511719 708.59375 378.511719 " fill-opacity="1" fill-rule="nonzero"/><path fill="#3fbf7f" d="M 651 113.886719 C 651 117.191406 648.320312 119.867188 645.023438 119.867188 C 641.722656 119.867188 639.042969 117.191406 639.042969 113.886719 C 639.042969 110.589844 641.722656 107.910156 645.023438 107.910156 C 648.320312 107.910156 651 110.589844 651 113.886719 " fill-opacity="1" fill-rule="nonzero"/><path fill="#3fbf7f" d="M 670.550781 113.886719 C 670.550781 117.191406 667.871094 119.867188 664.570312 119.867188 C 661.269531 119.867188 658.59375 117.191406 658.59375 113.886719 C 658.59375 110.589844 661.269531 107.910156 664.570312 107.910156 C 667.871094 107.910156 670.550781 110.589844 670.550781 113.886719 " fill-opacity="1" fill-rule="nonzero"/><path fill="#3fbf7f" d="M 690.097656 113.886719 C 690.097656 117.191406 687.421875 119.867188 684.121094 119.867188 C 680.820312 119.867188 678.140625 117.191406 678.140625 113.886719 C 678.140625 110.589844 680.820312 107.910156 684.121094 107.910156 C 687.421875 107.910156 690.097656 110.589844 690.097656 113.886719 " fill-opacity="1" fill-rule="nonzero"/><path fill="#ffffff" d="M 461.617188 217.09375 L 316.335938 217.09375 C 312.070312 217.09375 308.609375 213.632812 308.609375 209.363281 L 308.609375 50.082031 C 308.609375 45.816406 312.070312 42.355469 316.335938 42.355469 L 461.617188 42.355469 C 465.882812 42.355469 469.339844 45.816406 469.339844 50.082031 L 469.339844 209.363281 C 469.339844 213.632812 465.882812 217.09375 461.617188 217.09375 " fill-opacity="1" fill-rule="nonzero"/><path fill="#1f2937" d="M 316.335938 43.242188 C 312.566406 43.242188 309.5 46.3125 309.5 50.078125 L 309.5 209.367188 C 309.5 213.132812 312.566406 216.199219 316.335938 216.199219 L 461.617188 216.199219 C 465.382812 216.199219 468.449219 213.132812 468.449219 209.367188 L 468.449219 50.078125 C 468.449219 46.3125 465.382812 43.242188 461.617188 43.242188 Z M 461.617188 217.984375 L 316.335938 217.984375 C 311.585938 217.984375 307.71875 214.117188 307.71875 209.367188 L 307.71875 50.078125 C 307.71875 45.328125 311.585938 41.460938 316.335938 41.460938 L 461.617188 41.460938 C 466.367188 41.460938 470.234375 45.328125 470.234375 50.078125 L 470.234375 209.367188 C 470.234375 214.117188 466.367188 217.984375 461.617188 217.984375 " fill-opacity="1" fill-rule="nonzero"/><path fill="#3fbf7f" d="M 383.003906 102.183594 C 390.898438 119.121094 383.847656 139.382812 367.257812 147.445312 L 351.992188 116.746094 L 383.003906 102.183594 " fill-opacity="1" fill-rule="nonzero"/><path fill="#238354" d="M 383.003906 102.1875 C 374.882812 84.769531 354.121094 77.652344 337.257812 86.835938 C 322.203125 95.03125 315.65625 113.855469 322.273438 129.910156 C 329.683594 147.886719 350.191406 155.734375 367.253906 147.445312 L 353.730469 118.433594 C 353.304688 117.519531 353.683594 116.425781 354.578125 115.992188 L 383.003906 102.1875 " fill-opacity="1" fill-rule="nonzero"/><path fill="#2e9b63" d="M 367.257812 147.445312 L 353.730469 118.429688 L 352.667969 150.742188 C 357.5625 150.789062 362.539062 149.734375 367.257812 147.445312 " fill-opacity="1" fill-rule="nonzero"/><path fill="#ffffff" d="M 365.492188 116.78125 C 365.492188 123.839844 359.886719 129.5625 352.96875 129.5625 C 346.050781 129.5625 340.445312 123.839844 340.445312 116.78125 C 340.445312 109.71875 346.050781 104 352.96875 104 C 359.886719 104 365.492188 109.71875 365.492188 116.78125 " fill-opacity="1" fill-rule="nonzero"/><path fill="#3fbf7f" d="M 345.195312 202.675781 L 341.464844 202.605469 C 339.828125 202.578125 338.515625 201.402344 338.519531 199.964844 L 338.554688 184.273438 C 338.558594 182.800781 339.933594 181.617188 341.613281 181.640625 L 345.3125 181.695312 C 346.953125 181.71875 348.269531 182.890625 348.269531 184.332031 C 348.269531 188.332031 348.269531 195.976562 348.269531 200.042969 C 348.269531 201.519531 346.882812 202.707031 345.195312 202.675781 " fill-opacity="1" fill-rule="nonzero"/><path fill="#3fbf7f" d="M 358.414062 202.679688 L 354.679688 202.605469 C 353.039062 202.578125 351.730469 201.40625 351.734375 199.96875 L 351.773438 174.367188 C 351.773438 172.898438 353.152344 171.710938 354.832031 171.734375 L 358.527344 171.789062 C 360.167969 171.8125 361.488281 172.984375 361.488281 174.425781 C 361.488281 180.21875 361.488281 194.15625 361.488281 200.042969 C 361.488281 201.519531 360.097656 202.707031 358.414062 202.679688 " fill-opacity="1" fill-rule="nonzero"/><path fill="#3fbf7f" d="M 371.628906 202.675781 L 367.894531 202.605469 C 366.257812 202.578125 364.945312 201.40625 364.949219 199.96875 L 364.984375 179.644531 C 364.988281 178.175781 366.367188 176.988281 368.046875 177.015625 L 371.742188 177.066406 C 373.382812 177.089844 374.699219 178.261719 374.699219 179.703125 C 374.699219 184.582031 374.699219 195.085938 374.699219 200.042969 C 374.699219 201.519531 373.3125 202.710938 371.628906 202.675781 " fill-opacity="1" fill-rule="nonzero"/><path fill="#3fbf7f" d="M 384.84375 202.675781 L 381.109375 202.605469 C 379.472656 202.574219 378.164062 201.402344 378.164062 199.964844 L 378.203125 159.992188 C 378.207031 158.523438 379.585938 157.335938 381.265625 157.359375 L 384.957031 157.410156 C 386.601562 157.4375 387.917969 158.609375 387.917969 160.050781 C 387.917969 167.996094 387.917969 191.960938 387.917969 200.039062 C 387.917969 201.515625 386.53125 202.707031 384.84375 202.675781 " fill-opacity="1" fill-rule="nonzero"/><path fill="#3fbf7f" d="M 398.058594 202.671875 L 394.324219 202.605469 C 392.6875 202.574219 391.378906 201.402344 391.378906 199.964844 L 391.421875 149.703125 C 391.421875 148.230469 392.800781 147.042969 394.480469 147.066406 L 398.175781 147.121094 C 399.816406 147.144531 401.132812 148.316406 401.132812 149.753906 C 401.132812 159.042969 401.132812 190.59375 401.132812 200.035156 C 401.132812 201.515625 399.746094 202.707031 398.058594 202.671875 " fill-opacity="1" fill-rule="nonzero"/><path fill="#2e9b63" d="M 411.273438 202.675781 L 407.539062 202.609375 C 405.898438 202.578125 404.589844 201.40625 404.59375 199.972656 L 404.636719 142.054688 C 404.636719 140.582031 406.011719 139.394531 407.695312 139.417969 L 411.386719 139.46875 C 413.03125 139.496094 414.347656 140.667969 414.347656 142.105469 C 414.347656 152.308594 414.347656 189.65625 414.347656 200.039062 C 414.347656 201.519531 412.960938 202.710938 411.273438 202.675781 " fill-opacity="1" fill-rule="nonzero"/><path fill="#3fbf7f" d="M 424.488281 202.679688 L 420.753906 202.609375 C 419.117188 202.578125 417.808594 201.40625 417.808594 199.96875 L 417.847656 158.828125 C 417.851562 157.355469 419.230469 156.167969 420.910156 156.191406 L 424.601562 156.246094 C 426.246094 156.269531 427.5625 157.445312 427.5625 158.882812 C 427.5625 166.988281 427.5625 191.800781 427.5625 200.042969 C 427.5625 201.519531 426.175781 202.710938 424.488281 202.679688 " fill-opacity="1" fill-rule="nonzero"/><path fill="#3fbf7f" d="M 437.703125 202.675781 L 433.96875 202.605469 C 432.332031 202.574219 431.023438 201.402344 431.023438 199.96875 L 431.066406 145.375 C 431.066406 143.902344 432.445312 142.710938 434.125 142.738281 L 437.820312 142.789062 C 439.460938 142.816406 440.777344 143.988281 440.777344 145.425781 C 440.777344 155.246094 440.777344 190.0625 440.777344 200.042969 C 440.777344 201.519531 439.394531 202.707031 437.703125 202.675781 " fill-opacity="1" fill-rule="nonzero"/><path fill="#2e9b63" d="M 450.921875 202.675781 L 447.183594 202.605469 C 445.546875 202.574219 444.238281 201.402344 444.238281 199.96875 L 444.285156 128.976562 C 444.285156 127.503906 445.660156 126.316406 447.34375 126.339844 L 451.035156 126.398438 C 452.679688 126.417969 453.996094 127.589844 453.996094 129.03125 C 453.996094 140.6875 453.996094 188.183594 453.996094 200.039062 C 453.996094 201.515625 452.609375 202.707031 450.921875 202.675781 " fill-opacity="1" fill-rule="nonzero"/><path fill="#3fbf7f" d="M 451.910156 71.640625 L 409.847656 71.640625 C 408.683594 71.640625 407.734375 70.691406 407.734375 69.53125 C 407.734375 68.371094 408.683594 67.417969 409.847656 67.417969 L 451.910156 67.417969 C 453.070312 67.417969 454.023438 68.371094 454.023438 69.53125 C 454.023438 70.691406 453.070312 71.640625 451.910156 71.640625 " fill-opacity="1" fill-rule="nonzero"/><path fill="#2e9b63" d="M 438.78125 63.128906 L 410.835938 63.128906 C 409.671875 63.128906 408.722656 62.175781 408.722656 61.015625 C 408.722656 59.851562 409.671875 58.902344 410.835938 58.902344 L 438.78125 58.902344 C 439.941406 58.902344 440.890625 59.851562 440.890625 61.015625 C 440.890625 62.175781 439.941406 63.128906 438.78125 63.128906 " fill-opacity="1" fill-rule="nonzero"/><path fill="#3fbf7f" d="M 451.910156 80.484375 L 409.847656 80.484375 C 408.6875 80.484375 407.734375 79.535156 407.734375 78.375 C 407.734375 77.210938 408.6875 76.261719 409.847656 76.261719 L 451.910156 76.261719 C 453.070312 76.261719 454.023438 77.210938 454.023438 78.375 C 454.023438 79.535156 453.070312 80.484375 451.910156 80.484375 " fill-opacity="1" fill-rule="nonzero"/><path fill="#3fbf7f" d="M 452.074219 89.460938 L 410.011719 89.460938 C 408.851562 89.460938 407.898438 88.507812 407.898438 87.347656 C 407.898438 86.1875 408.851562 85.234375 410.011719 85.234375 L 452.074219 85.234375 C 453.234375 85.234375 454.1875 86.1875 454.1875 87.347656 C 454.1875 88.507812 453.234375 89.460938 452.074219 89.460938 " fill-opacity="1" fill-rule="nonzero"/><path fill="#3fbf7f" d="M 452.074219 98.300781 L 410.011719 98.300781 C 408.851562 98.300781 407.898438 97.351562 407.898438 96.191406 C 407.898438 95.027344 408.851562 94.078125 410.011719 94.078125 L 452.074219 94.078125 C 453.234375 94.078125 454.1875 95.027344 454.1875 96.191406 C 454.1875 97.351562 453.234375 98.300781 452.074219 98.300781 " fill-opacity="1" fill-rule="nonzero"/><path fill="#2e9b63" d="M 402.828125 69.257812 C 402.828125 70.644531 401.714844 71.769531 400.335938 71.769531 C 398.960938 71.769531 397.847656 70.644531 397.847656 69.257812 C 397.847656 67.871094 398.960938 66.746094 400.335938 66.746094 C 401.714844 66.746094 402.828125 67.871094 402.828125 69.257812 " fill-opacity="1" fill-rule="nonzero"/><path fill="#2e9b63" d="M 403.183594 78.230469 C 403.183594 79.617188 402.070312 80.738281 400.695312 80.738281 C 399.320312 80.738281 398.203125 79.617188 398.203125 78.230469 C 398.203125 76.839844 399.320312 75.714844 400.695312 75.714844 C 402.070312 75.714844 403.183594 76.839844 403.183594 78.230469 " fill-opacity="1" fill-rule="nonzero"/><path fill="#2e9b63" d="M 402.710938 87.320312 C 402.710938 88.707031 401.597656 89.832031 400.222656 89.832031 C 398.84375 89.832031 397.730469 88.707031 397.730469 87.320312 C 397.730469 85.933594 398.84375 84.808594 400.222656 84.808594 C 401.597656 84.808594 402.710938 85.933594 402.710938 87.320312 " fill-opacity="1" fill-rule="nonzero"/><path fill="#2e9b63" d="M 403.066406 96.296875 C 403.066406 97.683594 401.949219 98.808594 400.574219 98.808594 C 399.199219 98.808594 398.085938 97.683594 398.085938 96.296875 C 398.085938 94.910156 399.199219 93.785156 400.574219 93.785156 C 401.949219 93.785156 403.066406 94.910156 403.066406 96.296875 " fill-opacity="1" fill-rule="nonzero"/><path fill="#2e9b63" d="M 371.855469 64.351562 L 334.90625 64.351562 C 333.390625 64.351562 332.152344 63.113281 332.152344 61.597656 C 332.152344 60.082031 333.390625 58.847656 334.90625 58.847656 L 371.855469 58.847656 C 373.367188 58.847656 374.605469 60.082031 374.605469 61.597656 C 374.605469 63.113281 373.367188 64.351562 371.855469 64.351562 " fill-opacity="1" fill-rule="nonzero"/><path fill="#3fbf7f" d="M 375.410156 73.207031 L 331.820312 73.207031 C 330.308594 73.207031 329.070312 71.96875 329.070312 70.453125 C 329.070312 68.941406 330.308594 67.703125 331.820312 67.703125 L 375.410156 67.703125 C 376.925781 67.703125 378.164062 68.941406 378.164062 70.453125 C 378.164062 71.96875 376.925781 73.207031 375.410156 73.207031 " fill-opacity="1" fill-rule="nonzero"/><path fill="#1f2937" d="M 668.589844 351.789062 C 668.085938 349.175781 667.609375 347.230469 667.175781 345.390625 C 663.988281 331.78125 660.5625 320.679688 658.058594 313.199219 L 651.273438 288.476562 L 567.574219 303.699219 C 567.574219 303.699219 564.859375 321.972656 559.332031 351.789062 L 668.589844 351.789062 " fill-opacity="1" fill-rule="nonzero"/><path fill="#1f2937" d="M 578.390625 348.667969 C 587.582031 348.667969 593.558594 338.65625 589.449219 330.148438 C 588.507812 328.199219 587.546875 326.230469 586.601562 324.324219 C 579.539062 310.070312 559.332031 313.183594 556.8125 328.988281 C 556.769531 329.265625 556.207031 329.546875 556.167969 329.828125 C 554.863281 339.828125 562.558594 348.667969 572.308594 348.667969 L 578.390625 348.667969 " fill-opacity="1" fill-rule="nonzero"/><path fill="#238354" d="M 638.765625 172.09375 C 686.570312 185.234375 693.394531 201.457031 693.394531 236.597656 C 693.394531 267.234375 661.84375 284.105469 661.84375 284.105469 C 661.84375 284.105469 676.988281 334.65625 668.4375 339.550781 C 659.890625 344.445312 648.175781 347.214844 635.128906 342.253906 C 609.035156 332.339844 568.320312 321.113281 556.164062 329.820312 C 556.164062 329.820312 575.492188 248.066406 558.773438 216.410156 C 558.773438 216.410156 518.136719 205.738281 553.460938 181.558594 C 575.710938 166.332031 616.722656 166.035156 638.765625 172.09375 " fill-opacity="1" fill-rule="nonzero"/><path fill="#238354" d="M 566.507812 224.449219 C 555.289062 225.75 517.589844 237.105469 499.820312 234.457031 C 479.75 231.46875 458.0625 195.148438 451.890625 184.09375 C 450.644531 181.867188 450.21875 179.242188 450.703125 176.71875 C 451.460938 172.804688 453.25 167.230469 457.441406 164.847656 C 460.9375 162.859375 467.472656 159.472656 473.636719 166.160156 C 473.636719 166.160156 489.097656 190.332031 507.714844 190.921875 C 525.671875 191.488281 545.375 167.140625 600.722656 169.445312 L 566.507812 224.449219 " fill-opacity="1" fill-rule="nonzero"/><path fill="#1f2937" d="M 463.597656 189.261719 C 458 189.261719 454.402344 183.125 454.253906 182.859375 C 454.007812 182.433594 454.152344 181.890625 454.582031 181.644531 C 455.007812 181.398438 455.550781 181.542969 455.800781 181.96875 C 455.828125 182.023438 459.039062 187.476562 463.597656 187.476562 C 463.625 187.476562 463.65625 187.476562 463.6875 187.476562 C 467.246094 187.417969 470.800781 184.128906 474.257812 177.695312 C 474.488281 177.261719 475.027344 177.097656 475.464844 177.332031 C 475.898438 177.5625 476.058594 178.105469 475.828125 178.539062 C 472.039062 185.589844 467.960938 189.195312 463.707031 189.261719 C 463.671875 189.261719 463.632812 189.261719 463.597656 189.261719 " fill-opacity="1" fill-rule="nonzero"/><path fill="#3fbf7f" d="M 618.425781 269.277344 C 618.09375 269.277344 617.769531 269.089844 617.617188 268.761719 C 617.414062 268.316406 617.605469 267.789062 618.054688 267.582031 C 651.8125 251.964844 652.925781 222.296875 652.929688 221.996094 C 652.945312 221.507812 653.359375 221.128906 653.84375 221.128906 C 654.335938 221.140625 654.726562 221.550781 654.714844 222.042969 C 654.707031 222.359375 654.472656 229.925781 649.929688 239.570312 C 645.742188 248.453125 636.945312 260.804688 618.800781 269.199219 C 618.679688 269.25 618.554688 269.277344 618.425781 269.277344 " fill-opacity="1" fill-rule="nonzero"/><path fill="#3fbf7f" d="M 626.269531 293.921875 C 625.78125 293.921875 625.382812 293.535156 625.378906 293.042969 C 625.371094 292.550781 625.765625 292.148438 626.257812 292.140625 C 647.875 291.882812 662.167969 283.847656 662.3125 283.769531 C 662.738281 283.523438 663.285156 283.671875 663.527344 284.097656 C 663.773438 284.523438 663.625 285.066406 663.195312 285.3125 C 663.050781 285.398438 648.390625 293.660156 626.277344 293.921875 C 626.277344 293.921875 626.273438 293.921875 626.269531 293.921875 " fill-opacity="1" fill-rule="nonzero"/><path fill="#ffffff" d="M 606.132812 291.648438 C 606.132812 291.648438 610.589844 292.128906 619.40625 289.921875 C 626.066406 288.253906 624.101562 266.621094 615.996094 272.480469 C 609.230469 277.371094 605.269531 278.007812 605.269531 278.007812 L 598.742188 274.753906 C 596.179688 273.476562 593.4375 272.640625 590.613281 272.308594 C 579.363281 270.984375 580.039062 273.582031 580.039062 273.582031 C 579.554688 276.207031 580.496094 276.601562 582.5625 277.472656 L 591.359375 281.167969 C 592.578125 281.683594 592.863281 283.347656 591.878906 284.253906 C 590.347656 285.667969 588.585938 286.78125 586.671875 287.535156 C 583.203125 288.90625 577.160156 291.105469 570.925781 292.515625 C 568 293.179688 567.066406 296.808594 569.769531 298.152344 L 589.191406 299.585938 C 594.113281 299.945312 598.972656 298.238281 602.65625 294.84375 L 606.132812 291.648438 " fill-opacity="1" fill-rule="nonzero"/><path fill="#1f2937" d="M 580.90625 273.355469 C 580.90625 273.359375 580.90625 273.359375 580.90625 273.359375 C 580.90625 273.359375 580.90625 273.359375 580.90625 273.355469 Z M 570.027344 297.277344 L 589.261719 298.691406 C 593.910156 299.039062 598.570312 297.394531 602.058594 294.1875 L 605.53125 290.992188 C 605.722656 290.820312 605.976562 290.734375 606.230469 290.761719 C 606.308594 290.769531 610.707031 291.179688 619.1875 289.054688 C 620.707031 288.671875 621.882812 286.679688 622.335938 283.714844 C 623.039062 279.125 621.804688 273.964844 619.699219 272.679688 C 618.804688 272.132812 617.765625 272.300781 616.519531 273.199219 C 609.664062 278.160156 605.582031 278.859375 605.414062 278.886719 C 605.230469 278.917969 605.042969 278.886719 604.875 278.804688 L 598.347656 275.550781 C 595.847656 274.304688 593.207031 273.511719 590.507812 273.191406 C 582.5625 272.253906 581.125 273.359375 580.933594 273.566406 C 580.9375 273.625 580.929688 273.679688 580.917969 273.742188 C 580.566406 275.664062 580.878906 275.796875 582.910156 276.652344 L 591.707031 280.34375 C 592.554688 280.703125 593.160156 281.46875 593.324219 282.390625 C 593.488281 283.328125 593.171875 284.269531 592.484375 284.90625 C 590.867188 286.40625 589.023438 287.566406 587 288.363281 C 583.125 289.890625 577.230469 292.003906 571.128906 293.382812 C 569.847656 293.671875 569.175781 294.644531 569.074219 295.476562 C 569.019531 295.925781 569.082031 296.734375 570.027344 297.277344 Z M 590.472656 300.523438 C 590.023438 300.523438 589.578125 300.503906 589.132812 300.46875 L 569.707031 299.039062 C 569.59375 299.03125 569.480469 299 569.375 298.949219 C 567.910156 298.21875 567.121094 296.808594 567.304688 295.265625 C 567.515625 293.515625 568.890625 292.0625 570.734375 291.644531 C 577.042969 290.21875 583.222656 287.9375 586.347656 286.707031 C 588.160156 285.988281 589.816406 284.945312 591.269531 283.601562 C 591.519531 283.371094 591.628906 283.039062 591.566406 282.703125 C 591.539062 282.542969 591.429688 282.164062 591.019531 281.992188 L 582.222656 278.296875 C 580.199219 277.441406 578.59375 276.769531 579.144531 273.542969 C 579.132812 273.210938 579.238281 272.792969 579.578125 272.40625 C 580.800781 271.003906 584.441406 270.679688 590.71875 271.421875 C 593.621094 271.765625 596.453125 272.617188 599.144531 273.957031 L 605.390625 277.070312 C 606.355469 276.832031 609.960938 275.742188 615.476562 271.753906 C 617.796875 270.078125 619.558594 270.503906 620.625 271.15625 C 623.738281 273.054688 624.832031 279.167969 624.097656 283.984375 C 623.527344 287.734375 621.894531 290.214844 619.625 290.78125 C 612.160156 292.652344 607.769531 292.632812 606.457031 292.5625 L 603.265625 295.5 C 599.753906 298.730469 595.15625 300.523438 590.472656 300.523438 " fill-opacity="1" fill-rule="nonzero"/><path fill="#ffffff" d="M 419.761719 132.898438 C 420.1875 131.613281 421.464844 130.859375 422.738281 131.140625 C 426.304688 131.921875 444.667969 135.96875 448.09375 136.746094 C 451.519531 137.523438 451.65625 141.335938 453.605469 144.832031 C 455.304688 147.867188 461.140625 158.992188 467.503906 166.746094 C 469.417969 169.082031 469.6875 172.429688 468.195312 175.082031 C 467.339844 176.605469 466.25 178.101562 464.960938 178.984375 C 461.640625 181.25 459.148438 183.957031 452.484375 168.007812 C 452.074219 167.03125 451.390625 166.199219 450.511719 165.617188 C 449.269531 164.800781 447.316406 163.316406 445.410156 161.054688 C 445.410156 161.054688 434.242188 174.6875 431.390625 147.003906 C 431.136719 144.546875 432.230469 142.148438 434.304688 140.9375 C 434.46875 140.84375 434.644531 140.746094 434.824219 140.648438 L 421.445312 136.359375 C 420.046875 135.910156 419.28125 134.339844 419.761719 132.898438 " fill-opacity="1" fill-rule="nonzero"/><path fill="#1f2937" d="M 419.761719 132.898438 L 419.765625 132.898438 Z M 445.410156 160.167969 C 445.671875 160.167969 445.921875 160.28125 446.09375 160.484375 C 447.910156 162.636719 449.765625 164.058594 451 164.871094 C 452.027344 165.550781 452.824219 166.515625 453.304688 167.664062 C 456.46875 175.234375 458.949219 179.183594 460.886719 179.75 C 461.835938 180.023438 462.691406 179.476562 464.011719 178.558594 L 464.460938 178.246094 C 465.46875 177.558594 466.464844 176.347656 467.421875 174.644531 C 468.734375 172.304688 468.492188 169.355469 466.8125 167.3125 C 461.09375 160.339844 455.789062 150.664062 453.523438 146.53125 C 453.246094 146.023438 453.011719 145.597656 452.828125 145.265625 C 452.207031 144.15625 451.757812 143.003906 451.363281 141.992188 C 450.378906 139.476562 449.734375 138.035156 447.894531 137.617188 C 444.453125 136.832031 426.03125 132.773438 422.546875 132.007812 C 421.722656 131.828125 420.886719 132.332031 420.605469 133.179688 C 420.445312 133.667969 420.484375 134.183594 420.714844 134.640625 C 420.929688 135.0625 421.285156 135.371094 421.71875 135.511719 L 435.097656 139.800781 C 435.4375 139.910156 435.679688 140.210938 435.710938 140.570312 C 435.742188 140.925781 435.558594 141.269531 435.242188 141.433594 C 435.070312 141.527344 434.90625 141.617188 434.753906 141.707031 C 433.027344 142.714844 432.054688 144.761719 432.277344 146.914062 C 433.558594 159.34375 436.425781 162.730469 438.605469 163.386719 C 441.527344 164.265625 444.6875 160.527344 444.722656 160.492188 C 444.890625 160.289062 445.140625 160.167969 445.402344 160.167969 C 445.40625 160.167969 445.410156 160.167969 445.410156 160.167969 Z M 461.390625 181.609375 C 461.070312 181.609375 460.734375 181.5625 460.390625 181.460938 C 457.796875 180.707031 455.183594 176.789062 451.660156 168.347656 C 451.316406 167.53125 450.75 166.84375 450.019531 166.363281 C 448.835938 165.582031 447.128906 164.289062 445.394531 162.386719 C 444.09375 163.671875 441.191406 166.023438 438.09375 165.09375 C 434.109375 163.898438 431.628906 158.011719 430.503906 147.097656 C 430.257812 144.714844 431.140625 142.417969 432.800781 140.9375 L 421.171875 137.207031 C 420.285156 136.921875 419.558594 136.296875 419.125 135.445312 C 418.683594 134.578125 418.605469 133.546875 418.914062 132.617188 C 419.484375 130.898438 421.210938 129.890625 422.929688 130.269531 C 426.414062 131.035156 444.839844 135.09375 448.289062 135.878906 C 451.140625 136.523438 452.054688 138.863281 453.023438 141.339844 C 453.417969 142.351562 453.824219 143.394531 454.382812 144.394531 C 454.570312 144.730469 454.808594 145.15625 455.085938 145.671875 C 457.328125 149.761719 462.578125 159.339844 468.191406 166.179688 C 470.332031 168.789062 470.648438 172.542969 468.972656 175.523438 C 467.878906 177.460938 466.699219 178.875 465.464844 179.71875 L 465.027344 180.019531 C 463.90625 180.800781 462.75 181.609375 461.390625 181.609375 " fill-opacity="1" fill-rule="nonzero"/><path fill="#1f2937" d="M 447.96875 155.699219 C 447.8125 155.699219 447.660156 155.660156 447.515625 155.578125 C 446.667969 155.082031 445.15625 154.015625 444.332031 153.425781 C 440.652344 150.789062 438.605469 148.171875 437.710938 146.84375 C 437.050781 145.867188 436.71875 144.769531 436.746094 143.671875 C 436.804688 141.488281 438.242188 140.988281 438.855469 140.773438 C 441.164062 139.964844 444.75 142.121094 445.152344 142.367188 C 445.574219 142.625 445.703125 143.171875 445.445312 143.59375 C 445.183594 144.015625 444.636719 144.144531 444.21875 143.882812 C 442.976562 143.121094 440.585938 142.058594 439.441406 142.460938 C 438.925781 142.636719 438.554688 142.769531 438.527344 143.71875 C 438.507812 144.445312 438.734375 145.183594 439.1875 145.847656 C 440.015625 147.074219 441.917969 149.5 445.347656 151.960938 C 446.730469 152.953125 447.839844 153.703125 448.417969 154.039062 C 448.84375 154.285156 448.984375 154.832031 448.738281 155.257812 C 448.570312 155.539062 448.273438 155.699219 447.96875 155.699219 " fill-opacity="1" fill-rule="nonzero"/><path fill="#1f2937" d="M 445.5625 162.105469 C 445.324219 162.105469 445.089844 162.011719 444.910156 161.824219 C 441.847656 158.566406 442.027344 155.0625 442.039062 154.917969 C 442.070312 154.429688 442.503906 154.0625 442.984375 154.082031 C 443.472656 154.117188 443.847656 154.535156 443.816406 155.027344 C 443.8125 155.15625 443.703125 157.9375 446.210938 160.601562 C 446.550781 160.960938 446.53125 161.527344 446.171875 161.863281 C 446 162.027344 445.78125 162.105469 445.5625 162.105469 " fill-opacity="1" fill-rule="nonzero"/><path fill="#ffffff" d="M 621.40625 171.273438 L 620.191406 138.527344 L 597.222656 150.589844 L 597.472656 171.289062 C 597.644531 175.902344 601.429688 178.476562 601.429688 178.476562 C 606.125 182.046875 612.699219 181.398438 617.484375 177.960938 L 618.59375 177.164062 C 620.449219 175.832031 621.511719 173.605469 621.40625 171.273438 " fill-opacity="1" fill-rule="nonzero"/><path fill="#1f2937" d="M 598.117188 151.125 L 598.363281 171.277344 C 598.515625 175.371094 601.898438 177.714844 601.929688 177.738281 C 606.046875 180.867188 612.214844 180.652344 616.96875 177.238281 L 618.074219 176.441406 C 619.695312 175.277344 620.605469 173.359375 620.515625 171.316406 C 620.515625 171.3125 620.515625 171.308594 620.515625 171.308594 L 619.355469 139.976562 Z M 608.769531 181.773438 C 605.921875 181.773438 603.164062 180.914062 600.890625 179.1875 C 600.761719 179.097656 596.765625 176.328125 596.582031 171.320312 L 596.328125 150.601562 C 596.324219 150.265625 596.507812 149.957031 596.808594 149.804688 L 619.777344 137.738281 C 620.046875 137.597656 620.375 137.605469 620.640625 137.757812 C 620.90625 137.914062 621.070312 138.191406 621.085938 138.496094 L 622.292969 171.238281 C 622.414062 173.886719 621.222656 176.371094 619.117188 177.886719 L 618.003906 178.683594 C 615.144531 180.738281 611.898438 181.773438 608.769531 181.773438 " fill-opacity="1" fill-rule="nonzero"/><path fill="#1f2937" d="M 586.800781 101.023438 C 592.929688 100.660156 585.21875 107.152344 607.898438 100.335938 C 616.929688 97.621094 612.363281 108.464844 614.707031 107.769531 C 623.363281 105.195312 623.0625 105.273438 627.292969 106.414062 C 630.089844 107.167969 631.910156 112.472656 631.382812 116.4375 C 630.691406 121.675781 626.492188 123.027344 622.777344 134.085938 C 620.164062 141.851562 620.804688 146.574219 617.78125 147.707031 C 614.722656 148.851562 612.460938 144.628906 609.027344 145.621094 C 604.582031 146.902344 605.460938 154.816406 601.136719 158.097656 C 598.410156 160.171875 592.066406 161.132812 581.890625 156.042969 C 580.246094 155.21875 579.398438 153.292969 579.886719 151.46875 C 580.511719 149.128906 581.316406 146.175781 582.308594 143.421875 C 587.0625 130.304688 591.605469 127.335938 589.960938 123.9375 C 587.4375 118.734375 577.867188 121.71875 576.277344 117.441406 C 574.628906 113 578.402344 101.523438 586.800781 101.023438 " fill-opacity="1" fill-rule="nonzero"/><path fill="#ffffff" d="M 608.199219 123.613281 L 606.441406 126.984375 C 605.617188 128.570312 604.894531 130.214844 604.292969 131.902344 C 603.152344 135.074219 600.992188 140.433594 599.8125 143.464844 C 596.019531 153.199219 584.378906 142.503906 584.378906 142.503906 L 583.566406 139.824219 L 582.003906 139.167969 C 581.699219 139.039062 581.421875 138.847656 581.21875 138.582031 C 580.71875 137.914062 580.714844 137.035156 581.140625 136.382812 C 583.480469 132.828125 588.359375 124.847656 590.109375 117.683594 C 590.109375 117.683594 600.101562 115.027344 608.199219 123.613281 " fill-opacity="1" fill-rule="nonzero"/><path fill="#1f2937" d="M 585.160156 142.003906 C 586.207031 142.914062 591.691406 147.464844 595.632812 146.542969 C 597.128906 146.195312 598.226562 145.082031 598.980469 143.140625 C 599.308594 142.304688 599.707031 141.296875 600.136719 140.199219 C 601.246094 137.390625 602.632812 133.886719 603.449219 131.601562 C 604.070312 129.878906 604.808594 128.1875 605.652344 126.570312 L 607.109375 123.773438 C 600.5625 117.222656 592.847656 118.074219 590.835938 118.441406 C 588.992188 125.4375 584.464844 132.953125 581.886719 136.875 C 581.652344 137.226562 581.667969 137.699219 581.929688 138.042969 C 582.046875 138.195312 582.222656 138.289062 582.347656 138.34375 L 583.914062 139 C 584.15625 139.101562 584.34375 139.308594 584.421875 139.5625 Z M 594.5625 148.445312 C 589.589844 148.445312 584.03125 143.394531 583.773438 143.160156 C 583.660156 143.050781 583.570312 142.914062 583.523438 142.761719 L 582.835938 140.484375 L 581.65625 139.988281 C 581.1875 139.789062 580.789062 139.488281 580.507812 139.117188 C 579.792969 138.171875 579.753906 136.875 580.394531 135.890625 C 582.476562 132.734375 587.496094 124.613281 589.246094 117.472656 C 589.324219 117.15625 589.570312 116.90625 589.886719 116.824219 C 590.3125 116.707031 600.484375 114.132812 608.84375 123 C 609.105469 123.277344 609.164062 123.691406 608.988281 124.023438 L 607.230469 127.394531 C 606.425781 128.9375 605.722656 130.554688 605.128906 132.203125 C 604.296875 134.511719 602.910156 138.03125 601.796875 140.855469 C 601.367188 141.945312 600.96875 142.953125 600.644531 143.785156 C 599.671875 146.285156 598.117188 147.800781 596.035156 148.28125 C 595.550781 148.394531 595.058594 148.445312 594.5625 148.445312 " fill-opacity="1" fill-rule="nonzero"/><path fill="#ffffff" d="M 605.71875 135.371094 C 605.71875 135.371094 609.929688 127.265625 613.089844 130.027344 C 616.25 132.789062 611.402344 141.59375 605.71875 135.371094 " fill-opacity="1" fill-rule="nonzero"/><path fill="#1f2937" d="M 589.003906 127.113281 C 588.378906 127.390625 588.019531 128.363281 587.925781 129.996094 C 587.75 133.089844 588.355469 134.363281 588.894531 134.882812 C 589.269531 135.242188 589.761719 135.390625 590.417969 135.328125 C 590.46875 135.3125 590.800781 135.09375 591.152344 134.402344 C 591.480469 133.746094 592.445312 131.3125 591.046875 127.59375 C 590.984375 127.433594 590.792969 127.199219 590.449219 127.050781 C 590.015625 126.871094 589.503906 126.894531 589.003906 127.113281 Z M 590.152344 137.125 C 589.167969 137.125 588.308594 136.796875 587.660156 136.167969 C 586.464844 135.015625 585.972656 132.964844 586.144531 129.894531 C 586.28125 127.503906 586.976562 126.0625 588.28125 125.484375 C 589.234375 125.0625 590.246094 125.035156 591.136719 125.40625 C 591.886719 125.71875 592.460938 126.289062 592.714844 126.964844 C 594.15625 130.800781 593.542969 133.976562 592.484375 135.664062 C 591.941406 136.53125 591.269531 137.042969 590.578125 137.101562 C 590.433594 137.117188 590.292969 137.125 590.152344 137.125 " fill-opacity="1" fill-rule="nonzero"/><path fill="#1f2937" d="M 609.519531 129.4375 C 609.480469 129.4375 609.441406 129.433594 609.402344 129.429688 L 590.230469 126.925781 C 589.746094 126.863281 589.398438 126.414062 589.464844 125.925781 C 589.527344 125.4375 589.976562 125.089844 590.464844 125.160156 L 609.632812 127.660156 C 610.121094 127.726562 610.464844 128.171875 610.402344 128.660156 C 610.347656 129.109375 609.957031 129.4375 609.519531 129.4375 " fill-opacity="1" fill-rule="nonzero"/><path fill="#1f2937" d="M 582.144531 133.375 Z M 582.25 133.445312 Z M 581.753906 135.070312 C 581.625 135.070312 581.496094 135.042969 581.371094 134.980469 C 580.855469 134.738281 580.410156 134.027344 580.050781 132.882812 C 579.445312 130.957031 579.242188 128.105469 580.5 125.878906 C 580.949219 125.078125 581.625 124.570312 582.460938 124.414062 C 584.410156 124.046875 586.550781 125.734375 586.789062 125.929688 C 587.167969 126.238281 587.222656 126.800781 586.917969 127.179688 C 586.605469 127.5625 586.042969 127.621094 585.660156 127.308594 C 585.222656 126.953125 583.757812 125.984375 582.789062 126.167969 C 582.59375 126.203125 582.304688 126.304688 582.050781 126.757812 C 580.648438 129.25 581.714844 132.832031 582.230469 133.425781 C 582.609375 133.660156 582.757812 134.152344 582.558594 134.5625 C 582.40625 134.882812 582.089844 135.070312 581.753906 135.070312 " fill-opacity="1" fill-rule="nonzero"/><path fill="#ffffff" d="M 435.152344 292.917969 C 434.851562 292.917969 434.558594 292.765625 434.390625 292.492188 C 434.132812 292.070312 434.265625 291.523438 434.683594 291.265625 L 478.988281 264.101562 C 479.410156 263.84375 479.960938 263.976562 480.214844 264.394531 C 480.476562 264.816406 480.34375 265.363281 479.921875 265.621094 L 435.617188 292.785156 C 435.472656 292.875 435.308594 292.917969 435.152344 292.917969 " fill-opacity="1" fill-rule="nonzero"/><path fill="#ffffff" d="M 460.414062 260.484375 C 460.117188 260.484375 459.820312 260.332031 459.652344 260.058594 C 459.394531 259.636719 459.527344 259.089844 459.949219 258.832031 L 483.265625 244.535156 C 483.6875 244.28125 484.234375 244.410156 484.492188 244.828125 C 484.75 245.25 484.617188 245.800781 484.199219 246.054688 L 460.878906 260.351562 C 460.734375 260.441406 460.574219 260.484375 460.414062 260.484375 " fill-opacity="1" fill-rule="nonzero"/><path fill="#238354" d="M 658.898438 65.082031 L 651.65625 90.027344 C 648.746094 100.261719 663.394531 113.316406 684.375 119.183594 C 705.355469 125.050781 724.726562 121.511719 727.636719 111.277344 L 734.878906 86.328125 L 658.898438 65.082031 " fill-opacity="1" fill-rule="nonzero"/><path fill="#1f2937" d="M 659.511719 66.175781 L 652.515625 90.273438 C 651.773438 92.882812 652.257812 95.75 653.960938 98.785156 C 658.378906 106.683594 670.414062 114.351562 684.617188 118.324219 C 705.09375 124.050781 724.007812 120.777344 726.78125 111.035156 L 733.773438 86.945312 Z M 703.917969 122.910156 C 697.710938 122.910156 690.929688 121.941406 684.136719 120.039062 C 669.277344 115.886719 657.121094 108.074219 652.40625 99.65625 C 650.464844 96.191406 649.925781 92.871094 650.800781 89.78125 L 658.046875 64.828125 C 658.179688 64.359375 658.667969 64.089844 659.140625 64.21875 L 735.117188 85.472656 C 735.347656 85.535156 735.542969 85.6875 735.65625 85.894531 C 735.773438 86.101562 735.804688 86.351562 735.734375 86.578125 L 728.492188 111.523438 C 726.988281 116.816406 721.46875 120.589844 712.945312 122.144531 C 710.132812 122.660156 707.105469 122.910156 703.917969 122.910156 " fill-opacity="1" fill-rule="nonzero"/><path fill="#2e9b63" d="M 739.15625 79.332031 L 704.890625 51.886719 C 704.230469 51.421875 703.429688 51.195312 702.621094 51.253906 L 658.941406 56.902344 L 643.425781 52.5625 L 641.292969 60.054688 C 641.164062 60.527344 641.292969 61.070312 641.769531 61.40625 L 689.996094 95.621094 C 690.65625 96.085938 691.457031 96.3125 692.269531 96.253906 L 751.417969 92.070312 C 752.003906 92.03125 752.402344 91.636719 752.535156 91.167969 L 754.667969 83.671875 L 739.15625 79.332031 " fill-opacity="1" fill-rule="nonzero"/><path fill="#1f2937" d="M 644.042969 53.660156 L 642.15625 60.296875 C 642.128906 60.386719 642.109375 60.554688 642.28125 60.675781 L 690.511719 94.890625 C 691.003906 95.238281 691.609375 95.40625 692.207031 95.363281 L 751.359375 91.179688 C 751.578125 91.167969 751.652344 91.011719 751.683594 90.921875 L 753.566406 84.289062 L 738.917969 80.1875 C 738.800781 80.15625 738.691406 80.105469 738.597656 80.03125 L 704.335938 52.582031 C 703.886719 52.265625 703.289062 52.101562 702.683594 52.140625 L 659.054688 57.785156 C 658.9375 57.796875 658.816406 57.789062 658.703125 57.757812 Z M 692.023438 97.152344 C 691.117188 97.152344 690.222656 96.871094 689.484375 96.347656 L 641.253906 62.128906 C 640.507812 61.601562 640.1875 60.691406 640.4375 59.808594 L 642.570312 52.316406 C 642.707031 51.84375 643.199219 51.570312 643.667969 51.703125 L 659.003906 55.992188 L 702.503906 50.363281 C 703.570312 50.285156 704.582031 50.570312 705.40625 51.160156 L 739.570312 78.523438 L 754.90625 82.8125 C 755.136719 82.878906 755.332031 83.027344 755.445312 83.234375 C 755.5625 83.441406 755.59375 83.6875 755.527344 83.914062 L 753.394531 91.410156 C 753.144531 92.285156 752.394531 92.894531 751.484375 92.960938 L 692.332031 97.140625 C 692.226562 97.148438 692.125 97.152344 692.023438 97.152344 " fill-opacity="1" fill-rule="nonzero"/><path fill="#238354" d="M 754.195312 82.324219 L 705.96875 48.113281 C 705.304688 47.640625 704.503906 47.417969 703.695312 47.472656 L 644.539062 51.65625 C 643.375 51.738281 642.949219 53.238281 643.898438 53.914062 L 692.128906 88.125 C 692.785156 88.597656 693.589844 88.820312 694.398438 88.761719 L 753.550781 84.582031 C 754.714844 84.496094 755.144531 82.996094 754.195312 82.324219 " fill-opacity="1" fill-rule="nonzero"/><path fill="#1f2937" d="M 703.941406 48.359375 C 703.882812 48.359375 703.816406 48.359375 703.757812 48.363281 L 644.601562 52.546875 C 644.386719 52.5625 644.308594 52.71875 644.28125 52.808594 C 644.261719 52.898438 644.242188 53.066406 644.414062 53.1875 L 692.640625 87.398438 C 693.132812 87.75 693.734375 87.910156 694.335938 87.875 L 753.488281 83.691406 C 753.707031 83.675781 753.785156 83.519531 753.808594 83.429688 C 753.832031 83.339844 753.851562 83.171875 753.679688 83.050781 L 705.449219 48.839844 C 705.007812 48.523438 704.480469 48.359375 703.941406 48.359375 Z M 694.152344 89.664062 C 693.246094 89.664062 692.351562 89.382812 691.613281 88.855469 L 643.382812 54.640625 C 642.640625 54.113281 642.320312 53.207031 642.566406 52.324219 C 642.816406 51.445312 643.566406 50.832031 644.476562 50.769531 L 703.632812 46.585938 C 704.644531 46.511719 705.660156 46.800781 706.480469 47.382812 L 754.710938 81.597656 C 755.449219 82.125 755.773438 83.03125 755.527344 83.910156 C 755.28125 84.792969 754.527344 85.40625 753.613281 85.46875 L 694.460938 89.652344 C 694.355469 89.660156 694.257812 89.664062 694.152344 89.664062 " fill-opacity="1" fill-rule="nonzero"/><path fill="#2e9b63" d="M 728.707031 108.0625 C 727.605469 108.136719 726.746094 109.050781 726.742188 110.160156 L 726.617188 141.390625 L 735.078125 140.839844 L 730.925781 109.886719 C 730.777344 108.789062 729.808594 107.992188 728.707031 108.0625 " fill-opacity="1" fill-rule="nonzero"/><path fill="#1f2937" d="M 728.707031 108.0625 L 728.710938 108.0625 Z M 728.84375 108.953125 C 728.816406 108.953125 728.789062 108.953125 728.765625 108.953125 C 728.128906 108.992188 727.636719 109.523438 727.632812 110.160156 L 727.511719 140.4375 L 734.066406 140.011719 L 730.042969 110.007812 C 729.960938 109.398438 729.441406 108.953125 728.84375 108.953125 Z M 726.617188 142.28125 C 726.386719 142.28125 726.171875 142.195312 726.003906 142.039062 C 725.828125 141.871094 725.722656 141.632812 725.722656 141.386719 L 725.847656 110.152344 C 725.859375 108.585938 727.082031 107.273438 728.648438 107.175781 C 730.207031 107.066406 731.601562 108.210938 731.808594 109.769531 L 735.960938 140.71875 C 735.996094 140.964844 735.921875 141.210938 735.769531 141.40625 C 735.609375 141.59375 735.382812 141.710938 735.136719 141.730469 L 726.675781 142.28125 C 726.652344 142.28125 726.636719 142.28125 726.617188 142.28125 " fill-opacity="1" fill-rule="nonzero"/><path fill="#1f2937" d="M 728.300781 108.71875 C 727.839844 108.71875 727.445312 108.363281 727.410156 107.894531 L 725.832031 87.097656 L 698.917969 67.449219 C 698.519531 67.15625 698.433594 66.601562 698.722656 66.203125 C 699.015625 65.804688 699.570312 65.71875 699.96875 66.007812 L 727.214844 85.898438 C 727.421875 86.050781 727.554688 86.289062 727.578125 86.550781 L 729.191406 107.757812 C 729.226562 108.25 728.859375 108.679688 728.367188 108.714844 C 728.347656 108.714844 728.320312 108.71875 728.300781 108.71875 " fill-opacity="1" fill-rule="nonzero"/><path fill="#1f2937" d="M 287.199219 254.34375 C 286.972656 254.34375 286.746094 254.257812 286.570312 254.082031 C 286.222656 253.738281 286.222656 253.171875 286.570312 252.824219 L 289.820312 249.574219 C 290.167969 249.226562 290.730469 249.226562 291.082031 249.574219 C 291.429688 249.925781 291.429688 250.488281 291.082031 250.835938 L 287.832031 254.082031 C 287.65625 254.257812 287.429688 254.34375 287.199219 254.34375 " fill-opacity="1" fill-rule="nonzero"/><path fill="#1f2937" d="M 279.632812 261.914062 C 279.40625 261.914062 279.179688 261.824219 279.003906 261.652344 C 278.65625 261.304688 278.65625 260.742188 279.003906 260.390625 L 282.253906 257.144531 C 282.601562 256.792969 283.164062 256.792969 283.511719 257.144531 C 283.859375 257.492188 283.859375 258.054688 283.511719 258.40625 L 280.265625 261.652344 C 280.089844 261.824219 279.863281 261.914062 279.632812 261.914062 " fill-opacity="1" fill-rule="nonzero"/><path fill="#1f2937" d="M 282.882812 254.34375 C 282.652344 254.34375 282.425781 254.257812 282.253906 254.082031 L 279.003906 250.835938 C 278.65625 250.488281 278.65625 249.925781 279.003906 249.574219 C 279.351562 249.226562 279.914062 249.226562 280.265625 249.574219 L 283.511719 252.824219 C 283.859375 253.171875 283.859375 253.738281 283.511719 254.082031 C 283.339844 254.257812 283.109375 254.34375 282.882812 254.34375 " fill-opacity="1" fill-rule="nonzero"/><path fill="#1f2937" d="M 290.449219 261.914062 C 290.222656 261.914062 289.992188 261.824219 289.820312 261.652344 L 286.570312 258.40625 C 286.222656 258.054688 286.222656 257.492188 286.570312 257.144531 C 286.917969 256.792969 287.484375 256.792969 287.832031 257.144531 L 291.082031 260.390625 C 291.429688 260.742188 291.429688 261.304688 291.082031 261.652344 C 290.90625 261.824219 290.675781 261.914062 290.449219 261.914062 " fill-opacity="1" fill-rule="nonzero"/><path fill="#1f2937" d="M 533.867188 70.910156 L 533.875 70.910156 Z M 535.503906 71.449219 C 535.070312 71.449219 534.640625 71.535156 534.238281 71.71875 C 532.632812 72.441406 531.902344 74.363281 532.609375 76.003906 C 532.957031 76.800781 533.585938 77.414062 534.378906 77.722656 C 535.15625 78.023438 536.007812 78.003906 536.769531 77.660156 C 538.367188 76.941406 539.097656 75.019531 538.390625 73.378906 C 538.042969 72.582031 537.417969 71.96875 536.617188 71.660156 C 536.257812 71.515625 535.878906 71.449219 535.503906 71.449219 Z M 535.503906 79.71875 C 534.90625 79.71875 534.308594 79.605469 533.734375 79.386719 C 532.488281 78.898438 531.511719 77.953125 530.96875 76.710938 C 529.882812 74.179688 531.015625 71.210938 533.503906 70.09375 C 534.703125 69.554688 536.039062 69.519531 537.265625 70 C 538.507812 70.480469 539.492188 71.429688 540.027344 72.671875 C 541.117188 75.203125 539.980469 78.171875 537.5 79.289062 C 536.855469 79.574219 536.179688 79.71875 535.503906 79.71875 " fill-opacity="1" fill-rule="nonzero"/><path fill="#1f2937" d="M 503.613281 61.097656 C 503.386719 61.097656 503.167969 61.015625 502.996094 60.851562 C 502.640625 60.507812 502.625 59.945312 502.964844 59.589844 L 505.761719 56.664062 C 506.101562 56.3125 506.667969 56.300781 507.023438 56.636719 C 507.378906 56.980469 507.390625 57.542969 507.050781 57.898438 L 504.253906 60.824219 C 504.078125 61.003906 503.847656 61.097656 503.613281 61.097656 " fill-opacity="1" fill-rule="nonzero"/><path fill="#1f2937" d="M 493.824219 71.324219 C 493.605469 71.324219 493.382812 71.242188 493.207031 71.078125 C 492.851562 70.734375 492.839844 70.171875 493.179688 69.816406 L 495.976562 66.894531 C 496.320312 66.539062 496.882812 66.527344 497.238281 66.867188 C 497.59375 67.207031 497.605469 67.769531 497.265625 68.128906 L 494.46875 71.046875 C 494.292969 71.230469 494.058594 71.324219 493.824219 71.324219 " fill-opacity="1" fill-rule="nonzero"/><path fill="#1f2937" d="M 496.570312 61.253906 C 496.34375 61.253906 496.117188 61.167969 495.941406 60.996094 L 493.105469 58.199219 C 492.753906 57.855469 492.75 57.289062 493.09375 56.941406 C 493.441406 56.585938 494.003906 56.585938 494.355469 56.929688 L 497.195312 59.726562 C 497.546875 60.074219 497.550781 60.636719 497.203125 60.988281 C 497.03125 61.164062 496.800781 61.253906 496.570312 61.253906 " fill-opacity="1" fill-rule="nonzero"/><path fill="#1f2937" d="M 506.503906 71.042969 C 506.277344 71.042969 506.050781 70.957031 505.875 70.785156 L 503.039062 67.988281 C 502.6875 67.640625 502.683594 67.078125 503.027344 66.726562 C 503.375 66.375 503.9375 66.371094 504.289062 66.71875 L 507.128906 69.515625 C 507.476562 69.863281 507.484375 70.425781 507.136719 70.773438 C 506.960938 70.953125 506.730469 71.042969 506.503906 71.042969 " fill-opacity="1" fill-rule="nonzero"/><path fill="#ffffff" d="M 347.722656 530.867188 L 384.992188 401.675781 L 422.257812 530.867188 L 431.191406 530.867188 L 390.246094 385.089844 L 379.742188 385.074219 L 338.789062 530.867188 L 347.722656 530.867188 " fill-opacity="1" fill-rule="nonzero"/><path fill="#2e9b63" d="M 517.078125 372.179688 L 416.496094 372.179688 C 414.140625 372.179688 412.230469 370.273438 412.230469 367.917969 L 412.230469 366.300781 L 521.339844 366.300781 L 521.339844 367.917969 C 521.339844 370.273438 519.429688 372.179688 517.078125 372.179688 " fill-opacity="1" fill-rule="nonzero"/><path fill="#1f2937" d="M 413.121094 367.191406 L 413.121094 367.917969 C 413.121094 369.777344 414.636719 371.289062 416.496094 371.289062 L 517.078125 371.289062 C 518.933594 371.289062 520.445312 369.777344 520.445312 367.917969 L 520.445312 367.191406 Z M 517.078125 373.074219 L 416.496094 373.074219 C 413.652344 373.074219 411.339844 370.761719 411.339844 367.917969 L 411.339844 366.300781 C 411.339844 365.808594 411.738281 365.410156 412.230469 365.410156 L 521.339844 365.410156 C 521.832031 365.410156 522.230469 365.808594 522.230469 366.300781 L 522.230469 367.917969 C 522.230469 370.761719 519.917969 373.074219 517.078125 373.074219 " fill-opacity="1" fill-rule="nonzero"/><path fill="#2e9b63" d="M 521.339844 366.40625 L 458.910156 366.40625 L 477.378906 311.894531 C 478.566406 310.0625 480.632812 308.949219 482.855469 308.949219 L 535.632812 308.949219 C 538.027344 308.949219 539.570312 311.28125 538.789062 313.339844 C 538.476562 314.160156 521.339844 366.40625 521.339844 366.40625 " fill-opacity="1" fill-rule="nonzero"/><path fill="#1f2937" d="M 460.152344 365.515625 L 520.695312 365.515625 C 522.710938 359.367188 537.65625 313.8125 537.953125 313.023438 C 538.21875 312.324219 538.113281 311.53125 537.679688 310.894531 C 537.214844 310.226562 536.46875 309.839844 535.632812 309.839844 L 482.855469 309.839844 C 480.960938 309.839844 479.222656 310.753906 478.1875 312.289062 Z M 521.339844 367.300781 L 458.910156 367.300781 C 458.621094 367.300781 458.351562 367.160156 458.183594 366.925781 C 458.015625 366.691406 457.972656 366.390625 458.066406 366.121094 L 476.535156 311.609375 C 476.558594 311.535156 476.589844 311.46875 476.632812 311.410156 C 477.988281 309.308594 480.316406 308.058594 482.855469 308.058594 L 535.632812 308.058594 C 537.0625 308.058594 538.347656 308.722656 539.144531 309.878906 C 539.917969 311 540.09375 312.410156 539.621094 313.65625 C 539.328125 314.449219 528.089844 348.691406 522.1875 366.6875 C 522.066406 367.050781 521.726562 367.300781 521.339844 367.300781 " fill-opacity="1" fill-rule="nonzero"/><path fill="#ffffff" d="M 517.371094 361.316406 L 466 361.316406 L 481.832031 314.144531 L 533.054688 314.074219 L 517.371094 361.316406 " fill-opacity="1" fill-rule="nonzero"/><path fill="#3fbf7f" d="M 479.785156 355.402344 L 473.785156 355.402344 L 475.632812 349.890625 L 481.617188 349.882812 L 479.785156 355.402344 " fill-opacity="1" fill-rule="nonzero"/><path fill="#2e9b63" d="M 490.925781 355.402344 L 484.496094 355.402344 L 489.335938 340.972656 L 495.722656 340.953125 L 490.925781 355.402344 " fill-opacity="1" fill-rule="nonzero"/><path fill="#238354" d="M 503.375 355.402344 L 496.457031 355.402344 L 506.03125 326.871094 L 512.859375 326.828125 L 503.375 355.402344 " fill-opacity="1" fill-rule="nonzero"/><path fill="#ffffff" d="M 511.09375 529.824219 L 548.363281 400.613281 L 585.632812 529.824219 L 594.5625 529.824219 L 553.617188 384.023438 L 543.113281 384.011719 L 502.160156 529.824219 L 511.09375 529.824219 " fill-opacity="1" fill-rule="nonzero"/><path fill="#1f2937" d="M 586.300781 528.933594 L 593.386719 528.933594 L 552.9375 384.917969 L 543.789062 384.902344 L 503.335938 528.933594 L 510.421875 528.933594 L 548.363281 397.398438 Z M 595.738281 530.714844 L 584.960938 530.714844 L 584.773438 530.070312 L 548.363281 403.832031 L 511.761719 530.714844 L 500.984375 530.714844 L 542.4375 383.117188 L 554.292969 383.136719 L 595.738281 530.714844 " fill-opacity="1" fill-rule="nonzero"/><path fill="#ffffff" d="M 582.375 386.210938 L 339.761719 386.210938 L 339.761719 372.171875 L 582.375 372.171875 L 582.375 386.210938 " fill-opacity="1" fill-rule="nonzero"/><path fill="#1f2937" d="M 340.652344 385.320312 L 581.484375 385.320312 L 581.484375 373.066406 L 340.652344 373.066406 Z M 583.265625 387.101562 L 338.871094 387.101562 L 338.871094 371.28125 L 583.265625 371.28125 L 583.265625 387.101562 " fill-opacity="1" fill-rule="nonzero"/><path fill="#238354" d="M 514.679688 384.902344 C 514.1875 384.902344 513.785156 384.503906 513.785156 384.011719 L 513.785156 376.195312 C 513.785156 375.703125 514.1875 375.304688 514.679688 375.304688 C 515.171875 375.304688 515.570312 375.703125 515.570312 376.195312 L 515.570312 384.011719 C 515.570312 384.503906 515.171875 384.902344 514.679688 384.902344 " fill-opacity="1" fill-rule="nonzero"/><path fill="#ffffff" d="M 411.214844 497.316406 L 409.214844 520.046875 L 430.65625 522.304688 L 424 513.203125 C 422.222656 510.773438 421.613281 507.675781 422.339844 504.75 L 424.160156 497.410156 L 411.214844 497.316406 " fill-opacity="1" fill-rule="nonzero"/><path fill="#1f2937" d="M 410.179688 519.253906 L 428.75 521.207031 L 423.28125 513.726562 C 421.339844 511.078125 420.683594 507.726562 421.472656 504.535156 L 423.023438 498.296875 L 412.03125 498.214844 Z M 432.5625 523.40625 L 408.25 520.839844 L 410.402344 496.421875 L 425.296875 496.527344 L 423.203125 504.964844 C 422.539062 507.640625 423.09375 510.453125 424.71875 512.679688 L 432.5625 523.40625 " fill-opacity="1" fill-rule="nonzero"/><path fill="#238354" d="M 407.734375 516.160156 L 405.945312 525.507812 C 405.945312 525.507812 405.695312 528.925781 409.171875 529.523438 C 413.695312 530.300781 431.289062 532.710938 443.757812 530.449219 C 446.617188 529.929688 447.902344 528.136719 448.140625 527.195312 C 448.796875 524.609375 447.140625 520.898438 441.921875 518.964844 C 432.617188 515.523438 429.066406 514.398438 424.539062 511.324219 C 423.53125 510.644531 422.015625 511.367188 421.328125 512.277344 C 421.328125 512.277344 419.6875 514.679688 419.710938 517.203125 C 419.71875 518.109375 418.78125 518.714844 417.949219 518.359375 L 410.011719 514.945312 C 409.039062 514.527344 407.933594 515.117188 407.734375 516.160156 " fill-opacity="1" fill-rule="nonzero"/><path fill="#1f2937" d="M 406.832031 525.617188 C 406.816406 526.027344 406.855469 528.222656 409.324219 528.648438 C 416.324219 529.847656 432.5 531.585938 443.597656 529.570312 C 446.183594 529.101562 447.144531 527.503906 447.277344 526.976562 C 447.84375 524.742188 446.316406 521.539062 441.613281 519.804688 C 440.566406 519.414062 439.589844 519.058594 438.679688 518.71875 C 431.449219 516.0625 428.148438 514.851562 424.039062 512.0625 C 423.527344 511.71875 422.511719 512.191406 422.039062 512.816406 C 422.039062 512.816406 420.582031 515 420.601562 517.191406 C 420.609375 517.917969 420.253906 518.589844 419.648438 518.988281 C 419.035156 519.398438 418.269531 519.464844 417.597656 519.179688 L 409.660156 515.765625 C 409.367188 515.640625 409.125 515.730469 409.003906 515.792969 C 408.796875 515.902344 408.652344 516.097656 408.609375 516.328125 Z M 431.40625 532.292969 C 420.222656 532.292969 409.628906 530.507812 409.019531 530.402344 C 405.640625 529.820312 404.949219 526.90625 405.054688 525.445312 L 405.070312 525.34375 L 406.859375 515.992188 C 407.003906 515.230469 407.480469 514.578125 408.167969 514.214844 C 408.851562 513.855469 409.652344 513.820312 410.363281 514.125 L 418.300781 517.539062 C 418.46875 517.613281 418.609375 517.542969 418.660156 517.503906 C 418.71875 517.46875 418.820312 517.375 418.820312 517.210938 C 418.792969 514.4375 420.519531 511.882812 420.59375 511.773438 C 421.617188 510.414062 423.636719 509.632812 425.039062 510.589844 C 428.96875 513.25 432.203125 514.441406 439.292969 517.046875 C 440.207031 517.382812 441.183594 517.742188 442.234375 518.128906 C 447.96875 520.253906 449.761719 524.429688 449.003906 527.417969 C 448.730469 528.5 447.3125 530.710938 443.917969 531.324219 C 440.007812 532.035156 435.664062 532.292969 431.40625 532.292969 " fill-opacity="1" fill-rule="nonzero"/><path fill="#1f2937" d="M 431.042969 528.929688 C 419.753906 528.929688 410.582031 527.117188 410.460938 527.09375 C 409.976562 526.992188 409.664062 526.523438 409.761719 526.042969 C 409.859375 525.558594 410.328125 525.25 410.8125 525.34375 C 410.972656 525.375 426.925781 528.523438 442.515625 526.429688 C 443.003906 526.359375 443.453125 526.703125 443.519531 527.191406 C 443.585938 527.683594 443.242188 528.128906 442.753906 528.195312 C 438.789062 528.730469 434.796875 528.929688 431.042969 528.929688 " fill-opacity="1" fill-rule="nonzero"/><path fill="#ffffff" d="M 364.734375 490.265625 C 364.285156 495.972656 361.53125 502.582031 359.261719 505.957031 L 369.320312 513.589844 L 376.929688 506.050781 C 375.152344 503.621094 373.5625 497.925781 375.957031 490.414062 L 364.734375 490.265625 " fill-opacity="1" fill-rule="nonzero"/><path fill="#1f2937" d="M 360.457031 505.746094 L 369.242188 512.410156 L 375.78125 505.933594 C 374.074219 503.09375 372.960938 497.875 374.769531 491.292969 L 365.542969 491.167969 C 364.953125 496.371094 362.660156 502.175781 360.457031 505.746094 Z M 369.394531 514.765625 L 358.050781 506.160156 L 358.519531 505.460938 C 360.785156 502.089844 363.421875 495.59375 363.847656 490.195312 L 363.910156 489.363281 L 377.171875 489.539062 L 376.804688 490.683594 C 374.410156 498.210938 376.207031 503.554688 377.648438 505.523438 L 378.101562 506.144531 L 369.394531 514.765625 " fill-opacity="1" fill-rule="nonzero"/><path fill="#238354" d="M 358.917969 503.800781 L 354.757812 511.167969 C 354.757812 511.167969 353.265625 514.34375 356.367188 516.195312 C 359.292969 517.941406 368.796875 523.453125 378.332031 526.988281 C 381.945312 528.328125 392.445312 529.03125 394.917969 525.804688 C 396.578125 523.636719 395.941406 520.8125 391.597656 518.488281 C 381.898438 513.292969 379.644531 505.242188 378.246094 503.355469 C 376.117188 500.480469 372.480469 505.507812 371.492188 509.339844 C 371.257812 510.257812 370.160156 510.625 369.425781 510.027344 L 361.246094 503.359375 C 360.503906 502.753906 359.394531 502.964844 358.917969 503.800781 " fill-opacity="1" fill-rule="nonzero"/><path fill="#1f2937" d="M 355.550781 511.574219 C 355.402344 511.914062 354.574219 514.082031 356.824219 515.429688 C 360.324219 517.519531 369.449219 522.742188 378.640625 526.152344 C 382.261719 527.496094 392.15625 527.941406 394.210938 525.261719 C 394.777344 524.519531 394.980469 523.75 394.8125 522.964844 C 394.53125 521.675781 393.277344 520.398438 391.179688 519.273438 C 383.179688 514.992188 380.105469 508.859375 378.453125 505.570312 C 378.082031 504.835938 377.765625 504.203125 377.53125 503.886719 C 377.15625 503.382812 376.851562 503.367188 376.597656 503.414062 C 375.1875 503.6875 373.085938 506.734375 372.355469 509.5625 C 372.167969 510.292969 371.632812 510.867188 370.921875 511.097656 C 370.210938 511.335938 369.441406 511.191406 368.863281 510.714844 L 360.683594 504.050781 C 360.476562 503.882812 360.261719 503.894531 360.148438 503.914062 C 360.035156 503.9375 359.828125 504.007812 359.695312 504.242188 Z M 386.511719 529.011719 C 383.132812 529.011719 379.765625 528.472656 378.023438 527.824219 C 368.6875 524.363281 359.449219 519.074219 355.910156 516.960938 C 352.910156 515.167969 353.316406 512.140625 353.949219 510.792969 L 353.980469 510.730469 L 358.144531 503.363281 C 358.5 502.730469 359.109375 502.296875 359.820312 502.160156 C 360.527344 502.027344 361.25 502.214844 361.8125 502.671875 L 369.988281 509.335938 C 370.136719 509.457031 370.289062 509.433594 370.363281 509.40625 C 370.441406 509.382812 370.582031 509.308594 370.628906 509.117188 C 371.351562 506.3125 373.710938 502.160156 376.257812 501.664062 C 377.300781 501.460938 378.257812 501.875 378.964844 502.824219 C 379.289062 503.265625 379.625 503.929688 380.042969 504.769531 C 381.609375 507.886719 384.519531 513.683594 392.019531 517.703125 C 394.59375 519.082031 396.160156 520.769531 396.554688 522.589844 C 396.835938 523.890625 396.511719 525.1875 395.625 526.347656 C 394.105469 528.328125 390.304688 529.011719 386.511719 529.011719 " fill-opacity="1" fill-rule="nonzero"/><path fill="#1f2937" d="M 387.140625 524.898438 C 384.765625 524.898438 382.195312 524.539062 380.316406 524.082031 C 367.761719 521 358.652344 513.398438 358.273438 513.078125 C 357.894531 512.757812 357.847656 512.195312 358.164062 511.816406 C 358.484375 511.441406 359.046875 511.394531 359.421875 511.714844 C 359.511719 511.789062 368.605469 519.371094 380.742188 522.347656 C 383.449219 523.011719 387.523438 523.398438 390.074219 522.855469 C 390.558594 522.75 391.03125 523.058594 391.132812 523.542969 C 391.234375 524.019531 390.929688 524.496094 390.445312 524.597656 C 389.464844 524.808594 388.328125 524.898438 387.140625 524.898438 " fill-opacity="1" fill-rule="nonzero"/><path fill="#ffffff" d="M 399.511719 418.042969 C 401.136719 435.832031 386.316406 477.105469 380.84375 490.371094 C 380.230469 491.859375 378.871094 492.988281 377.136719 492.988281 L 364.515625 492.988281 C 362.378906 492.988281 360.652344 491.386719 360.671875 489.417969 C 360.816406 475.425781 367.164062 435.949219 357.773438 421.261719 C 352.339844 412.761719 336.191406 416.347656 329.535156 412.304688 C 313.558594 402.589844 319.574219 370.96875 319.574219 370.96875 C 319.574219 370.96875 397.25 393.234375 399.511719 418.042969 " fill-opacity="1" fill-rule="nonzero"/><path fill="#1f2937" d="M 320.289062 372.109375 C 319.460938 377.449219 316.277344 403.203125 329.996094 411.539062 C 332.453125 413.035156 336.457031 413.429688 340.699219 413.851562 C 347.402344 414.515625 355.003906 415.273438 358.523438 420.785156 C 365.890625 432.300781 363.867188 457.675781 362.394531 476.207031 C 361.964844 481.570312 361.597656 486.199219 361.5625 489.425781 C 361.558594 490.085938 361.820312 490.714844 362.308594 491.207031 C 362.867188 491.773438 363.671875 492.097656 364.515625 492.097656 L 377.136719 492.097656 C 378.632812 492.097656 379.605469 491.03125 380.019531 490.035156 C 386.746094 473.734375 400.140625 434.707031 398.625 418.121094 C 396.574219 395.664062 329.183594 374.769531 320.289062 372.109375 Z M 377.136719 493.878906 L 364.515625 493.878906 C 363.199219 493.878906 361.933594 493.363281 361.042969 492.464844 C 360.21875 491.632812 359.769531 490.546875 359.78125 489.410156 C 359.816406 486.121094 360.1875 481.460938 360.613281 476.066406 C 361.988281 458.820312 364.066406 432.757812 357.023438 421.742188 C 353.964844 416.960938 347.132812 416.28125 340.523438 415.628906 C 336.074219 415.183594 331.871094 414.769531 329.070312 413.066406 C 312.753906 403.144531 318.445312 372.117188 318.695312 370.800781 L 318.878906 369.84375 L 319.816406 370.109375 C 323.015625 371.027344 398.109375 392.832031 400.402344 417.960938 C 402.070312 436.234375 387.058594 477.648438 381.667969 490.710938 C 380.859375 492.667969 379.125 493.878906 377.136719 493.878906 " fill-opacity="1" fill-rule="nonzero"/><path fill="#ffffff" d="M 373.890625 374.332031 C 373.890625 374.332031 426.570312 374.773438 443.183594 393.160156 C 458.109375 409.6875 435.976562 484.644531 431.34375 499.207031 C 430.863281 500.71875 429.363281 501.753906 427.65625 501.753906 L 407.867188 501.753906 C 407.449219 501.753906 407.113281 501.441406 407.113281 501.054688 L 410.261719 472.558594 C 413.632812 434.730469 409.523438 426.734375 409.523438 426.734375 C 406.1875 416.035156 377.671875 416.496094 362.167969 416.601562 C 312.933594 416.941406 327.398438 373.703125 327.398438 373.703125 L 373.890625 374.332031 " fill-opacity="1" fill-rule="nonzero"/><path fill="#1f2937" d="M 408.03125 500.859375 L 427.660156 500.859375 C 428.96875 500.859375 430.132812 500.070312 430.496094 498.9375 C 431.351562 496.246094 439.003906 471.894531 443.722656 446.757812 C 448.976562 418.769531 448.558594 400.445312 442.519531 393.757812 C 426.359375 375.867188 374.40625 375.230469 373.882812 375.226562 L 373.878906 375.226562 L 328.058594 374.601562 C 327.128906 377.855469 323.332031 393.230469 331.230469 404.109375 C 336.890625 411.910156 347.3125 415.796875 362.160156 415.707031 L 363.238281 415.703125 C 379.546875 415.578125 406.820312 415.382812 410.355469 426.40625 C 410.800781 427.378906 414.371094 436.5 411.148438 472.636719 Z M 427.660156 502.644531 L 407.867188 502.644531 C 406.957031 502.644531 406.21875 501.933594 406.21875 501.054688 L 406.226562 500.957031 L 409.375 472.457031 C 412.65625 435.671875 408.765625 427.214844 408.726562 427.136719 L 408.671875 427 C 405.613281 417.175781 378.054688 417.375 363.253906 417.484375 L 362.175781 417.492188 C 361.980469 417.492188 361.785156 417.492188 361.59375 417.492188 C 346.421875 417.492188 335.722656 413.34375 329.78125 405.152344 C 320.417969 392.234375 326.300781 374.183594 326.554688 373.421875 L 326.761719 372.804688 L 373.902344 373.441406 C 376.136719 373.464844 427.175781 374.109375 443.84375 392.5625 C 450.359375 399.777344 450.910156 418.125 445.476562 447.085938 C 440.738281 472.328125 433.054688 496.777344 432.191406 499.480469 C 431.589844 501.371094 429.769531 502.644531 427.660156 502.644531 " fill-opacity="1" fill-rule="nonzero"/><path fill="#ffffff" d="M 410.703125 341.15625 C 411.035156 341.070312 418.535156 341.4375 419.242188 341.199219 C 422.78125 339.996094 430.238281 337.292969 433.746094 337.269531 C 437.703125 337.242188 441.460938 336.585938 443.734375 336.105469 C 445.101562 335.8125 446.089844 336.367188 446.347656 337.253906 C 446.574219 338.035156 446.332031 339.84375 444.300781 340.304688 C 441.949219 340.839844 439.613281 341.429688 437.613281 341.902344 C 436.984375 342.050781 436.335938 342.074219 436.929688 342.285156 C 438.308594 342.769531 439.808594 343.550781 439.90625 344.671875 C 440.085938 346.777344 434.886719 351.566406 429.171875 351.917969 C 424.269531 352.21875 422.914062 349.804688 421.039062 349.453125 C 420.730469 349.394531 412.566406 349.597656 412.207031 349.519531 C 408.511719 348.753906 408.710938 341.675781 410.703125 341.15625 " fill-opacity="1" fill-rule="nonzero"/><path fill="#1f2937" d="M 420.53125 348.550781 C 420.988281 348.550781 421.117188 348.5625 421.207031 348.578125 C 421.980469 348.722656 422.632812 349.117188 423.324219 349.535156 C 424.625 350.324219 426.105469 351.214844 429.117188 351.027344 C 432.785156 350.804688 436.304688 348.566406 438.019531 346.574219 C 438.847656 345.617188 439.035156 344.976562 439.015625 344.746094 C 438.984375 344.355469 438.339844 343.726562 436.632812 343.125 C 435.902344 342.871094 435.78125 342.414062 435.804688 342.078125 C 435.863281 341.335938 436.585938 341.195312 437.019531 341.117188 C 437.140625 341.089844 437.273438 341.066406 437.410156 341.035156 C 438.140625 340.859375 438.921875 340.671875 439.730469 340.476562 C 441.128906 340.136719 442.613281 339.773438 444.101562 339.433594 C 444.660156 339.308594 445.066406 339.042969 445.296875 338.644531 C 445.554688 338.210938 445.550781 337.714844 445.488281 337.503906 C 445.351562 337.019531 444.71875 336.808594 443.917969 336.976562 C 441.445312 337.5 437.675781 338.132812 433.75 338.160156 C 430.761719 338.183594 424.515625 340.328125 420.78125 341.613281 L 419.527344 342.042969 C 419.058594 342.203125 417.789062 342.210938 413.359375 342.085938 C 412.355469 342.058594 411.226562 342.023438 410.890625 342.035156 C 410.648438 342.175781 410.144531 343.097656 410.1875 344.753906 C 410.226562 346.332031 410.820312 348.292969 412.351562 348.640625 C 412.761719 348.660156 415.207031 348.625 417.003906 348.597656 C 418.972656 348.566406 419.988281 348.550781 420.53125 348.550781 Z M 428.347656 352.835938 C 425.335938 352.835938 423.65625 351.820312 422.402344 351.0625 C 421.820312 350.710938 421.359375 350.433594 420.914062 350.335938 C 420.558594 350.324219 418.609375 350.351562 417.03125 350.378906 C 412.777344 350.445312 412.257812 350.441406 412.027344 350.394531 C 409.445312 349.859375 408.464844 347.046875 408.40625 344.796875 C 408.355469 342.835938 408.976562 340.683594 410.476562 340.292969 C 410.695312 340.238281 410.894531 340.234375 413.410156 340.304688 C 415.183594 340.355469 418.484375 340.449219 419 340.34375 L 420.199219 339.925781 C 424.285156 338.523438 430.457031 336.398438 433.738281 336.378906 C 437.515625 336.351562 441.15625 335.742188 443.546875 335.230469 C 445.289062 334.863281 446.792969 335.59375 447.203125 337.007812 C 447.375 337.601562 447.378906 338.621094 446.835938 339.554688 C 446.496094 340.128906 445.8125 340.875 444.496094 341.175781 C 443.015625 341.507812 441.539062 341.871094 440.152344 342.207031 C 439.855469 342.28125 439.5625 342.351562 439.273438 342.417969 C 440.21875 343.050781 440.722656 343.773438 440.792969 344.597656 C 440.890625 345.722656 440.070312 346.929688 439.367188 347.742188 C 437.351562 350.078125 433.433594 352.550781 429.226562 352.808594 C 428.921875 352.828125 428.628906 352.835938 428.347656 352.835938 " fill-opacity="1" fill-rule="nonzero"/><path fill="#1f2937" d="M 370.769531 295.765625 C 381.152344 303.910156 384.546875 327.464844 391.191406 332.785156 C 396.953125 337.394531 417.589844 338.863281 417.589844 338.863281 L 417.746094 352.082031 L 399.738281 352.78125 C 388.902344 353.195312 378.527344 348.796875 374.691406 345.191406 C 361.9375 333.207031 335.40625 307.855469 328.710938 290.941406 L 347.335938 288.988281 C 347.335938 288.988281 359.261719 286.746094 370.769531 295.765625 " fill-opacity="1" fill-rule="nonzero"/><path fill="#1f2937" d="M 368.550781 337.046875 C 368.550781 337.046875 369.597656 341.878906 367.65625 347.816406 C 365.242188 355.195312 366.949219 363.339844 372.5 368.773438 C 374.832031 371.054688 377.4375 373.074219 380.152344 374.234375 C 380.152344 374.234375 378.84375 382.324219 366.574219 383.460938 C 361.585938 383.921875 348.40625 385.035156 338.5625 384.941406 C 325.117188 384.820312 315.101562 382.816406 315.101562 382.816406 L 313.1875 320.582031 C 313.1875 320.582031 311.207031 294.453125 329.234375 290.894531 L 355.207031 289.269531 L 368.550781 337.046875 " fill-opacity="1" fill-rule="nonzero"/><path fill="#3fbf7f" d="M 370.207031 342.945312 C 369.96875 342.945312 369.730469 342.851562 369.550781 342.660156 C 363.800781 336.421875 359.324219 329.863281 356.609375 323.6875 C 356.414062 323.238281 356.617188 322.710938 357.066406 322.511719 C 357.519531 322.3125 358.042969 322.519531 358.242188 322.96875 C 360.878906 328.96875 365.242188 335.359375 370.863281 341.449219 C 371.195312 341.8125 371.175781 342.375 370.8125 342.710938 C 370.640625 342.867188 370.425781 342.945312 370.207031 342.945312 " fill-opacity="1" fill-rule="nonzero"/><path fill="#ffffff" d="M 342.605469 258.414062 C 342.605469 251.472656 336.976562 245.839844 330.03125 245.839844 C 323.085938 245.839844 317.457031 251.472656 317.457031 258.414062 C 317.457031 265.359375 323.085938 270.988281 330.03125 270.988281 C 336.976562 270.988281 342.605469 265.359375 342.605469 258.414062 " fill-opacity="1" fill-rule="nonzero"/><path fill="#1f2937" d="M 330.03125 246.734375 C 323.589844 246.734375 318.347656 251.972656 318.347656 258.414062 C 318.347656 264.859375 323.589844 270.097656 330.03125 270.097656 C 336.472656 270.097656 341.714844 264.859375 341.714844 258.414062 C 341.714844 251.972656 336.472656 246.734375 330.03125 246.734375 Z M 330.03125 271.882812 C 322.605469 271.882812 316.566406 265.84375 316.566406 258.414062 C 316.566406 250.992188 322.605469 244.949219 330.03125 244.949219 C 337.457031 244.949219 343.496094 250.992188 343.496094 258.414062 C 343.496094 265.84375 337.457031 271.882812 330.03125 271.882812 " fill-opacity="1" fill-rule="nonzero"/><path fill="#238354" d="M 342.605469 258.414062 C 342.605469 264.175781 338.730469 269.03125 333.441406 270.519531 C 331.8125 267.925781 328.113281 259.949219 332.792969 246.148438 C 338.410156 247.40625 342.605469 252.417969 342.605469 258.414062 " fill-opacity="1" fill-rule="nonzero"/><path fill="#ffffff" d="M 362.824219 259.25 C 363.53125 258.679688 367.242188 257.742188 368.320312 254.667969 C 368.96875 252.824219 368.210938 249.511719 366.585938 247 C 362.261719 240.292969 347.347656 239.691406 341.074219 243.261719 C 334.800781 246.832031 332.636719 257.054688 332.960938 262.734375 C 333.285156 268.410156 336.53125 275.546875 343.019531 278.304688 C 350.648438 281.550781 359.742188 261.738281 362.824219 259.25 " fill-opacity="1" fill-rule="nonzero"/><path fill="#1f2937" d="M 351.28125 242.019531 C 347.457031 242.019531 343.808594 242.734375 341.515625 244.039062 C 335.75 247.320312 333.535156 257.105469 333.851562 262.683594 C 334.15625 267.992188 337.261719 274.890625 343.371094 277.488281 C 348.179688 279.535156 354.234375 270.203125 358.246094 264.03125 C 360.011719 261.308594 361.292969 259.339844 362.265625 258.554688 C 362.515625 258.351562 362.875 258.1875 363.371094 257.953125 C 364.644531 257.363281 366.777344 256.371094 367.480469 254.371094 C 368.035156 252.796875 367.3125 249.769531 365.835938 247.480469 C 363.390625 243.691406 357.128906 242.019531 351.28125 242.019531 Z M 344.800781 279.570312 C 344.09375 279.570312 343.382812 279.429688 342.671875 279.128906 C 335.828125 276.21875 332.417969 268.824219 332.070312 262.785156 C 331.71875 256.582031 334.140625 246.183594 340.632812 242.488281 C 347.265625 238.714844 362.660156 239.265625 367.335938 246.511719 C 369.136719 249.304688 369.902344 252.859375 369.164062 254.964844 C 368.210938 257.671875 365.550781 258.910156 364.121094 259.570312 C 363.835938 259.703125 363.476562 259.871094 363.382812 259.941406 C 362.632812 260.550781 361.226562 262.710938 359.738281 265 C 355.671875 271.261719 350.277344 279.570312 344.800781 279.570312 " fill-opacity="1" fill-rule="nonzero"/><path fill="#ffffff" d="M 367.957031 255.171875 C 367.957031 255.171875 368.089844 261.816406 368.117188 262.730469 C 368.140625 263.597656 367.871094 266.390625 369.414062 269.738281 C 369.5625 270.058594 369.441406 270.445312 369.140625 270.632812 L 366.84375 272.074219 C 366.6875 272.175781 366.578125 272.335938 366.542969 272.519531 C 366.332031 273.664062 365.550781 277.859375 365.277344 278.621094 C 364.957031 279.503906 364.097656 280.179688 363.703125 280.3125 C 362.667969 280.667969 358.667969 279.417969 358.667969 279.417969 C 358.667969 279.417969 359.257812 278.664062 356.074219 284.167969 C 353.832031 288.042969 358.621094 294.386719 358.621094 294.386719 C 358.621094 294.386719 340.566406 301.675781 330.449219 292.957031 C 329.820312 292.417969 330.097656 291.289062 330.898438 291.09375 C 340.46875 288.722656 341.734375 283.90625 345.507812 276.425781 C 345.683594 276.074219 346.105469 275.910156 346.503906 275.875 C 348.113281 275.730469 352.339844 275.890625 353.769531 269.117188 C 353.808594 268.941406 353.796875 268.761719 353.742188 268.59375 C 353.292969 267.183594 351.371094 260.324219 357.550781 263.214844 C 361.628906 265.125 360.390625 259.507812 361.21875 258.195312 C 361.492188 257.769531 363.886719 256.257812 364.382812 256.132812 L 367.957031 255.171875 " fill-opacity="1" fill-rule="nonzero"/><path fill="#1f2937" d="M 355.042969 263.402344 C 354.761719 263.402344 354.542969 263.464844 354.398438 263.589844 C 353.792969 264.125 353.875 266.066406 354.59375 268.320312 C 354.695312 268.636719 354.710938 268.972656 354.640625 269.300781 C 353.164062 276.300781 348.777344 276.605469 346.902344 276.738281 C 346.785156 276.746094 346.679688 276.753906 346.582031 276.761719 C 346.414062 276.777344 346.308594 276.828125 346.289062 276.847656 C 345.878906 277.667969 345.488281 278.476562 345.109375 279.25 C 342.148438 285.351562 340.007812 289.753906 331.113281 291.957031 C 331.058594 291.972656 331.019531 292.042969 331.003906 292.109375 C 330.992188 292.15625 330.984375 292.246094 331.027344 292.28125 C 339.25 299.363281 353.296875 295.289062 357.234375 293.945312 C 355.921875 291.894531 353.335938 287.117188 355.300781 283.722656 C 357.042969 280.710938 357.605469 279.660156 357.785156 279.296875 C 357.804688 279.140625 357.867188 278.992188 357.96875 278.867188 C 358.257812 278.5 358.820312 278.382812 359.210938 278.644531 C 359.214844 278.648438 359.21875 278.652344 359.222656 278.65625 C 361.078125 279.210938 362.992188 279.582031 363.421875 279.46875 C 363.582031 279.402344 364.21875 278.929688 364.4375 278.316406 C 364.597656 277.871094 365.09375 275.476562 365.667969 272.359375 C 365.746094 271.929688 366 271.550781 366.371094 271.320312 L 368.535156 269.957031 C 367.179688 266.925781 367.210938 264.382812 367.222656 263.152344 C 367.226562 262.992188 367.230469 262.859375 367.226562 262.757812 C 367.207031 262.078125 367.128906 258.269531 367.085938 256.328125 L 364.613281 256.996094 C 364.195312 257.132812 362.253906 258.359375 361.941406 258.71875 C 361.847656 258.871094 361.777344 259.679688 361.726562 260.21875 C 361.597656 261.667969 361.4375 263.464844 360.160156 264.199219 C 359.375 264.652344 358.398438 264.59375 357.171875 264.019531 C 356.296875 263.609375 355.5625 263.402344 355.042969 263.402344 Z M 343.804688 298.15625 C 338.984375 298.15625 333.871094 297.082031 329.867188 293.632812 C 329.324219 293.164062 329.09375 292.425781 329.269531 291.699219 C 329.445312 290.964844 329.988281 290.402344 330.683594 290.226562 C 338.769531 288.226562 340.550781 284.554688 343.507812 278.46875 C 343.886719 277.6875 344.28125 276.871094 344.710938 276.023438 C 345.007812 275.433594 345.632812 275.058594 346.421875 274.988281 C 346.53125 274.976562 346.648438 274.96875 346.777344 274.960938 C 348.5 274.839844 351.699219 274.617188 352.898438 268.929688 C 352.902344 268.910156 352.902344 268.882812 352.894531 268.863281 C 352.304688 267.019531 351.566406 263.707031 353.222656 262.25 C 354.230469 261.363281 355.8125 261.414062 357.925781 262.40625 C 358.550781 262.699219 359.039062 262.785156 359.269531 262.65625 C 359.742188 262.382812 359.867188 260.984375 359.949219 260.0625 C 360.035156 259.105469 360.109375 258.285156 360.464844 257.71875 C 360.894531 257.042969 363.5 255.433594 364.167969 255.269531 L 367.722656 254.308594 C 367.988281 254.238281 368.273438 254.292969 368.492188 254.457031 C 368.710938 254.621094 368.839844 254.878906 368.847656 255.152344 C 368.847656 255.152344 368.984375 261.792969 369.007812 262.707031 C 369.011719 262.828125 369.011719 262.984375 369.007812 263.171875 C 368.996094 264.296875 368.964844 266.632812 370.222656 269.367188 C 370.558594 270.089844 370.296875 270.957031 369.617188 271.386719 L 367.402344 272.777344 C 367.03125 274.789062 366.386719 278.167969 366.117188 278.921875 C 365.691406 280.097656 364.597656 280.953125 363.988281 281.15625 C 363 281.496094 360.664062 280.925781 359.171875 280.5 C 359.148438 280.535156 359.128906 280.578125 359.105469 280.617188 C 358.671875 281.425781 357.914062 282.769531 356.84375 284.617188 C 355.25 287.371094 358.101562 292.21875 359.332031 293.851562 C 359.5 294.074219 359.554688 294.359375 359.480469 294.625 C 359.40625 294.894531 359.214844 295.109375 358.957031 295.214844 C 358.488281 295.40625 351.523438 298.15625 343.804688 298.15625 " fill-opacity="1" fill-rule="nonzero"/><path fill="#1f2937" d="M 356.332031 268.859375 Z M 355.796875 270.632812 C 355.617188 270.632812 355.4375 270.621094 355.261719 270.59375 C 354.5 270.46875 353.140625 269.957031 352.625 267.910156 C 352.503906 267.433594 352.792969 266.945312 353.269531 266.824219 C 353.746094 266.703125 354.234375 266.996094 354.355469 267.472656 C 354.527344 268.152344 354.835938 268.585938 355.273438 268.761719 C 355.753906 268.949219 356.277344 268.800781 356.4375 268.722656 C 356.726562 268.417969 357.199219 268.351562 357.5625 268.585938 C 357.980469 268.851562 358.101562 269.402344 357.835938 269.816406 C 357.523438 270.3125 356.671875 270.632812 355.796875 270.632812 " fill-opacity="1" fill-rule="nonzero"/><path fill="#1f2937" d="M 369.949219 270.175781 C 369.699219 270.175781 369.4375 270.152344 369.171875 270.105469 C 368.6875 270.023438 368.359375 269.5625 368.445312 269.078125 C 368.527344 268.59375 368.988281 268.265625 369.472656 268.351562 C 370.191406 268.472656 370.722656 268.34375 371.164062 267.953125 C 372.214844 267.003906 372.476562 264.785156 372.5 263.386719 L 358.082031 263.082031 C 357.589844 263.070312 357.199219 262.667969 357.210938 262.171875 C 357.21875 261.683594 357.640625 261.300781 358.117188 261.300781 L 373.394531 261.621094 C 373.855469 261.632812 374.234375 261.992188 374.265625 262.457031 C 374.296875 262.949219 374.515625 267.332031 372.355469 269.277344 C 371.695312 269.867188 370.875 270.175781 369.949219 270.175781 " fill-opacity="1" fill-rule="nonzero"/><path fill="#238354" d="M 348.335938 324.769531 L 348.335938 339.65625 C 348.335938 360.988281 365.117188 378.28125 385.8125 378.28125 C 406.511719 378.28125 423.292969 395.578125 423.292969 416.914062 C 423.292969 418.8125 421.757812 420.351562 419.867188 420.351562 L 320.65625 420.351562 C 289.628906 420.351562 264.472656 394.425781 264.472656 362.445312 L 264.472656 322.828125 C 264.472656 310.109375 274.476562 299.796875 286.820312 299.796875 L 324.105469 299.796875 C 337.488281 299.796875 348.335938 310.976562 348.335938 324.769531 " fill-opacity="1" fill-rule="nonzero"/><path fill="#3fbf7f" d="M 400.660156 406.082031 C 400.378906 406.082031 400.101562 405.949219 399.929688 405.703125 C 394.90625 398.550781 387.160156 394.613281 376.246094 393.667969 C 369.324219 393.070312 362.589844 391.207031 357.773438 388.558594 C 345.824219 381.996094 329.9375 370.347656 329.9375 345.148438 L 329.9375 342.34375 C 329.9375 319.332031 322.875 318.265625 309.335938 318.265625 C 308.84375 318.265625 308.441406 317.863281 308.441406 317.371094 C 308.441406 316.878906 308.84375 316.480469 309.335938 316.480469 C 323.214844 316.480469 331.722656 317.730469 331.722656 342.34375 L 331.722656 345.148438 C 331.722656 369.402344 347.078125 380.648438 358.628906 386.996094 C 363.238281 389.53125 369.714844 391.316406 376.402344 391.894531 C 387.710938 392.871094 396.117188 397.175781 401.386719 404.679688 C 401.671875 405.082031 401.574219 405.636719 401.171875 405.921875 C 401.015625 406.03125 400.835938 406.082031 400.660156 406.082031 " fill-opacity="1" fill-rule="nonzero"/><path fill="#238354" d="M 333.164062 530.464844 L 343.605469 530.464844 L 343.605469 417.273438 L 333.164062 417.273438 L 333.164062 530.464844 " fill-opacity="1" fill-rule="nonzero"/><path fill="#238354" d="M 387.324219 528.789062 L 341.113281 524.714844 L 336.875 524.714844 L 289.699219 528.789062 L 289.699219 532.015625 L 387.324219 532.015625 L 387.324219 528.789062 " fill-opacity="1" fill-rule="nonzero"/><path fill="#3fbf7f" d="M 663.285156 480.410156 C 663.285156 480.410156 631.507812 410.753906 649.734375 320.457031 C 649.734375 320.457031 698.988281 361.726562 681.230469 480.410156 L 663.285156 480.410156 " fill-opacity="1" fill-rule="nonzero"/><path fill="#1f2937" d="M 663.863281 479.519531 L 680.464844 479.519531 C 689.417969 418.835938 680.445312 379.011719 671.3125 356.257812 C 663.1875 336.003906 653.546875 325.398438 650.296875 322.199219 C 641.320312 368.027344 645.445312 408.261719 650.535156 434.0625 C 655.582031 459.640625 662.519531 476.410156 663.863281 479.519531 Z M 681.230469 481.300781 L 663.285156 481.300781 C 662.933594 481.300781 662.617188 481.097656 662.472656 480.78125 C 662.390625 480.605469 654.417969 462.941406 648.796875 434.46875 C 643.613281 408.199219 639.414062 367.066406 648.863281 320.28125 C 648.921875 319.972656 649.144531 319.71875 649.441406 319.613281 C 649.738281 319.511719 650.066406 319.570312 650.308594 319.773438 C 650.816406 320.203125 662.90625 330.519531 672.96875 355.59375 C 682.21875 378.644531 691.3125 419.035156 682.113281 480.539062 C 682.046875 480.976562 681.671875 481.300781 681.230469 481.300781 " fill-opacity="1" fill-rule="nonzero"/><path fill="#ffffff" d="M 671.058594 474.039062 C 671.039062 474.039062 671.023438 474.039062 671.007812 474.039062 C 670.515625 474.011719 670.140625 473.589844 670.167969 473.097656 C 672.601562 428.558594 652.519531 333.5 652.316406 332.542969 C 652.210938 332.0625 652.519531 331.589844 653.003906 331.488281 C 653.480469 331.386719 653.957031 331.695312 654.058594 332.175781 C 654.261719 333.128906 674.390625 428.417969 671.941406 473.195312 C 671.921875 473.671875 671.527344 474.039062 671.058594 474.039062 " fill-opacity="1" fill-rule="nonzero"/><path fill="#ffffff" d="M 695.253906 367.160156 C 695.253906 367.160156 654.3125 441.136719 678.945312 473.144531 L 692.117188 473.144531 C 692.117188 473.144531 718.445312 415.320312 695.253906 367.160156 " fill-opacity="1" fill-rule="nonzero"/><path fill="#1f2937" d="M 679.382812 472.257812 L 691.53125 472.257812 C 692.722656 469.488281 698.277344 456.011719 701.511719 438.011719 C 704.769531 419.871094 706.253906 393.371094 695.199219 369.148438 C 692.621094 374.0625 684.574219 389.988281 678.703125 408.449219 C 672.289062 428.613281 667.234375 455.984375 679.382812 472.257812 Z M 692.113281 474.039062 L 678.941406 474.039062 C 678.664062 474.039062 678.402344 473.910156 678.234375 473.691406 C 667.832031 460.167969 667.417969 438.03125 677.011719 407.878906 C 684.113281 385.5625 694.371094 366.917969 694.476562 366.730469 C 694.632812 366.441406 694.957031 366.257812 695.28125 366.273438 C 695.613281 366.28125 695.910156 366.476562 696.058594 366.777344 C 708.140625 391.871094 706.644531 419.558594 703.257812 438.371094 C 699.597656 458.722656 692.992188 473.371094 692.925781 473.515625 C 692.78125 473.835938 692.464844 474.039062 692.113281 474.039062 " fill-opacity="1" fill-rule="nonzero"/><path fill="#1f2937" d="M 685.09375 476 C 684.617188 476 684.222656 475.621094 684.203125 475.140625 C 683.015625 444.609375 694.261719 367.804688 694.375 367.03125 C 694.445312 366.546875 694.902344 366.207031 695.382812 366.28125 C 695.875 366.351562 696.207031 366.804688 696.136719 367.292969 C 696.023438 368.0625 684.800781 444.703125 685.984375 475.070312 C 686 475.566406 685.617188 475.976562 685.125 476 C 685.117188 476 685.101562 476 685.09375 476 " fill-opacity="1" fill-rule="nonzero"/><path fill="#ffffff" d="M 617.085938 394.738281 C 617.085938 394.738281 651.960938 406.640625 664.59375 477.09375 L 650.875 477.09375 C 650.875 477.09375 622.246094 438.398438 617.085938 394.738281 " fill-opacity="1" fill-rule="nonzero"/><path fill="#1f2937" d="M 651.328125 476.199219 L 663.523438 476.199219 C 657 440.761719 644.726562 420.765625 635.539062 410.203125 C 627.84375 401.367188 620.984375 397.507812 618.160156 396.167969 C 623.421875 436.269531 648.480469 472.222656 651.328125 476.199219 Z M 664.59375 477.980469 L 650.875 477.980469 C 650.589844 477.980469 650.320312 477.851562 650.15625 477.621094 C 649.867188 477.234375 621.328125 438.238281 616.199219 394.84375 C 616.160156 394.539062 616.285156 394.238281 616.523438 394.046875 C 616.761719 393.855469 617.082031 393.796875 617.371094 393.898438 C 617.738281 394.019531 626.4375 397.082031 636.773438 408.910156 C 646.242188 419.742188 658.90625 440.339844 665.46875 476.933594 C 665.515625 477.195312 665.445312 477.460938 665.273438 477.664062 C 665.105469 477.867188 664.855469 477.980469 664.59375 477.980469 " fill-opacity="1" fill-rule="nonzero"/><path fill="#1f2937" d="M 657.09375 476 C 656.664062 476 656.289062 475.6875 656.21875 475.25 C 651.023438 443.867188 628.554688 412.265625 628.328125 411.953125 C 628.039062 411.554688 628.132812 410.996094 628.53125 410.707031 C 628.933594 410.421875 629.488281 410.511719 629.773438 410.910156 C 630.003906 411.234375 652.710938 443.171875 657.976562 474.960938 C 658.054688 475.445312 657.726562 475.90625 657.238281 475.984375 C 657.191406 475.992188 657.140625 476 657.09375 476 " fill-opacity="1" fill-rule="nonzero"/><path fill="#2e9b63" d="M 630.542969 471.5 L 716.589844 471.5 L 718.519531 512.203125 C 718.992188 522.179688 711.03125 530.53125 701.039062 530.53125 L 651.894531 530.53125 C 640.074219 530.53125 630.496094 520.9375 630.503906 509.117188 L 630.542969 471.5 " fill-opacity="1" fill-rule="nonzero"/><path fill="#1f2937" d="M 631.429688 472.390625 L 631.394531 509.121094 C 631.390625 514.601562 633.519531 519.753906 637.390625 523.628906 C 641.261719 527.503906 646.414062 529.636719 651.890625 529.636719 L 701.035156 529.636719 C 705.621094 529.636719 709.890625 527.808594 713.054688 524.492188 C 716.21875 521.175781 717.839844 516.824219 717.625 512.246094 L 715.734375 472.390625 Z M 701.035156 531.421875 L 651.890625 531.421875 C 645.9375 531.421875 640.339844 529.101562 636.128906 524.890625 C 631.921875 520.675781 629.609375 515.074219 629.609375 509.121094 L 629.648438 471.5 C 629.648438 471.007812 630.046875 470.609375 630.539062 470.609375 L 716.585938 470.609375 C 717.0625 470.609375 717.453125 470.984375 717.476562 471.457031 L 719.40625 512.15625 C 719.648438 517.230469 717.851562 522.046875 714.347656 525.722656 C 710.839844 529.398438 706.113281 531.421875 701.035156 531.421875 " fill-opacity="1" fill-rule="nonzero"/></svg>