<svg xmlns="http://www.w3.org/2000/svg" xmlns:xlink="http://www.w3.org/1999/xlink" width="1366" zoomAndPan="magnify" viewBox="0 0 1024.5 576" height="768" preserveAspectRatio="xMidYMid meet" version="1.0"><defs><clipPath id="bcf395ddae"><path d="M 224.777344 43.5 L 798.996094 43.5 L 798.996094 532.261719 L 224.777344 532.261719 Z M 224.777344 43.5 " clip-rule="nonzero"/></clipPath></defs><g clip-path="url(#bcf395ddae)"><path fill="#2e9b63" d="M 347.660156 297.355469 L 296.503906 297.355469 C 292.359375 312.925781 278.152344 324.410156 261.285156 324.410156 C 241.167969 324.410156 224.835938 308.078125 224.835938 287.960938 C 224.835938 267.847656 241.167969 251.515625 261.285156 251.515625 C 278.132812 251.515625 292.328125 262.976562 296.492188 278.523438 L 347.660156 278.523438 L 347.660156 264.53125 L 376.355469 253.488281 C 378.917969 242.808594 382.625 232.496094 387.429688 222.691406 L 340.75 222.691406 C 335.550781 222.691406 331.335938 218.476562 331.335938 213.273438 L 331.335938 115.128906 C 315.777344 110.972656 304.304688 96.773438 304.304688 79.914062 C 304.304688 59.796875 320.636719 43.46875 340.75 43.46875 C 360.867188 43.46875 377.195312 59.796875 377.195312 79.914062 C 377.195312 96.773438 365.722656 110.972656 350.164062 115.128906 L 350.164062 203.859375 L 391.53125 203.859375 L 381.828125 182.039062 L 414.957031 148.910156 L 443.085938 161.414062 C 456.488281 153.15625 471.070312 147.117188 486.363281 143.480469 L 497.453125 114.742188 L 544.3125 114.742188 L 555.359375 143.480469 C 570.648438 147.117188 585.230469 153.15625 598.632812 161.414062 L 626.761719 148.910156 L 659.890625 182.039062 L 647.429688 210.164062 C 651.960938 217.519531 655.828125 225.230469 658.992188 233.226562 L 581.625 233.226562 C 566.65625 216.628906 544.976562 206.203125 520.859375 206.203125 C 475.695312 206.203125 439.121094 242.777344 439.121094 287.941406 C 439.121094 333.105469 475.695312 369.726562 520.859375 369.726562 C 544.992188 369.726562 566.6875 359.269531 581.660156 342.636719 L 658.984375 342.636719 C 655.8125 350.632812 651.941406 358.351562 647.429688 365.714844 L 659.890625 393.839844 L 626.761719 426.96875 L 598.632812 414.511719 C 585.277344 422.769531 570.648438 428.8125 555.359375 432.445312 L 544.3125 461.140625 L 497.453125 461.140625 L 486.410156 432.445312 C 471.070312 428.8125 456.488281 422.722656 443.085938 414.511719 L 414.957031 426.96875 L 381.828125 393.839844 L 391.53125 372.019531 L 350.164062 372.019531 L 350.164062 460.75 C 365.722656 464.90625 377.195312 479.105469 377.195312 495.964844 C 377.195312 516.082031 360.867188 532.410156 340.75 532.410156 C 320.636719 532.410156 304.304688 516.082031 304.304688 495.964844 C 304.304688 479.105469 315.777344 464.90625 331.335938 460.75 L 331.335938 362.605469 C 331.335938 357.40625 335.550781 353.191406 340.75 353.191406 L 387.417969 353.191406 C 382.621094 343.398438 378.914062 333.078125 376.355469 322.4375 L 347.660156 311.394531 Z M 340.75 478.351562 C 331.027344 478.351562 323.136719 486.242188 323.136719 495.964844 C 323.136719 505.6875 331.027344 513.582031 340.75 513.582031 C 350.472656 513.582031 358.367188 505.6875 358.367188 495.964844 C 358.367188 486.242188 350.472656 478.351562 340.75 478.351562 Z M 278.898438 287.941406 C 278.886719 278.226562 270.996094 270.347656 261.285156 270.347656 C 251.5625 270.347656 243.667969 278.238281 243.667969 287.960938 C 243.667969 297.683594 251.5625 305.578125 261.285156 305.578125 C 271.007812 305.578125 278.898438 297.683594 278.898438 287.960938 Z M 340.75 97.53125 C 350.472656 97.53125 358.367188 89.636719 358.367188 79.914062 C 358.367188 70.191406 350.472656 62.296875 340.75 62.296875 C 331.027344 62.296875 323.136719 70.191406 323.136719 79.914062 C 323.136719 89.636719 331.027344 97.53125 340.75 97.53125 Z M 797.441406 291.648438 C 771.085938 314.035156 744.703125 336.421875 718.351562 358.8125 C 716.882812 360.089844 714.914062 360.339844 713.136719 359.527344 C 711.386719 358.71875 710.324219 357.0625 710.324219 355.09375 L 710.324219 323.808594 L 547.304688 323.808594 C 541.933594 323.808594 537.5625 319.4375 537.5625 314.066406 L 537.5625 261.828125 C 537.5625 256.457031 541.933594 252.054688 547.304688 252.054688 L 710.324219 252.054688 L 710.324219 220.769531 C 710.324219 218.832031 711.386719 217.179688 713.136719 216.367188 C 714.914062 215.523438 716.882812 215.804688 718.351562 217.054688 C 744.703125 239.441406 771.085938 261.828125 797.441406 284.214844 C 798.59375 285.183594 799.15625 286.464844 799.15625 287.933594 C 799.15625 289.429688 798.59375 290.710938 797.441406 291.648438 Z M 797.441406 291.648438 " fill-opacity="1" fill-rule="evenodd"/></g></svg>